<?xml version="1.0" encoding="UTF-8" standalone="no"?>
<svg
   xmlns:dc="http://purl.org/dc/elements/1.1/"
   xmlns:cc="http://creativecommons.org/ns#"
   xmlns:rdf="http://www.w3.org/1999/02/22-rdf-syntax-ns#"
   xmlns:svg="http://www.w3.org/2000/svg"
   xmlns="http://www.w3.org/2000/svg"
   xmlns:sodipodi="http://sodipodi.sourceforge.net/DTD/sodipodi-0.dtd"
   xmlns:inkscape="http://www.inkscape.org/namespaces/inkscape"
   height="1000"
   width="1000"
   viewBox="0 0 1354.66 1354.66"
   version="1.1"
   x="0px"
   y="0px"
   id="svg6"
   sodipodi:docname="accessibility.svg"
   style="fill:#000000"
   inkscape:version="0.92.4 (5da689c313, 2019-01-14)">
  <metadata
     id="metadata12">
    <rdf:RDF>
      <cc:Work
         rdf:about="">
        <dc:format>image/svg+xml</dc:format>
        <dc:type
           rdf:resource="http://purl.org/dc/dcmitype/StillImage" />
        <dc:title></dc:title>
      </cc:Work>
    </rdf:RDF>
  </metadata>
  <defs
     id="defs10" />
  <sodipodi:namedview
     pagecolor="#ffffff"
     bordercolor="#666666"
     borderopacity="1"
     objecttolerance="10"
     gridtolerance="10"
     guidetolerance="10"
     inkscape:pageopacity="0"
     inkscape:pageshadow="2"
     inkscape:window-width="1841"
     inkscape:window-height="1053"
     id="namedview8"
     showgrid="false"
     inkscape:pagecheckerboard="true"
     inkscape:zoom="0.417193"
     inkscape:cx="94.105711"
     inkscape:cy="298.56104"
     inkscape:window-x="-9"
     inkscape:window-y="-9"
     inkscape:window-maximized="1"
     inkscape:current-layer="svg6" />
  <g
     id="g827"
     transform="translate(1722.0496,-175.36295)">
    <rect
       y="182.11618"
       x="-1714.4594"
       height="1347.8862"
       width="1347.8862"
       id="rect822"
       style="opacity:1;fill:#ffffff;fill-opacity:1;stroke:#ffffff;stroke-width:6.77372694;stroke-linecap:round;stroke-linejoin:miter;stroke-miterlimit:4;stroke-dasharray:none;stroke-dashoffset:0;stroke-opacity:1;paint-order:normal" />
    <g
       style="fill:#143774;fill-opacity:1;stroke-width:0.10850693"
       id="g4"
       transform="matrix(9.2160011,0,0,9.2160011,-1664.7436,-1256.8656)">
      <path
         inkscape:connector-curvature="0"
         id="path2"
         transform="matrix(0.264582,0,0,0.264582,0,161.534)"
         d="M 6,6 V 506 H 506 V 6 Z m 190.764,70 a 44.6346,44.6043 0 0 1 44.634,44.602 44.6346,44.6043 0 0 1 -44.634,44.597 A 44.6346,44.6043 0 0 1 152.131,120.602 44.6346,44.6043 0 0 1 196.764,76 Z m 0,93.398 c 12.364,0 22.318,9.95 22.318,22.305 v 44.606 h 58.895 c 8.241,0 14.875,6.629 14.875,14.865 0,8.235 -6.634,14.869 -14.875,14.869 h -58.895 v 22.314 h 96.713 0.379 c 7.827,-0.124 15.467,3.877 19.674,11.161 l 59.523,102.992 c 6.183,10.703 2.543,24.291 -8.168,30.467 -10.709,6.179 -24.307,2.532 -30.486,-8.161 L 303.631,332.934 H 196.779 c -10.045,0 -18.497,-6.571 -21.314,-15.657 -0.106,-0.347 -0.204,-0.714 -0.299,-1.054 -0.098,-0.356 -0.182,-0.706 -0.254,-1.084 -0.075,-0.359 -0.139,-0.718 -0.195,-1.096 -0.057,-0.367 -0.107,-0.737 -0.145,-1.115 -0.045,-0.378 -0.048,-0.757 -0.086,-1.135 -0.037,-0.382 -0.039,-0.763 -0.039,-1.152 V 191.699 c 0,-12.355 9.954,-22.301 22.317,-22.301 z m -31.08,87.278 5.447,9.416 -4.707,2.713 c -35.265,20.353 -50.791,62.971 -36.865,101.205 13.926,38.234 53.231,60.907 93.332,53.84 40.102,-7.061 69.273,-41.806 69.273,-82.496 v -5.436 h 10.871 v 5.436 c -0.002,45.895 -33.036,85.235 -78.264,93.203 -39.571,6.973 -78.595,-11.819 -98.253,-45.514 -2.811,-4.811 -5.222,-9.933 -7.186,-15.318 -15.706,-43.129 1.873,-91.389 41.643,-114.334 z"
         style="opacity:1;fill:#143774;fill-opacity:1;fill-rule:nonzero;stroke:none;stroke-width:2.17013335;stroke-linecap:square;stroke-linejoin:miter;stroke-miterlimit:4;stroke-dasharray:none;stroke-dashoffset:0;stroke-opacity:1;paint-order:markers fill stroke" />
    </g>
  </g>
</svg>
