<?xml version="1.0" encoding="UTF-8" standalone="no"?>
<svg
   xmlns:dc="http://purl.org/dc/elements/1.1/"
   xmlns:cc="http://creativecommons.org/ns#"
   xmlns:rdf="http://www.w3.org/1999/02/22-rdf-syntax-ns#"
   xmlns:svg="http://www.w3.org/2000/svg"
   xmlns="http://www.w3.org/2000/svg"
   xmlns:sodipodi="http://sodipodi.sourceforge.net/DTD/sodipodi-0.dtd"
   xmlns:inkscape="http://www.inkscape.org/namespaces/inkscape"
   width="1000"
   height="1000"
   viewBox="0 0 204.8 204.70829"
   preserveAspectRatio="xMinYMin meet"
   version="1.1"
   id="svg6"
   sodipodi:docname="babel.svg"
   inkscape:version="0.92.4 (5da689c313, 2019-01-14)">
  <metadata
     id="metadata12">
    <rdf:RDF>
      <cc:Work
         rdf:about="">
        <dc:format>image/svg+xml</dc:format>
        <dc:type
           rdf:resource="http://purl.org/dc/dcmitype/StillImage" />
        <dc:title />
      </cc:Work>
    </rdf:RDF>
  </metadata>
  <defs
     id="defs10" />
  <sodipodi:namedview
     pagecolor="#ffffff"
     bordercolor="#666666"
     borderopacity="1"
     objecttolerance="10"
     gridtolerance="10"
     guidetolerance="10"
     inkscape:pageopacity="0"
     inkscape:pageshadow="2"
     inkscape:window-width="1841"
     inkscape:window-height="1053"
     id="namedview8"
     showgrid="false"
     inkscape:zoom="0.3192"
     inkscape:cx="145.14308"
     inkscape:cy="623.70501"
     inkscape:window-x="-9"
     inkscape:window-y="-9"
     inkscape:window-maximized="1"
     inkscape:current-layer="svg6"
     inkscape:pagecheckerboard="true" />
  <g
     id="g827">
    <rect
       ry="0"
       y="1.2626281"
       x="1.270321"
       height="203.77594"
       width="203.77594"
       id="rect826"
       style="opacity:1;fill:#ffffff;fill-opacity:1;stroke:#ffffff;stroke-width:1.02406454;stroke-linecap:round;stroke-linejoin:miter;stroke-miterlimit:4;stroke-dasharray:none;stroke-dashoffset:0;stroke-opacity:1;paint-order:normal" />
    <g
       style="stroke-width:2.48937392"
       transform="matrix(0.34788883,-0.2008537,0.2008537,0.34788883,-6.0721006,114.83229)"
       id="g824">
      <path
         style="stroke-width:2.48937392"
         inkscape:connector-curvature="0"
         d="m 351.14,17.697 -0.114,-1.097 -1.777,0.152 0.113,1.096 z m 11.949,28.738 0.038,0.605 1.248,-0.113 c -0.038,-0.378 0.113,-0.983 0.378,-1.739 l -0.114,-1.097 c -0.529,0.038 -1.059,0.832 -1.55,2.344 z m -46.625,36.188 c -0.075,-1.021 -3.252,-4.991 -9.529,-11.987 -0.113,-1.285 2.042,-3.214 6.466,-5.747 l 12.63,-11.004 c 2.836,-3.593 4.5,-9.416 4.992,-17.508 l -0.152,-1.853 c -0.491,-5.596 -4.537,-10.096 -12.213,-13.537 -4.538,-3.063 -12.706,-4.765 -24.504,-5.067 -9.756,0.832 -22.499,4.31 -38.192,10.474 -4.311,3.101 -9.226,6.202 -14.747,9.302 l 0.075,0.946 c 0.341,-0.038 0.87,-0.227 1.475,-0.643 0.643,-0.076 1.021,0.227 1.059,0.832 l 0.945,-0.492 0.454,-0.038 0.038,0.416 c 0.038,0.492 -3.366,3.177 -10.248,7.979 l 0.53,0.983 -0.454,0.038 -1.135,-0.416 c 0.038,0.34 -0.453,0.567 -1.399,0.643 l 0.038,0.416 1.097,1.361 c -0.34,0.038 -0.87,-0.113 -1.588,-0.378 -1.589,0.151 -3.139,0.983 -4.689,2.571 l 0.643,-2.798 c 2.306,-9.945 3.894,-18.756 4.726,-26.394 l -0.113,-0.492 c -1.588,-1.021 -3.139,-2.458 -4.576,-4.273 0.038,-1.172 0.038,-1.852 0,-2.004 l -0.113,-0.416 -0.454,0.114 c -4.991,7.487 -14.596,20.268 -28.852,38.343 -10.852,12.857 -16.449,20.004 -16.789,21.441 -4.424,4.575 -6.542,7.336 -6.315,8.281 -1.172,0.756 -1.664,1.512 -1.475,2.344 -0.34,0.076 -0.567,-0.037 -0.643,-0.378 -1.89,3.063 -4.689,5.029 -8.432,5.899 l -3.933,0.908 c -0.529,0.113 -0.794,0.491 -0.756,1.134 l 0.113,0.492 1.475,-0.341 0.114,0.416 -3.328,1.286 -5.899,1.361 -3.101,0.189 c -0.454,0.454 2.458,-0.037 1.324,0.227 l -3.857,0.908 c -2.345,0.529 -3.63,0.34 -3.857,-0.605 l -0.454,0.113 c 0.076,0.416 0.113,0.719 0.038,0.983 l -0.227,-0.945 -3.101,0.718 c -0.227,-1.436 -4.424,-6.655 -12.554,-15.654 -0.151,-1.74 2.722,-4.274 8.584,-7.563 l 16.562,-14.559 c 3.706,-4.764 5.899,-12.403 6.618,-22.915 l -0.227,-2.458 C 157.911,25.865 152.541,19.89 142.445,15.277 136.47,11.231 125.731,9.075 110.228,8.735 97.371,9.832 80.581,14.407 59.935,22.386 54.263,26.507 47.797,30.591 40.537,34.637 l 0.113,1.286 c 0.492,-0.038 1.134,-0.302 1.928,-0.756 0.832,-0.076 1.286,0.302 1.362,1.059 l 1.285,-0.719 0.643,-0.038 0.038,0.605 c 0.038,0.605 -4.462,4.122 -13.575,10.55 l 0.718,1.135 -0.642,0.038 -1.4,-0.492 c 0.038,0.378 -0.605,0.643 -1.928,0.756 l 0.075,0.681 1.513,1.664 c -0.491,0.038 -1.172,-0.114 -2.042,-0.416 -2.949,0.265 -5.823,2.382 -8.659,6.391 l 0.718,1.134 c 2.458,-2.269 3.895,-3.403 4.311,-3.441 l 0.151,1.853 c -0.416,0.038 -1.059,0.302 -1.928,0.756 l 1.55,2.345 a 51.198,51.198 0 0 1 9.87,-8.282 c 1.777,0.454 2.722,1.021 2.76,1.626 l 1.361,-0.113 C 48.515,45.036 58.158,39.818 67.725,36.604 l 0.113,1.285 c -1.777,2.647 -2.987,4.009 -3.63,4.084 0.076,0.908 0.378,1.702 0.945,2.383 0.152,1.626 -4.197,12.592 -13.008,32.86 -20.003,47.116 -36.793,81.98 -50.443,104.518 0.037,0.453 0.302,1.058 0.794,1.815 3.365,-0.794 5.483,-1.626 6.39,-2.421 l 0.719,-0.075 0.113,1.286 1.248,-0.114 1.286,-0.718 c 0.038,0.378 0.454,0.567 1.323,0.491 l 0.114,1.286 c 0.113,1.248 -0.605,3.138 -2.118,5.748 -1.361,1.55 -2.836,4.802 -4.386,9.756 l 0.037,0.605 1.248,-0.114 c 5.446,-6.088 9.567,-12.063 12.403,-17.886 15.882,-4.651 27.983,-9.226 36.377,-13.726 8.433,-0.719 14.861,-2.95 19.248,-6.618 l -0.076,-0.68 -3.176,0.945 -0.719,0.076 -0.076,-0.681 c 6.202,-0.945 10.475,-2.307 12.857,-4.197 12.063,-9.303 21.176,-15.882 27.34,-19.777 12.667,-9.302 20.911,-18.378 24.654,-27.188 a 79.463,79.463 0 0 0 2.118,-0.492 c 1.777,-0.075 2.76,-0.113 3.025,-0.189 -0.076,-0.34 0.076,-0.529 0.416,-0.605 2.836,-0.302 1.475,0.189 3.29,-0.227 l 4.764,-1.096 c -0.302,0.075 -0.416,0.227 -0.34,0.529 l 0.718,-0.454 c -0.151,0 -0.264,-0.037 -0.378,-0.075 l 0.794,-0.189 -0.378,0.227 c 0.53,0.075 1.097,0.037 1.74,-0.114 l 0.34,1.399 -21.667,34.449 -4.803,6.012 -2.344,7.865 0.454,-0.113 2.344,-0.983 -0.756,3.063 0.227,0.907 0.642,0.794 c -0.302,0.076 -0.415,0.265 -0.34,0.605 l 0.114,0.492 0.983,-0.227 c 1.437,-1.248 2.042,-2.382 1.815,-3.403 1.55,0.264 2.571,0.378 3.101,0.227 l 0.113,0.491 c -0.945,0.227 -1.437,0.983 -1.513,2.269 l 0.114,0.492 0.529,-0.114 c 7.866,-8.584 27.151,-37.965 42.617,-57.893 -0.492,-2.155 7.562,-5.143 24.2,-9 l 0.53,-0.113 c 0.605,2.609 -0.681,8.924 -3.857,18.945 -2.042,6.05 -3.025,9.378 -2.874,9.907 -2.647,8.054 -3.895,12.403 -3.744,13.084 l -5.899,19.322 c -3.819,9.908 -6.73,20.307 -8.772,31.273 0.34,-0.076 0.869,-0.038 1.626,0.151 l 0.831,-0.719 c 0.076,0.341 0.303,0.454 0.643,0.378 l -0.34,-1.399 2.571,-0.075 c 0.756,-0.189 1.399,-1.135 1.929,-2.874 -0.114,-2.609 0.416,-4.008 1.588,-4.311 1.588,-6.201 2.571,-9.302 2.912,-9.416 1.474,-6.163 2.571,-9.68 3.289,-10.55 2.232,-8.016 3.857,-12.138 4.916,-12.403 l 0.227,0.984 -1.626,4.197 c -2.836,12.592 -5.71,22.537 -8.621,29.835 l 0.832,3.63 0.529,-0.113 c 7.033,-15.126 17.167,-45.074 30.364,-89.846 0.379,-3.933 2.269,-6.996 5.635,-9.151 l -0.757,-0.794 -0.113,-0.416 c 1.513,-0.34 2.571,-0.945 3.176,-1.777 -0.075,-0.341 -1.399,-0.832 -3.97,-1.513 l 6.58,-28.209 c 1.436,-1.286 2.268,-1.966 2.533,-1.966 l 0.114,1.437 c -0.341,0.037 -0.87,0.226 -1.475,0.642 l 1.248,1.778 c 2.268,-2.458 4.726,-4.576 7.411,-6.353 1.361,0.378 2.042,0.832 2.118,1.286 l 0.983,-0.076 c 7.487,-5.483 14.823,-9.416 22.045,-11.798 l 0.076,0.945 c -1.323,2.004 -2.231,3.025 -2.723,3.063 0.076,0.681 0.265,1.286 0.605,1.815 0.114,1.248 -3.138,9.567 -9.793,24.995 -15.202,35.734 -27.945,62.166 -38.306,79.334 0.038,0.34 0.265,0.794 0.681,1.399 2.533,-0.605 4.159,-1.248 4.802,-1.853 l 0.454,-0.038 0.076,0.946 1.058,-0.076 0.946,-0.492 c 0.037,0.265 0.378,0.379 1.021,0.341 l 0.075,1.021 c 0.076,0.907 -0.453,2.344 -1.626,4.31 -1.096,1.173 -2.231,3.631 -3.441,7.374 l 0.038,0.492 0.983,-0.076 c 4.122,-4.613 7.26,-9.151 9.416,-13.613 12.062,-3.554 21.251,-6.995 27.604,-10.399 6.466,-0.567 11.344,-2.231 14.672,-5.029 l -0.038,-0.491 -2.458,0.718 -0.529,0.038 -0.038,-0.492 c 4.689,-0.68 7.979,-1.739 9.756,-3.138 9.151,-7.034 16.071,-12.063 20.76,-15.012 14.596,-10.626 21.402,-20.836 20.57,-30.63 z m -2.495,0.643 0.34,3.819 c -0.454,0.946 -0.945,1.437 -1.399,1.475 l -0.567,-6.504 c 1.058,0.378 1.588,0.756 1.626,1.21 z m -286.327,-30.78 -0.643,0.037 -0.113,-1.172 2.609,-0.227 0.038,0.605 c -0.416,0.038 -1.059,0.265 -1.891,0.757 z m -12.743,127.47 c -1.513,-0.68 -2.874,-0.945 -4.046,-0.832 l -0.152,-1.853 c -0.075,-0.718 0.341,-1.21 1.248,-1.399 0.832,-0.075 1.324,0.53 1.399,1.74 2.194,-2.685 3.404,-4.046 3.631,-4.084 l 1.399,0.567 c -0.454,3.782 -1.626,5.71 -3.479,5.861 z M 151.067,37.511 c -0.643,0.076 -1.929,-1.928 -3.782,-5.899 l -0.113,-1.172 c 1.21,-0.113 2.458,1.853 3.781,5.899 z m -1.816,-14.104 -0.529,1.248 -18.491,-7.714 c 12.327,0.416 18.68,2.571 19.02,6.466 z m -78.085,67.044 -2.609,0.227 -0.114,-1.173 2.609,-0.226 z m -2.118,-40.272 0.643,-0.038 0.151,1.853 c -0.605,0.038 -1.399,0.945 -2.382,2.685 l -0.114,-1.286 c 1.173,-1.399 1.778,-2.458 1.702,-3.214 z m -5.483,12.932 0.227,2.458 -0.643,0.038 -0.227,-2.458 z m -2.874,4.614 1.248,-0.114 c -0.113,2.042 -0.68,3.139 -1.701,3.214 l -0.643,0.038 c 0.794,-1.361 1.172,-2.42 1.096,-3.138 z m -2.155,6.428 0.718,-0.076 0.038,0.605 -1.172,1.967 -1.248,0.113 -0.038,-0.605 c 1.248,-0.113 1.815,-0.756 1.702,-2.004 z m -2.118,5.786 -0.378,3.1 -0.643,0.038 -0.264,-3.063 z m -21.213,60.313 c -0.832,4.235 -1.74,6.39 -2.685,6.466 l -0.038,-0.605 c -0.227,-2.08 0.681,-4.046 2.723,-5.861 z m -3.895,8.432 0.038,0.605 c 0.075,0.832 -0.303,1.324 -1.135,1.361 l -0.037,-0.605 c -0.076,-0.718 0.302,-1.172 1.134,-1.361 z m -1.134,17.508 1.966,-0.189 0.075,0.681 c -0.491,0.037 -1.134,0.302 -1.928,0.756 l -1.248,0.113 c -0.076,-0.642 0.34,-1.134 1.134,-1.361 z M 86.14,148.911 c -11.042,5.445 -17.546,9.151 -19.474,11.079 -11.949,4.16 -17.886,6.731 -17.773,7.752 -10.625,4.198 -17.621,7.299 -20.986,9.227 -0.794,0.076 -1.929,-0.227 -3.441,-0.908 -0.189,-2.155 0.794,-3.894 2.873,-5.293 1.853,-0.152 3.63,0.113 5.332,0.831 1.967,-1.021 5.408,-2.155 10.286,-3.365 l -0.114,-1.286 -3.932,0.341 c 0.491,-0.681 4.272,-2.458 11.381,-5.332 l 1.967,-0.189 0.038,0.605 c -3.366,0.302 -5.219,1.286 -5.635,3.063 0.076,0.794 0.53,1.134 1.362,1.059 2.533,-1.589 3.781,-2.534 3.743,-2.799 4.803,-0.907 18.075,-7.865 39.818,-20.835 l 0.114,1.172 c 0.038,0.567 -1.815,2.155 -5.559,4.878 z m -33.352,10.966 c 3.177,-0.265 5.899,-1.55 8.168,-3.781 0.907,-0.076 1.399,0.264 1.437,1.058 -1.551,0.152 -4.538,1.437 -8.886,3.933 l -0.643,0.038 z m 53.809,-41.331 -16.676,13.198 c -12.403,8.13 -19.058,12.213 -20.003,12.289 -19.739,10.853 -32.028,16.487 -36.793,16.903 l -0.718,0.075 c 0.605,-2.23 9.377,-20.192 26.394,-53.998 7.487,-0.643 19.285,-4.121 35.356,-10.474 l 3.932,-0.341 c 8.13,-0.718 14.218,0.87 18.227,4.652 l 0.226,2.457 c -3.025,8.698 -6.352,13.765 -9.945,15.239 z m -32.595,-18.339 2.685,-0.227 0.037,0.605 -2.684,0.227 z m 37.7,-6.391 1.967,-0.189 c 1.815,0.87 2.76,1.626 2.836,2.307 l 0.037,0.605 c -1.739,0.151 -3.365,-0.756 -4.84,-2.723 z m 5.332,-30.364 c -1.739,2.079 -6.504,5.634 -14.294,10.625 -2.571,0.227 -12.138,3.933 -28.7,11.193 a 5.24,5.24 0 0 0 -2.647,-0.453 l -0.114,-1.173 c -0.189,-2.382 0.87,-5.369 3.214,-8.999 1.286,-6.807 2.685,-10.702 4.236,-11.647 L 92.531,31.953 c -0.152,-1.929 2.798,-3.404 8.848,-4.425 l 1.966,-0.189 0.152,1.778 c 5.936,-0.908 9.642,-1.437 11.079,-1.551 10.966,-0.945 16.676,1.286 17.13,6.618 l 1.248,-0.114 -0.265,-3.138 1.361,-0.114 c 3.214,1.778 4.954,3.933 5.181,6.466 0.151,1.74 -0.794,3.895 -2.799,6.467 -0.831,0.075 -1.323,-0.53 -1.399,-1.74 l -1.361,0.114 -0.302,3.781 c -5.559,8.319 -9.605,12.592 -12.101,12.819 -2.269,3.139 -3.668,4.689 -4.235,4.727 z m 8.47,21.743 c -1.134,-0.757 -2.042,-1.097 -2.722,-1.059 l -0.152,-1.853 1.248,-0.113 2.761,1.626 c 0.113,0.869 -0.265,1.323 -1.135,1.399 z m 8.773,10.398 c 1.21,0.492 1.929,1.021 2.08,1.513 l -0.605,0.151 0.038,0.038 c -0.114,0 -0.265,0.038 -0.379,0.076 l -0.907,0.718 z m 0.832,5.219 -0.113,-0.492 1.588,-0.378 0.113,0.492 z m 3.819,4.273 c 1.626,-0.265 2.42,-0.378 5.445,-1.059 l 0.114,0.492 -5.748,1.323 c 0.076,-0.265 0.151,-0.529 0.189,-0.756 z m 5.597,2.382 c -2.42,0.227 -1.891,-0.076 -5.748,0.794 l -0.114,-0.491 4.803,-1.551 2.307,-0.529 0.226,0.907 c -1.021,0.227 -0.264,0.227 -1.474,0.87 z m 5.105,-1.21 c -0.568,0.151 -1.021,-0.113 -1.286,-0.756 l 1.475,-0.341 c 0.642,-0.151 1.058,0.114 1.21,0.757 z m 13.839,-14.899 -0.113,-0.491 2.382,-0.567 0.227,0.907 z m 14.786,90.678 c 0.151,-0.681 0.189,-1.172 0.113,-1.513 l 0.53,-0.113 c 0.642,-0.151 1.02,0.076 1.172,0.681 l 0.113,0.491 z m 10.361,-86.783 -1.059,-0.189 c -1.702,0.681 -3.139,1.172 -4.311,1.437 l -0.983,0.227 c -0.567,0.151 -1.021,-0.076 -1.248,-0.681 l 6.92,-1.588 2.269,-1.059 0.756,0.87 c -1.097,0.227 -1.891,0.567 -2.344,0.983 z m 5.331,-1.702 -0.113,-0.491 c 0.34,-0.076 0.794,-0.34 1.286,-0.832 l 4.915,-1.134 0.114,0.491 c -2.609,0.643 -4.689,1.286 -6.202,1.966 z m 0.757,-9.945 c -0.341,0.076 -0.794,0.379 -1.362,0.832 -0.075,-0.34 -0.756,-0.34 -2.042,-0.037 -0.226,-0.946 3.404,-2.269 10.929,-4.009 l 1.058,-0.227 0.227,0.908 c -5.294,1.55 -8.243,2.42 -8.81,2.533 z m 13.235,-14.293 c -0.53,6.012 -2.647,9.416 -6.391,10.285 l -0.113,-0.491 -3.328,1.285 -1.475,0.341 c -0.756,0.189 -1.437,0.151 -2.042,-0.038 l -0.302,-1.324 c -0.114,-0.491 4.689,-7.147 14.445,-19.928 l 1.134,0.19 c 0.416,1.739 -0.227,4.953 -1.928,9.68 z m 23.406,-20.042 -0.453,0.038 -0.076,-0.945 1.966,-0.189 0.038,0.491 c -0.34,0.076 -0.832,0.265 -1.475,0.605 z m -9.642,96.842 c -1.135,-0.53 -2.156,-0.756 -3.025,-0.681 l -0.114,-1.437 c -0.038,-0.491 0.265,-0.832 0.908,-1.021 0.643,-0.075 1.021,0.378 1.096,1.362 1.626,-2.08 2.534,-3.139 2.723,-3.139 l 1.021,0.416 c -0.378,2.874 -1.248,4.386 -2.609,4.5 z M 325.086,37.965 c -0.492,0.038 -1.437,-1.475 -2.912,-4.538 l -0.075,-0.945 c 0.945,-0.076 1.928,1.399 2.911,4.424 z m -1.361,-10.815 -0.454,0.983 -13.991,-5.861 c 9.34,0.303 14.18,1.929 14.445,4.878 z m -59.33,50.936 -1.967,0.189 -0.075,-0.946 1.966,-0.151 z m -1.626,-30.592 0.529,-0.038 0.113,1.437 c -0.491,0.038 -1.096,0.719 -1.815,2.042 l -0.075,-0.945 c 0.87,-1.097 1.285,-1.929 1.248,-2.496 z m -4.122,9.832 0.151,1.853 -0.529,0.038 -0.152,-1.853 z m -2.231,3.517 0.983,-0.076 c -0.113,1.588 -0.529,2.42 -1.248,2.496 l -0.529,0.037 c 0.567,-1.058 0.832,-1.89 0.794,-2.457 z m -1.588,4.84 0.454,-0.038 0.037,0.491 -0.869,1.513 -0.984,0.076 -0.037,-0.492 c 1.021,-0.076 1.474,-0.605 1.399,-1.55 z m -1.588,4.386 -0.341,2.42 -0.454,0.038 -0.189,-2.382 z m -16.147,45.868 c -0.643,3.177 -1.323,4.803 -2.042,4.878 l -0.038,-0.416 c -0.113,-1.588 0.567,-3.1 2.08,-4.462 z m -2.987,6.391 0.037,0.416 c 0.076,0.68 -0.226,1.059 -0.907,1.096 l -0.038,-0.491 c -0.038,-0.492 0.265,-0.832 0.908,-1.021 z m -0.832,13.31 1.512,-0.113 0.038,0.491 c -0.34,0.038 -0.87,0.227 -1.475,0.568 l -0.983,0.075 c -0.038,-0.529 0.265,-0.869 0.908,-1.021 z m 42.465,-13.121 c -8.319,4.122 -13.273,6.92 -14.823,8.357 -9.076,3.176 -13.575,5.143 -13.5,5.937 -8.054,3.214 -13.348,5.52 -15.844,6.995 -0.605,0.038 -1.475,-0.189 -2.609,-0.718 -0.151,-1.626 0.605,-2.95 2.193,-3.933 1.437,-0.113 2.798,0.076 4.046,0.605 1.513,-0.756 4.122,-1.588 7.828,-2.533 l -0.076,-0.946 -3.101,0.227 c 0.379,-0.529 3.29,-1.891 8.698,-4.084 l 1.512,-0.113 0.038,0.416 c -2.571,0.227 -4.008,0.983 -4.311,2.344 0.038,0.605 0.416,0.908 1.059,0.832 1.891,-1.248 2.798,-1.966 2.798,-2.193 3.63,-0.643 13.689,-5.937 30.214,-15.844 l 0.075,0.945 c 0.038,0.416 -1.361,1.626 -4.197,3.706 z m -25.335,8.319 c 2.457,-0.227 4.537,-1.172 6.277,-2.836 0.642,-0.076 1.021,0.227 1.058,0.832 -1.134,0.113 -3.365,1.059 -6.731,2.874 l -0.529,0.038 z m 40.914,-31.423 -12.592,10.134 c -9.416,6.163 -14.52,9.264 -15.315,9.34 -14.974,8.243 -24.276,12.516 -27.944,12.819 l -0.529,0.038 c 0.453,-1.702 7.147,-15.353 20.079,-40.991 5.634,-0.491 14.558,-3.176 26.81,-8.016 l 3.063,-0.265 c 6.163,-0.529 10.777,0.681 13.802,3.592 l 0.151,1.853 c -2.307,6.504 -4.802,10.323 -7.525,11.496 z m -24.73,-13.916 1.966,-0.189 0.038,0.492 -1.966,0.189 z m 28.625,-4.878 1.513,-0.113 c 1.399,0.68 2.117,1.286 2.155,1.777 l 0.038,0.416 c -1.324,0.113 -2.572,-0.567 -3.706,-2.08 z m 3.97,-23.028 c -1.323,1.588 -4.915,4.31 -10.776,8.092 -1.967,0.189 -9.227,2.987 -21.781,8.432 -0.605,-0.227 -1.286,-0.302 -2.005,-0.264 l -0.075,-0.946 c -0.151,-1.815 0.643,-4.084 2.382,-6.844 0.983,-5.218 2.08,-8.13 3.214,-8.811 l 10.55,-23.596 c -0.113,-1.399 2.118,-2.533 6.656,-3.403 l 1.512,-0.113 0.114,1.437 c 4.462,-0.719 7.26,-1.135 8.394,-1.248 8.319,-0.719 12.668,0.945 13.008,5.029 l 0.983,-0.076 -0.189,-2.269 0.984,-0.075 c 2.42,1.323 3.705,2.912 3.857,4.802 0.113,1.362 -0.568,3.025 -2.005,4.954 -0.642,0.075 -1.02,-0.378 -1.096,-1.361 l -0.983,0.075 -0.303,2.836 c -4.197,6.391 -7.26,9.681 -9.189,9.832 -1.701,2.307 -2.76,3.479 -3.252,3.517 z m 4.425,15.73 -0.114,-1.437 0.983,-0.075 2.118,1.285 c 0.038,0.605 -0.265,0.946 -0.908,1.021 -0.907,-0.567 -1.588,-0.832 -2.079,-0.794 z m -176.024,91.85 -0.983,0.227 -0.832,0.718 c 0.151,0.605 0.529,0.832 1.172,0.681 0.643,-0.151 0.908,-0.529 0.757,-1.134 z m -3.743,-7.449 0.113,0.491 c 0.643,-0.151 0.907,-0.529 0.756,-1.134 l -0.113,-0.492 c -0.605,0.152 -0.87,0.53 -0.756,1.135 z m 26.62,-63.339 1.135,-0.264 -0.227,-0.983 -1.134,0.264 z m 343.124,28.815 c -11.496,2.571 -12.933,2.117 -15.353,2.306 l 0.076,0.946 1.059,-0.076 0.567,-0.038 -0.151,-0.113 1.247,-0.492 c 11.382,-1.248 12.706,-0.794 12.592,-2.08 z m -61.902,8.205 0.076,0.946 h 0.151 l -0.075,-0.946 z m -7.109,-24.919 -1.021,-0.34 c -0.832,2.231 -1.248,3.554 -1.21,3.932 l 0.038,0.416 c 0.794,-0.038 1.513,-1.399 2.193,-4.008 z m 71.355,16.525 0.076,0.945 1.663,0.302 -0.075,-0.945 z m -78.237,9.566 -2.571,-0.302 -0.454,0.983 0.038,0.492 15.314,-1.286 -0.075,-0.945 z m -6.958,-33.54 -0.037,-0.492 -0.53,0.038 -0.945,0.605 0.529,0.907 c 0.719,-0.075 1.059,-0.416 0.983,-1.058 z m 92.455,17.016 0.719,-0.076 c 0.416,-0.038 0.605,-0.378 0.567,-0.983 l -0.416,-0.908 c -2.609,0.227 -3.819,0.341 -5.937,1.513 l -0.038,-0.491 -3.138,0.302 c -0.076,-0.945 -0.34,-1.437 -0.756,-1.399 l -1.626,0.151 c -1.891,0.151 -2.799,0.076 -3.744,0.794 -0.038,-0.34 -0.151,-0.491 -0.34,-0.491 l -1.815,0.151 -1.059,0.605 c -0.038,-0.34 -0.151,-0.492 -0.341,-0.492 l -0.642,0.568 -0.038,-0.492 -2.534,-0.189 -0.605,0.038 0.076,0.945 1.286,0.34 1.21,-0.075 c 0.416,0.265 0.869,0.34 1.399,0.302 l 1.059,-0.529 0.037,0.416 c -5.936,1.475 -5.899,1.21 -9.983,1.891 -0.453,-0.303 -0.794,-0.454 -1.021,-0.416 l -0.075,0.075 c -0.454,-0.038 -0.719,-0.34 -0.756,-0.832 l 2.117,-0.264 c 0.151,0 0.265,0.151 1.437,0.378 1.702,-0.832 1.777,-1.173 2.685,-1.248 l -0.076,-0.946 c -5.823,1.135 -3.479,0.379 -10.777,1.021 l -0.34,0.038 -0.076,-0.945 c 9.378,-1.134 6.24,-0.492 9.454,-1.399 0.038,0.34 0.151,0.491 0.34,0.491 a 2.198,2.198 0 0 1 1.286,-0.642 l 0.643,-0.038 c 3.289,-0.265 4.386,0.378 10.89,-1.437 l 0.038,0.416 1.059,-0.53 0.983,-0.075 c -0.076,-0.946 1.361,-1.097 1.853,-1.135 l -0.076,-1.021 c -11.42,2.307 -14.407,1.664 -17.583,2.572 l -0.038,-0.416 c -2.987,0.529 -3.101,0.302 -3.857,0.34 -0.227,0.038 -0.567,0.227 -0.946,0.605 -0.037,-0.34 -0.151,-0.492 -0.378,-0.492 -0.113,0 -0.151,0.038 -0.189,0.038 l -9.68,1.588 c -0.038,-0.264 -0.151,-0.415 -0.378,-0.378 -5.029,1.059 -3.668,1.248 -10.399,1.853 -0.303,0.038 -0.718,0.189 -1.248,0.53 -0.038,-0.265 -0.189,-0.416 -0.529,-0.379 l -4.122,0.341 -2.76,0.68 c -0.038,-0.264 -0.189,-0.415 -0.53,-0.378 -1.55,0.416 -2.911,0.681 -4.008,0.757 h -0.076 c -0.68,0.075 0.341,-0.189 -0.189,-0.416 l -0.832,0.491 c -1.21,0.114 -0.567,-0.075 -4.726,-0.038 -7.298,0.908 -6.504,1.021 -7.298,1.059 l -2.723,-0.189 c 0.038,0.265 -0.113,0.454 -0.416,0.454 -3.101,-0.416 -4.689,-0.908 -4.727,-1.475 0.416,-2.949 1.135,-4.462 2.156,-4.538 l 0.529,-0.037 -0.454,0.983 0.53,-0.038 c 0.983,-0.529 1.437,-1.021 1.399,-1.475 l -0.076,-1.021 -0.983,0.076 -0.076,-0.945 c -0.075,-0.719 0.038,-1.362 0.303,-1.891 l 2.231,-3.592 0.076,0.945 1.058,-0.076 -0.075,-0.945 -0.605,-0.87 c 0.794,-0.68 1.399,-1.059 1.89,-1.096 l -0.037,-0.492 -1.437,0.114 -0.114,-1.437 c 2.874,-5.975 4.235,-9.454 4.16,-10.437 l 1.021,0.416 c 0.643,-0.038 0.945,-0.416 0.907,-1.097 l -0.983,0.076 -0.038,-0.416 a 3.613,3.613 0 0 1 0.378,-2.004 c 1.551,-1.626 2.269,-3.252 2.118,-4.954 0.303,-0.038 0.454,0.114 0.492,0.454 1.323,-0.756 2.344,-2.76 3.1,-6.088 2.345,-4.235 5.672,-12.705 10.021,-25.373 8.319,-22.386 7.979,-24.768 9.151,-30.062 l -0.983,0.075 c 0.075,0.681 -0.076,1.324 -0.378,1.929 -0.681,-0.265 -1.21,-0.416 -1.588,-0.378 l -0.038,-0.416 c -0.152,-1.929 0.643,-4.235 2.458,-6.958 l 0.453,-0.038 0.832,3.252 0.983,-0.075 c -0.037,-0.227 0.227,-1.513 0.757,-3.895 -0.038,-0.492 -0.416,-0.794 -1.173,-0.832 l -0.945,0.605 c -0.075,-0.681 -0.038,-2.458 0.076,-5.294 l -0.492,0.038 c -0.832,-0.832 -1.248,-1.513 -1.286,-2.08 l -5.407,0.529 c -0.038,-0.378 -0.227,-0.945 -0.605,-1.663 -0.038,-0.492 1.172,-0.984 3.668,-1.475 l 1.097,0.416 1.021,-0.605 c 0.037,0.34 0.226,0.491 0.604,0.454 l 1.021,-0.605 c 0.038,0.34 0.227,0.491 0.606,0.453 L 456.3,4.16 456.224,3.063 c -0.756,0.076 -2.76,0.076 -5.936,-0.038 l -1.021,0.681 -0.038,-0.605 c -25.373,2.079 -39.78,3.252 -43.221,3.592 -0.454,0.038 -2.231,0 -5.37,-0.076 0.038,0.416 -0.34,0.643 -1.096,0.719 l -1.097,-0.492 -3.706,0.946 c -0.87,0.075 -2.344,0.037 -4.386,-0.189 -0.567,0.453 -1.248,0.718 -2.08,0.794 -0.454,0.037 5.407,-0.303 10.852,-0.681 -0.567,0.454 -1.436,0.718 -2.646,0.832 -0.832,0.076 -1.551,-0.038 -2.156,-0.378 -0.832,0.378 -3.516,0.983 -8.016,1.89 l -1.097,-0.415 -17.697,2.722 c -0.681,-0.34 -1.475,-0.454 -2.382,-0.378 -0.946,0.076 -2.534,0.416 -4.727,1.021 l -8.546,3.554 0.643,1.059 c 0.416,-0.038 1.021,-0.264 1.739,-0.68 l 3.026,0.264 -0.379,2.836 c -2.798,1.248 -4.424,3.101 -4.878,5.446 -4.197,1.852 -6.277,3.176 -6.277,3.97 l 0.038,0.492 0.643,-0.038 1.134,-0.605 1.324,1.588 0.189,2.193 c 0.075,0.681 -6.996,15.542 -21.138,44.583 -12.252,27.982 -18.68,43.297 -19.285,46.057 -4.197,1.172 -6.618,2.874 -7.336,5.143 0.076,0.718 1.323,1.21 3.743,1.399 l 0.114,1.096 -1.097,1.815 0.189,2.194 c 0.114,1.134 3.177,2.004 9.189,2.609 -0.038,-0.378 0.152,-0.605 0.567,-0.643 0.114,1.361 -0.264,4.008 -1.134,7.941 l 0.643,-0.038 c 2.495,-3.403 3.668,-5.748 3.554,-7.033 l 0.53,-0.038 c 0.605,-0.038 1.248,0.643 2.004,2.117 -0.756,0.303 -3.403,6.315 -7.941,18.076 l 0.643,1.058 0.643,-0.037 c 5.558,-14.067 9.037,-21.857 10.474,-23.332 7.298,-0.643 19.928,-1.928 37.852,-3.857 l 1.134,-0.68 c 0.038,0.378 0.265,0.567 0.681,0.529 l 1.172,-0.113 1.135,-0.681 c 0.037,0.378 0.264,0.567 0.68,0.529 l 13.575,-1.172 c 3.593,-0.302 5.294,-1.399 5.143,-3.252 -0.038,-0.491 2.08,-1.059 6.353,-1.664 0.416,-0.038 1.021,0.076 1.853,0.341 -0.038,-0.341 2.117,-0.681 6.428,-1.059 0.114,-2.269 0.832,-3.479 2.118,-3.592 l -0.114,-1.097 c -1.21,0.113 -2.571,0.416 -4.159,0.945 -2.836,-0.151 -4.651,-0.378 -5.408,-0.643 -0.756,0.416 -1.323,0.643 -1.739,0.681 l -9.454,0.303 -1.134,0.605 c -0.038,-0.341 -0.265,-0.492 -0.681,-0.454 l -0.529,0.038 -1.21,0.605 c -0.038,-0.341 -1.021,-0.605 -2.988,-0.87 l -1.209,0.718 -2.345,0.189 -0.038,-0.605 c 12.176,-1.323 18.189,-2.987 18.037,-4.953 0.795,-0.076 1.211,0.302 1.286,1.097 l 3.555,-0.908 -0.114,-1.097 -29.154,0.794 c 0.037,0.379 -0.152,0.605 -0.567,0.643 l -3.555,-0.302 c -0.908,0.075 -1.664,0.34 -2.269,0.794 l -1.323,-0.492 c -3.668,0.303 -6.391,0.757 -8.206,1.324 -2.496,-0.189 -5.256,-0.152 -8.319,0.113 l -6.542,0.567 -3.025,-0.34 c -0.151,-1.928 3.592,-11.42 11.306,-28.436 2.232,-5.748 4.273,-9.34 6.24,-10.701 0.416,-0.038 1.021,0.113 1.853,0.453 l 4.651,-1.588 2.382,0.378 c 4.008,-0.34 8.659,-1.474 13.991,-3.441 1.324,-0.113 2.307,-0.037 3.025,0.265 l 3.555,-0.832 10.588,-0.907 c 4.499,-0.378 9.377,-1.362 14.671,-2.988 l -0.113,-1.096 c -1.966,0.189 -2.987,-0.151 -3.063,-0.946 -0.113,-1.474 -1.55,-2.079 -4.311,-1.853 l -0.113,-1.096 2.912,-0.832 7.638,-0.643 -0.114,-1.096 c -0.302,0.037 -1.852,0 -4.726,-0.114 l -0.114,-1.172 2.95,-0.265 c 0.794,-0.075 1.134,-0.454 1.059,-1.21 -3.971,0.114 -5.975,-0.075 -6.013,-0.605 -27.68,1.361 -41.557,1.626 -41.633,0.756 -0.416,0.038 -0.983,0.303 -1.739,0.757 l -0.719,-1.135 c 7.336,-15.579 11.647,-23.444 12.895,-23.558 0.037,0.605 -0.265,1.588 -0.946,2.912 l 0.038,0.491 1.172,-0.113 c 2.912,-6.958 5.37,-10.55 7.412,-10.701 8.697,-0.757 -1.21,-1.324 17.394,-4.235 0.757,0.34 1.286,0.491 1.664,0.453 7.298,-1.474 17.47,-3.025 30.516,-4.613 l -0.076,-1.097 -6.958,0.643 -0.075,-1.096 c 0.832,-0.076 1.512,-0.341 2.08,-0.794 l 0.037,0.605 c 0.379,-0.038 0.908,-0.303 1.589,-0.757 1.21,-0.113 2.117,0 2.76,0.341 2.42,-0.643 4.386,-1.021 5.823,-1.173 l 4.349,-0.416 c 1.059,-0.68 1.55,-1.285 1.513,-1.852 l -0.038,-0.492 c -1.097,0.113 -2.345,0.038 -3.819,-0.227 -0.038,-0.605 0.264,-1.021 0.983,-1.21 l 8.092,-0.756 3.706,-0.946 c 0.037,0.416 0.227,0.568 0.529,0.568 0.378,-0.038 0.908,-0.303 1.588,-0.757 0.189,0.038 0.416,0.038 0.605,0.076 -0.491,1.021 -1.059,2.496 -1.626,4.424 l -1.059,0.076 c -0.075,-0.719 -0.264,-1.361 -0.605,-1.929 l -0.529,0.038 c -9.832,27.377 -14.218,40.121 -23.293,61.145 -1.664,5.37 -3.063,8.357 -4.273,9 0.038,0.605 0.416,0.907 1.059,0.832 0.226,2.647 -0.379,5.256 -1.853,7.827 -4.198,12.101 -6.996,18.718 -8.433,19.928 l 0.945,5.71 c 0.038,0.605 -0.264,0.945 -0.907,1.021 l -0.983,0.076 c -0.152,-1.589 -0.719,-2.345 -1.74,-2.231 l -0.529,0.038 c -1.286,2.004 -2.269,4.31 -2.912,6.995 l 0.983,-0.076 c 1.324,-0.869 1.929,-1.89 1.815,-3.063 l 1.967,-0.189 1.134,0.416 c -0.907,1.437 -1.323,2.572 -1.248,3.441 l 0.53,0.908 -1.286,3.025 0.038,0.492 c 1.134,-0.114 2.382,0.264 3.706,1.058 0.907,-0.075 1.89,-0.491 2.987,-1.21 1.134,-0.113 5.369,-0.151 12.668,-0.151 l 3.667,-1.248 c 4.463,-0.038 5.181,0.076 9.038,-0.264 l 1.588,-0.152 0.832,-0.567 0.038,0.492 c 4.046,-0.341 4.311,-0.076 7.487,0.302 l 0.038,0.492 -2.231,0.189 0.075,0.945 c 0.681,-0.075 1.286,-0.265 1.778,-0.68 0.567,-0.038 0.907,0.264 0.945,0.945 -0.907,0.076 -1.928,0.302 -3.063,0.681 l -0.983,-0.341 c -1.55,0.416 -1.21,0.53 -2.269,0.605 l -1.55,-0.302 c 0.038,0.264 -0.114,0.453 -0.378,0.453 0.037,0.606 0.378,0.908 0.945,0.87 l 1.588,-0.151 8.281,-0.719 3.139,-0.68 c 0.038,0.265 0.151,0.416 0.416,0.378 l 1.512,-0.567 2.837,-0.227 c 2.193,-0.189 2.155,-0.34 6.919,-1.097 -0.037,-0.302 0.076,-0.416 0.303,-0.453 l 0.038,0.415 c 7.752,-1.323 8.243,-1.399 9.491,-1.815 l 0.113,0.227 c 1.929,-0.453 0.832,-0.34 1.362,-0.718 0.038,0.34 0.151,0.491 0.34,0.491 l 1.361,-0.113 -0.075,-1.021 -2.761,-0.038 -0.037,-0.075 c -0.114,0.037 -0.19,0.037 -0.303,0.075 h -0.378 v 0.076 c -1.853,0.378 -1.891,0.113 -3.101,0.227 l -6.92,0.378 -0.038,-0.492 3.857,-0.529 1.399,-0.114 0.795,-0.567 0.037,0.492 c 5.446,-0.454 7.374,0.907 32.558,-4.462 1.361,-0.114 1.248,-1.248 2.118,-3.593 a 2.354,2.354 0 0 1 -1.324,-0.302 c -2.079,0.794 -3.176,0.416 -7.184,1.059 -0.341,0.038 -0.605,-0.265 -0.719,-0.87 l -0.038,-0.416 3.857,0.113 c 0.719,-0.075 2.118,-0.189 4.198,-1.361 0,0.341 -0.757,0.53 -0.303,0.492 z m -186.195,2.987 -1.778,0.151 c -0.075,-0.718 0.87,-3.441 2.836,-8.092 l 1.173,-0.113 c 0.038,1.096 -0.681,3.781 -2.231,8.054 z m 2.155,-8.621 -0.038,-0.492 c -0.038,-0.605 0.341,-1.021 1.173,-1.21 l 0.037,0.491 c 0.038,0.719 -0.34,1.135 -1.172,1.211 z m 23.634,18.264 0.038,0.491 -2.95,0.265 -0.038,-0.492 z m -3.555,-0.303 c 0.038,0.605 -0.869,1.286 -2.836,1.966 l -3.63,-0.264 -1.172,0.113 -0.113,-1.096 z m 23.899,-110 -1.778,0.151 -0.037,-0.605 c -0.038,-0.605 0.302,-1.021 1.058,-1.21 l 0.643,-0.038 1.21,0.491 c 0.038,0.719 -0.302,1.135 -1.096,1.211 z m 27.037,-5.294 0.567,-0.038 0.075,1.096 -1.626,0.152 c -0.037,-0.605 0.265,-1.021 0.984,-1.21 z m -6.807,2.382 -2.685,-0.303 -0.038,-0.491 c 3.517,-0.303 4.689,-0.681 6.845,-1.286 0.038,0.416 0.416,0.567 1.096,0.492 l 0.076,1.096 -1.059,0.114 c -0.832,0.075 -1.55,-0.038 -2.155,-0.378 -0.643,0.416 -1.324,0.68 -2.08,0.756 z m 3.366,9.794 -0.038,-0.492 4.348,-0.416 0.038,0.492 z m 4.651,-3.782 -0.038,-0.605 2.117,-0.189 0.038,0.605 z m 0.491,-7.411 -0.567,0.038 0.492,-1.173 4.84,-0.453 0.038,0.605 c -1.248,0.113 -2.874,0.453 -4.803,0.983 z m 2.458,10.436 -0.076,-1.096 2.118,-0.189 c 0.719,-0.076 1.097,0.264 1.135,1.021 z m 12.819,-17.47 -2.723,0.757 -0.491,0.037 c -1.286,0.114 -2.95,0.076 -4.916,-0.113 3.517,-0.227 6.882,-0.492 8.13,-0.681 z m -2.912,12.101 0.038,0.491 -3.743,0.341 -0.038,-0.492 z m 6.126,2.911 c -0.038,-0.453 -0.756,-0.756 -2.231,-0.907 l -3.743,1.059 -2.874,0.113 c -0.643,-0.454 -0.983,-0.756 -1.021,-0.983 l 3.328,0.189 7.487,-1.21 3.819,0.151 0.038,0.605 c -1.891,0.189 -3.479,0.53 -4.803,0.983 z M 448.889,12.1 c 0.453,0.038 0.756,0.038 0.869,0.038 1.324,-1.285 2.799,-2.306 4.5,-3.025 -1.361,5.975 -3.479,10.399 -6.39,13.273 L 445.75,21.1 c 1.777,-4.5 2.836,-7.487 3.139,-9 z m -6.504,11.156 0.529,-0.038 c -0.719,1.361 -1.361,2.079 -1.891,2.117 l -0.113,-1.437 c 0.34,0 0.832,-0.227 1.475,-0.642 z m -4.198,10.02 c 1.021,-4.084 2.004,-6.39 2.912,-6.995 l 0.038,0.491 c -0.53,3.782 -1.362,5.786 -2.458,5.937 l 0.189,2.382 c -0.908,1.286 -1.324,2.269 -1.286,3.025 l -0.529,0.038 -0.303,-3.29 c 0.605,-0.075 1.097,-0.605 1.437,-1.588 z m -1.626,5.445 c 0.038,0.568 -0.34,1.891 -1.096,3.933 l -0.53,0.038 -0.113,-1.437 c 0.718,-1.664 1.323,-2.496 1.739,-2.534 z m -30.515,88.56 -0.038,-0.415 0.983,-0.076 0.113,1.437 c -0.529,0.038 -0.907,-0.265 -1.058,-0.946 z m 43.599,1.135 c -0.038,-0.34 -0.189,-0.492 -0.529,-0.454 l -2.458,0.227 -0.038,-0.492 h 0.227 l 5.823,-0.491 0.038,0.491 c -1.702,0.076 -2.723,0.341 -3.063,0.719 z m -2.912,-1.21 c 0.227,0.113 0.114,0.227 0,0.302 -0.113,-0.037 -0.264,-0.151 0,-0.302 z m 0.303,-6.807 -3.252,0.265 -0.038,-0.492 2.949,-0.264 2.572,-0.643 c 0.038,0.302 0.189,0.416 0.529,0.378 3.063,-0.529 2.761,-0.68 4.235,-0.794 0.492,-0.038 0.795,0.265 0.832,0.87 z m 11.382,-0.983 c -1.815,-0.189 -1.929,-0.34 -3.214,-0.227 l -0.038,-0.416 2.911,-0.264 0.038,0.416 c -0.302,0.038 0.794,0.113 0.303,0.491 z m 0.227,-0.529 -0.038,-0.416 1.588,-0.151 0.038,0.416 z m 3.516,-0.303 -0.037,-0.416 c 0.264,-0.037 0.642,-0.226 1.134,-0.605 0.794,-0.075 1.21,0.454 1.286,1.059 z m 4.5,-0.567 -0.038,-0.491 1.929,-0.152 0.038,0.492 z m 2.685,-0.227 c -0.038,-0.567 0.189,-0.907 0.681,-0.983 l 0.642,0.832 c -0.037,-0.265 0.076,-0.416 0.303,-0.454 l 0.492,0.908 z m -28.549,12.328 -0.076,-0.946 -0.303,0.038 0.076,0.945 z m 66.439,-17.206 c 0.302,-0.189 0.453,-0.378 -0.265,-0.491 -0.341,0.378 0.378,0.491 -0.378,0.529 l 0.037,0.34 c 0.076,-0.075 0.265,-0.189 0.416,-0.302 l -0.416,0.34 v 0.038 l -0.794,1.021 1.588,-0.567 h 0.19 l -0.076,-0.946 z m 2.76,2.156 -0.303,0.038 0.076,0.945 2.231,-0.189 c -0.038,-0.605 -1.513,-0.794 -2.004,-0.794 z m -3.441,-1.664 0.038,-0.038 v -0.038 c 0,0 -0.038,0.038 -0.038,0.076 z"
         id="path2" />
      <path
         style="fill:#f9dc3e;stroke-width:2.48937392"
         inkscape:connector-curvature="0"
         d="m 361.387,43.41 0.038,0.605 1.248,-0.113 c -0.038,-0.378 0.113,-0.983 0.378,-1.74 l -0.113,-1.096 c -0.53,0.038 -1.059,0.832 -1.551,2.344 z m -11.949,-28.738 -0.113,-1.097 -1.778,0.151 0.114,1.097 z m -34.675,64.926 c -0.076,-1.021 -3.252,-4.991 -9.529,-11.987 -0.114,-1.285 2.042,-3.214 6.466,-5.747 L 324.33,50.86 c 2.836,-3.593 4.499,-9.416 4.991,-17.508 l -0.151,-1.853 c -0.492,-5.597 -4.538,-10.096 -12.214,-13.537 -4.538,-3.063 -12.706,-4.765 -24.503,-5.068 -9.756,0.832 -22.5,4.311 -38.192,10.475 -4.311,3.101 -9.227,6.201 -14.748,9.302 l 0.076,0.946 c 0.34,-0.038 0.869,-0.227 1.475,-0.643 0.642,-0.076 1.021,0.227 1.058,0.832 l 0.946,-0.492 0.453,-0.038 0.038,0.416 c 0.038,0.492 -3.365,3.176 -10.247,7.979 l 0.529,0.983 -0.454,0.038 -1.134,-0.416 c 0.038,0.34 -0.454,0.567 -1.399,0.643 l 0.038,0.416 1.096,1.361 c -0.34,0.038 -0.869,-0.113 -1.588,-0.378 -1.588,0.151 -3.139,0.983 -4.689,2.571 l 0.643,-2.798 c 2.307,-9.945 3.895,-18.756 4.727,-26.394 l -0.114,-0.492 c -1.588,-1.021 -3.138,-2.458 -4.575,-4.273 0.038,-1.172 0.038,-1.853 0,-2.004 l -0.114,-0.416 -0.453,0.114 c -4.992,7.487 -14.597,20.268 -28.852,38.343 -10.853,12.857 -16.45,20.003 -16.79,21.44 -4.424,4.576 -6.542,7.336 -6.315,8.282 -1.172,0.756 -1.664,1.512 -1.474,2.344 -0.341,0.076 -0.568,-0.038 -0.643,-0.378 -1.891,3.063 -4.689,5.029 -8.433,5.899 l -3.933,0.907 c -0.529,0.114 -0.794,0.492 -0.756,1.135 l 0.114,0.491 1.474,-0.34 0.114,0.416 -3.328,1.286 -5.899,1.361 -3.1,0.189 c -0.454,0.454 2.457,-0.038 1.323,0.227 l -3.857,0.908 c -2.344,0.529 -3.63,0.34 -3.857,-0.605 l -0.454,0.113 c 0.076,0.416 0.114,0.718 0.038,0.983 l -0.227,-0.945 -3.101,0.718 c -0.226,-1.437 -4.424,-6.655 -12.554,-15.655 -0.151,-1.739 2.723,-4.273 8.584,-7.562 l 16.562,-14.559 c 3.706,-4.764 5.899,-12.403 6.618,-22.915 l -0.227,-2.458 C 156.209,22.84 150.84,16.865 140.743,12.252 134.769,8.206 124.03,6.05 108.526,5.71 95.669,6.806 78.88,11.382 58.233,19.361 52.561,23.482 46.095,27.566 38.835,31.612 l 0.113,1.286 c 0.492,-0.038 1.135,-0.302 1.929,-0.756 0.832,-0.076 1.286,0.302 1.361,1.059 l 1.286,-0.719 0.643,-0.038 0.037,0.605 c 0.038,0.605 -4.462,4.122 -13.575,10.55 l 0.719,1.135 -0.643,0.038 -1.399,-0.492 c 0.038,0.378 -0.605,0.643 -1.929,0.756 l 0.076,0.681 1.512,1.664 c -0.491,0.038 -1.172,-0.114 -2.041,-0.416 -2.95,0.264 -5.824,2.382 -8.66,6.39 l 0.719,1.135 c 2.458,-2.269 3.894,-3.403 4.31,-3.441 l 0.152,1.853 c -0.416,0.037 -1.059,0.302 -1.929,0.756 l 1.551,2.344 a 51.252,51.252 0 0 1 9.869,-8.281 c 1.777,0.454 2.723,1.021 2.76,1.626 l 1.362,-0.113 C 46.814,42.011 56.456,36.793 66.023,33.579 l 0.114,1.285 c -1.778,2.647 -2.988,4.009 -3.631,4.084 0.076,0.908 0.379,1.702 0.946,2.383 0.151,1.626 -4.198,12.592 -13.008,32.86 C 30.44,121.307 13.651,156.171 0,178.708 c 0.038,0.454 0.303,1.059 0.794,1.815 3.366,-0.794 5.483,-1.625 6.391,-2.42 l 0.718,-0.075 0.114,1.285 1.247,-0.113 1.286,-0.718 c 0.038,0.378 0.454,0.567 1.324,0.491 l 0.113,1.286 c 0.113,1.248 -0.605,3.138 -2.118,5.747 -1.361,1.551 -2.836,4.803 -4.386,9.757 l 0.038,0.604 1.248,-0.113 c 5.445,-6.088 9.567,-12.063 12.403,-17.886 15.882,-4.651 27.982,-9.227 36.377,-13.726 8.432,-0.719 14.86,-2.95 19.247,-6.618 l -0.076,-0.68 -3.176,0.945 -0.719,0.076 -0.075,-0.681 c 6.201,-0.945 10.474,-2.307 12.857,-4.197 12.062,-9.303 21.175,-15.882 27.339,-19.777 12.668,-9.302 20.911,-18.378 24.655,-27.188 0.68,-0.152 1.361,-0.303 2.117,-0.492 1.777,-0.075 2.761,-0.113 3.025,-0.189 -0.075,-0.34 0.076,-0.529 0.416,-0.605 2.836,-0.302 1.475,0.189 3.29,-0.227 l 4.765,-1.096 0.794,-0.19 -0.378,0.227 c 0.529,0.076 1.096,0.038 1.739,-0.113 l 0.34,1.399 -21.667,34.448 -4.802,6.013 -2.345,7.865 0.454,-0.113 2.344,-0.983 -0.756,3.063 0.227,0.907 0.643,0.794 c -0.303,0.076 -0.416,0.265 -0.341,0.605 l 0.114,0.492 0.983,-0.227 c 1.437,-1.248 2.042,-2.382 1.815,-3.403 1.55,0.264 2.571,0.378 3.101,0.227 l 0.113,0.491 c -0.945,0.227 -1.437,0.983 -1.512,2.269 l 0.113,0.491 0.53,-0.113 c 7.865,-8.584 27.15,-37.965 42.616,-57.893 -0.492,-2.155 7.563,-5.143 24.201,-9 l 0.529,-0.113 c 0.605,2.609 -0.68,8.924 -3.857,18.945 -2.042,6.05 -3.025,9.377 -2.874,9.907 -2.647,8.054 -3.895,12.403 -3.743,13.083 l -5.899,19.323 c -3.82,9.908 -6.731,20.306 -8.773,31.272 0.34,-0.075 0.87,-0.037 1.626,0.152 l 0.832,-0.719 c 0.075,0.341 0.302,0.454 0.643,0.378 l -0.341,-1.399 2.572,-0.075 c 0.756,-0.189 1.399,-1.135 1.928,-2.874 -0.113,-2.609 0.416,-4.008 1.588,-4.311 1.588,-6.201 2.572,-9.302 2.912,-9.416 1.475,-6.163 2.571,-9.68 3.29,-10.55 2.231,-8.016 3.857,-12.138 4.916,-12.403 l 0.227,0.983 -1.626,4.198 c -2.837,12.592 -5.71,22.537 -8.622,29.835 l 0.832,3.63 0.529,-0.113 c 7.034,-15.126 17.168,-45.075 30.365,-89.846 0.378,-3.933 2.269,-6.996 5.634,-9.151 l -0.756,-0.794 -0.114,-0.416 c 1.513,-0.341 2.572,-0.945 3.177,-1.777 -0.076,-0.341 -1.399,-0.832 -3.971,-1.513 l 6.58,-28.209 c 1.437,-1.286 2.269,-1.966 2.533,-1.966 l 0.114,1.436 c -0.34,0.038 -0.87,0.227 -1.475,0.643 l 1.248,1.778 c 2.269,-2.458 4.727,-4.576 7.411,-6.353 1.362,0.378 2.042,0.832 2.118,1.285 l 0.983,-0.075 c 7.487,-5.483 14.823,-9.416 22.046,-11.798 l 0.075,0.945 c -1.323,2.004 -2.231,3.025 -2.722,3.063 0.075,0.681 0.264,1.286 0.605,1.815 0.113,1.248 -3.139,9.567 -9.794,24.995 -15.201,35.734 -27.945,62.166 -38.306,79.334 0.038,0.34 0.265,0.794 0.681,1.399 2.534,-0.605 4.16,-1.248 4.803,-1.853 l 0.453,-0.038 0.076,0.945 1.059,-0.075 0.945,-0.492 c 0.038,0.265 0.378,0.378 1.021,0.341 l 0.076,1.021 c 0.075,0.907 -0.454,2.344 -1.626,4.31 -1.097,1.173 -2.231,3.631 -3.441,7.374 l 0.037,0.492 0.984,-0.076 c 4.121,-4.613 7.26,-9.151 9.415,-13.613 12.063,-3.554 21.252,-6.996 27.604,-10.399 6.467,-0.567 11.344,-2.231 14.672,-5.029 l -0.038,-0.492 -2.458,0.719 -0.529,0.038 -0.038,-0.492 c 4.689,-0.681 7.979,-1.739 9.756,-3.138 9.151,-7.034 16.071,-12.063 20.76,-15.013 14.596,-10.625 21.403,-20.835 20.571,-30.629 z m -2.496,0.643 0.34,3.819 c -0.453,0.946 -0.945,1.437 -1.399,1.475 l -0.567,-6.504 c 1.059,0.378 1.588,0.756 1.626,1.21 z M 25.94,49.461 l -0.642,0.037 -0.114,-1.172 2.609,-0.227 0.038,0.605 c -0.416,0.038 -1.059,0.265 -1.891,0.757 z m -12.743,127.47 c -1.512,-0.681 -2.874,-0.945 -4.046,-0.832 L 9,174.246 c -0.076,-0.718 0.34,-1.21 1.248,-1.399 0.831,-0.075 1.323,0.53 1.399,1.74 2.193,-2.685 3.403,-4.046 3.63,-4.084 l 1.399,0.567 c -0.454,3.781 -1.626,5.71 -3.479,5.861 z M 149.365,34.486 c -0.643,0.076 -1.929,-1.928 -3.781,-5.899 l -0.114,-1.172 c 1.21,-0.113 2.458,1.853 3.781,5.899 z m -1.815,-14.104 -0.53,1.248 -18.491,-7.715 c 12.328,0.416 18.681,2.572 19.021,6.467 z m -78.086,67.044 -2.609,0.227 -0.113,-1.173 2.609,-0.227 z m -2.118,-40.272 0.643,-0.038 0.152,1.853 c -0.605,0.038 -1.399,0.945 -2.383,2.685 l -0.113,-1.286 c 1.172,-1.399 1.777,-2.458 1.701,-3.214 z m -5.483,12.932 0.227,2.458 -0.642,0.038 -0.227,-2.458 z M 58.99,64.7 60.238,64.586 c -0.114,2.042 -0.681,3.139 -1.702,3.214 l -0.643,0.038 c 0.794,-1.361 1.172,-2.42 1.097,-3.138 z m -2.156,6.428 0.719,-0.076 0.037,0.605 -1.172,1.967 -1.248,0.113 -0.037,-0.605 c 1.248,-0.113 1.815,-0.756 1.701,-2.004 z m -2.117,5.786 -0.378,3.1 -0.643,0.038 -0.265,-3.063 z m -21.214,60.313 c -0.832,4.235 -1.739,6.39 -2.685,6.466 l -0.037,-0.605 c -0.227,-2.08 0.68,-4.046 2.722,-5.861 z m -3.895,8.432 0.038,0.605 c 0.076,0.832 -0.302,1.324 -1.134,1.361 l -0.038,-0.605 c -0.076,-0.718 0.302,-1.172 1.134,-1.361 z m -1.134,17.508 1.966,-0.189 0.076,0.681 c -0.492,0.037 -1.135,0.302 -1.929,0.756 l -1.248,0.113 c -0.075,-0.643 0.341,-1.134 1.135,-1.361 z m 55.964,-17.281 c -11.041,5.445 -17.545,9.151 -19.474,11.079 -11.949,4.16 -17.886,6.731 -17.772,7.752 -10.626,4.198 -17.622,7.298 -20.987,9.227 -0.794,0.075 -1.928,-0.227 -3.441,-0.908 -0.189,-2.155 0.794,-3.895 2.874,-5.294 1.853,-0.151 3.63,0.114 5.332,0.832 1.966,-1.021 5.407,-2.155 10.285,-3.365 l -0.113,-1.286 -3.933,0.34 c 0.491,-0.68 4.273,-2.457 11.382,-5.331 l 1.966,-0.189 0.038,0.605 c -3.365,0.302 -5.218,1.285 -5.634,3.063 0.075,0.794 0.529,1.134 1.361,1.058 2.534,-1.588 3.781,-2.533 3.744,-2.798 4.802,-0.907 18.075,-7.865 39.818,-20.835 l 0.113,1.172 c 0.038,0.567 -1.815,2.155 -5.559,4.878 z m -33.351,10.966 c 3.176,-0.265 5.899,-1.55 8.167,-3.781 0.908,-0.076 1.4,0.264 1.437,1.058 -1.55,0.152 -4.537,1.437 -8.886,3.933 l -0.643,0.038 z m 53.809,-41.331 -16.676,13.235 c -12.403,8.13 -19.058,12.214 -20.042,12.29 -19.738,10.852 -32.028,16.487 -36.792,16.903 l -0.719,0.075 c 0.605,-2.231 9.378,-20.192 26.394,-53.998 7.487,-0.643 19.285,-4.122 35.356,-10.474 l 3.933,-0.341 c 8.13,-0.718 14.218,0.87 18.226,4.651 l 0.227,2.458 c -2.987,8.66 -6.315,13.727 -9.907,15.201 z M 72.3,97.182 l 2.685,-0.227 0.038,0.605 -2.685,0.227 z m 37.701,-6.391 1.966,-0.189 c 1.815,0.87 2.76,1.626 2.836,2.307 l 0.038,0.605 c -1.74,0.151 -3.366,-0.757 -4.84,-2.723 z m 5.331,-30.364 c -1.739,2.079 -6.504,5.634 -14.293,10.625 -2.572,0.227 -12.139,3.933 -28.701,11.193 a 5.25,5.25 0 0 0 -2.647,-0.454 l -0.113,-1.172 c -0.189,-2.382 0.869,-5.369 3.214,-8.999 1.285,-6.807 2.685,-10.702 4.235,-11.647 L 90.829,28.928 c -0.151,-1.929 2.798,-3.404 8.848,-4.425 l 1.967,-0.189 0.151,1.778 c 5.937,-0.908 9.642,-1.437 11.079,-1.551 10.967,-0.945 16.676,1.286 17.13,6.618 l 1.248,-0.114 -0.265,-3.138 1.362,-0.114 c 3.214,1.777 4.953,3.933 5.18,6.466 0.151,1.74 -0.794,3.895 -2.798,6.467 -0.832,0.075 -1.324,-0.53 -1.399,-1.74 l -1.362,0.114 -0.302,3.781 c -5.559,8.319 -9.605,12.592 -12.1,12.819 -2.269,3.138 -3.668,4.689 -4.236,4.727 z m 8.471,21.743 c -1.135,-0.757 -2.042,-1.097 -2.723,-1.059 l -0.151,-1.853 1.248,-0.114 2.76,1.627 c 0.114,0.869 -0.265,1.323 -1.134,1.399 z m 8.773,10.398 c 1.21,0.492 1.928,1.021 2.079,1.513 l -0.605,0.151 0.038,0.038 c -0.113,0 -0.265,0.038 -0.378,0.076 l -0.908,0.718 z m 0.831,5.219 -0.113,-0.492 1.588,-0.378 0.114,0.492 z m 3.82,4.273 c 1.626,-0.265 2.42,-0.378 5.445,-1.059 l 0.113,0.491 -5.747,1.324 c 0.075,-0.265 0.151,-0.529 0.189,-0.756 z m 5.596,2.382 c -2.42,0.227 -1.891,-0.076 -5.748,0.794 l -0.113,-0.492 4.84,-1.55 2.307,-0.529 0.227,0.907 c -1.059,0.227 -0.303,0.227 -1.513,0.87 z m 5.105,-1.21 c -0.567,0.151 -1.021,-0.113 -1.286,-0.756 l 1.475,-0.341 c 0.643,-0.151 1.059,0.114 1.21,0.757 z m 13.84,-14.899 -0.114,-0.491 2.383,-0.568 0.227,0.908 z m 14.785,90.678 c 0.151,-0.681 0.189,-1.172 0.113,-1.513 l 0.53,-0.113 c 0.643,-0.151 1.021,0.076 1.172,0.681 l 0.114,0.491 z m 10.361,-86.783 -1.059,-0.189 c -1.701,0.681 -3.138,1.172 -4.311,1.437 l -0.983,0.227 c -0.567,0.151 -1.021,-0.076 -1.248,-0.681 l 6.92,-1.588 2.269,-1.059 0.757,0.87 c -1.097,0.227 -1.891,0.567 -2.345,0.983 z m 5.332,-1.702 -0.114,-0.491 c 0.341,-0.076 0.794,-0.34 1.286,-0.832 l 4.916,-1.135 0.113,0.492 c -2.609,0.643 -4.689,1.286 -6.201,1.966 z m 0.756,-9.945 c -0.34,0.076 -0.794,0.378 -1.361,0.832 -0.076,-0.34 -0.756,-0.34 -2.042,-0.038 -0.227,-0.945 3.403,-2.268 10.928,-4.008 l 1.059,-0.227 0.227,0.908 c -5.294,1.55 -8.244,2.42 -8.811,2.533 z m 13.235,-14.293 c -0.529,6.012 -2.647,9.415 -6.391,10.285 l -0.113,-0.491 -3.328,1.285 -1.474,0.341 c -0.757,0.189 -1.437,0.151 -2.042,-0.038 l -0.303,-1.324 c -0.113,-0.491 4.689,-7.147 14.445,-19.928 l 1.134,0.189 c 0.416,1.74 -0.226,4.954 -1.928,9.681 z m 23.407,-20.042 -0.454,0.038 -0.076,-0.945 1.967,-0.189 0.037,0.491 c -0.34,0.076 -0.831,0.265 -1.474,0.605 z m -9.643,96.842 c -1.134,-0.53 -2.155,-0.757 -3.025,-0.681 l -0.113,-1.437 c -0.038,-0.491 0.264,-0.832 0.907,-1.021 0.643,-0.075 1.021,0.378 1.097,1.361 1.626,-2.079 2.533,-3.138 2.722,-3.138 l 1.021,0.416 c -0.378,2.874 -1.247,4.386 -2.609,4.5 z M 323.384,34.94 c -0.491,0.038 -1.437,-1.475 -2.911,-4.538 l -0.076,-0.945 c 0.945,-0.076 1.929,1.399 2.912,4.424 z m -1.361,-10.815 -0.454,0.983 -13.991,-5.861 c 9.34,0.303 14.18,1.929 14.445,4.878 z m -59.33,50.936 -1.966,0.189 -0.076,-0.946 1.966,-0.189 z m -1.626,-30.592 0.529,-0.038 0.114,1.437 c -0.492,0.038 -1.097,0.719 -1.815,2.042 l -0.076,-0.945 c 0.87,-1.097 1.286,-1.929 1.248,-2.496 z m -4.122,9.832 0.152,1.853 -0.53,0.038 -0.151,-1.853 z m -2.231,3.516 0.983,-0.075 c -0.113,1.588 -0.529,2.42 -1.247,2.495 l -0.53,0.038 c 0.567,-1.058 0.832,-1.89 0.794,-2.458 z m -1.588,4.841 0.454,-0.038 0.038,0.491 -0.87,1.513 -0.983,0.076 -0.038,-0.492 c 1.021,-0.076 1.475,-0.605 1.399,-1.55 z m -1.588,4.386 -0.34,2.42 -0.454,0.038 -0.189,-2.382 z m -16.147,45.868 c -0.642,3.177 -1.323,4.803 -2.042,4.878 l -0.037,-0.416 c -0.114,-1.588 0.567,-3.101 2.079,-4.462 z m -2.987,6.391 0.038,0.416 c 0.076,0.68 -0.227,1.058 -0.908,1.096 l -0.037,-0.491 c -0.038,-0.492 0.264,-0.832 0.907,-1.021 z m -0.832,13.31 1.513,-0.113 0.037,0.491 c -0.34,0.038 -0.869,0.227 -1.474,0.568 l -0.983,0.075 c -0.038,-0.529 0.264,-0.869 0.907,-1.021 z m 42.465,-13.121 c -8.319,4.122 -13.273,6.92 -14.823,8.357 -9.075,3.176 -13.575,5.142 -13.499,5.936 -8.055,3.215 -13.349,5.521 -15.844,6.996 -0.605,0.038 -1.475,-0.189 -2.61,-0.718 -0.151,-1.626 0.605,-2.95 2.194,-3.933 1.437,-0.113 2.798,0.076 4.046,0.605 1.512,-0.756 4.121,-1.588 7.827,-2.534 l -0.075,-0.945 -3.063,0.265 c 0.378,-0.53 3.289,-1.891 8.697,-4.084 l 1.512,-0.114 0.038,0.416 c -2.571,0.227 -4.008,0.984 -4.311,2.345 0.038,0.605 0.416,0.907 1.059,0.832 1.891,-1.248 2.798,-1.967 2.798,-2.193 3.631,-0.643 13.689,-5.937 30.214,-15.844 l 0.075,0.945 c 0,0.378 -1.399,1.588 -4.235,3.668 z m -25.335,8.319 c 2.458,-0.227 4.538,-1.172 6.277,-2.836 0.643,-0.038 1.021,0.227 1.059,0.832 -1.135,0.113 -3.366,1.059 -6.731,2.874 l -0.529,0.037 z m 40.915,-31.423 -12.592,10.134 c -9.416,6.163 -14.521,9.264 -15.315,9.34 -14.974,8.243 -24.277,12.516 -27.945,12.819 l -0.529,0.037 c 0.454,-1.701 7.147,-15.352 20.079,-40.99 5.634,-0.491 14.559,-3.176 26.81,-8.016 l 3.063,-0.265 c 6.164,-0.529 10.777,0.681 13.802,3.592 l 0.152,1.853 c -2.307,6.504 -4.803,10.323 -7.525,11.496 z m -24.731,-13.916 1.967,-0.189 0.037,0.492 -1.966,0.189 z m 28.625,-4.878 1.513,-0.113 c 1.399,0.68 2.118,1.285 2.155,1.777 l 0.038,0.416 c -1.323,0.113 -2.571,-0.567 -3.706,-2.08 z m 3.971,-23.029 c -1.324,1.589 -4.916,4.311 -10.777,8.093 -1.966,0.189 -9.227,2.987 -21.781,8.432 -0.605,-0.227 -1.286,-0.302 -2.004,-0.265 l -0.076,-0.945 c -0.151,-1.815 0.643,-4.084 2.383,-6.844 0.983,-5.219 2.079,-8.13 3.214,-8.811 l 10.55,-23.596 c -0.114,-1.399 2.117,-2.533 6.655,-3.403 l 1.513,-0.113 0.113,1.436 c 4.462,-0.718 7.26,-1.134 8.395,-1.247 8.319,-0.719 12.667,0.945 13.008,5.029 l 0.983,-0.076 -0.189,-2.269 0.983,-0.075 c 2.42,1.323 3.706,2.911 3.857,4.802 0.113,1.361 -0.567,3.025 -2.004,4.954 -0.643,0.075 -1.021,-0.378 -1.097,-1.362 l -0.983,0.076 -0.302,2.836 c -4.198,6.391 -7.261,9.68 -9.189,9.832 -1.702,2.306 -2.761,3.479 -3.252,3.516 z m 4.424,15.731 -0.113,-1.437 0.983,-0.075 2.117,1.285 c 0.038,0.605 -0.264,0.946 -0.907,1.021 -0.908,-0.567 -1.588,-0.832 -2.08,-0.794 z m -176.024,91.85 -0.983,0.227 -0.832,0.718 c 0.152,0.605 0.53,0.832 1.173,0.681 0.642,-0.151 0.907,-0.529 0.756,-1.134 z m -3.743,-7.449 0.113,0.491 c 0.643,-0.151 0.908,-0.529 0.757,-1.134 l -0.114,-0.492 c -0.605,0.151 -0.87,0.53 -0.756,1.135 z m 26.772,-50.293 0.719,-0.454 c -0.152,0 -0.265,-0.038 -0.379,-0.075 -0.264,0.075 -0.378,0.264 -0.34,0.529 z m -0.151,-13.046 1.134,-0.264 -0.227,-0.984 -1.134,0.265 z m 267.231,38.192 -2.572,-0.302 -0.454,0.983 0.038,0.492 15.315,-1.286 -0.076,-0.945 z m 13.991,-1.172 0.075,0.945 h 0.151 l -0.075,-0.945 z m 64.245,-8.395 0.076,0.946 1.664,0.302 -0.076,-0.945 z m -2.344,0.189 c -11.495,2.572 -12.932,2.118 -15.352,2.307 l 0.075,0.945 1.059,-0.075 0.567,-0.038 -0.151,-0.113 1.248,-0.492 c 11.382,-1.248 12.705,-0.794 12.592,-2.08 z m -69.01,-16.713 -1.021,-0.34 c -0.832,2.23 -1.248,3.554 -1.21,3.932 l 0.037,0.416 c 0.795,-0.038 1.513,-1.399 2.194,-4.008 z m -13.84,-7.449 -0.038,-0.492 -0.529,0.038 -0.946,0.605 0.53,0.907 c 0.718,-0.075 1.058,-0.416 0.983,-1.058 z m 30.062,31.082 -0.076,-0.945 -0.302,0.038 0.075,0.945 z m 62.393,-14.066 0.718,-0.076 c 0.416,-0.038 0.605,-0.378 0.567,-0.983 l -0.416,-0.908 c -2.609,0.227 -3.819,0.341 -5.936,1.513 l -0.038,-0.492 -3.139,0.303 c -0.075,-0.946 -0.34,-1.437 -0.756,-1.399 l -1.626,0.151 c -1.891,0.151 -2.798,0.076 -3.744,0.794 -0.037,-0.34 -0.151,-0.492 -0.34,-0.492 l -1.815,0.152 -1.059,0.605 c -0.038,-0.341 -0.151,-0.492 -0.34,-0.492 l -0.643,0.567 -0.038,-0.491 -2.533,-0.189 -0.605,0.038 0.075,0.945 1.286,0.34 1.21,-0.075 c 0.416,0.264 0.87,0.34 1.399,0.302 l 1.059,-0.529 0.038,0.416 c -5.937,1.474 -5.899,1.21 -9.983,1.89 -0.454,-0.302 -0.794,-0.453 -1.021,-0.416 l -0.076,0.076 c -0.453,-0.038 -0.718,-0.34 -0.756,-0.832 l 2.118,-0.265 c 0.151,0 0.264,0.152 1.436,0.379 1.702,-0.832 1.778,-1.173 2.685,-1.248 l -0.075,-0.946 c -5.824,1.135 -3.479,0.378 -10.777,1.021 l -0.341,0.038 -0.075,-0.945 c 9.378,-1.135 6.239,-0.492 9.453,-1.399 0.038,0.34 0.152,0.491 0.341,0.491 a 2.206,2.206 0 0 1 1.285,-0.643 l 0.643,-0.037 c 3.29,-0.265 4.387,0.378 10.891,-1.437 l 0.037,0.416 1.059,-0.53 0.983,-0.075 c -0.075,-0.946 1.362,-1.097 1.853,-1.135 l -0.075,-1.021 c -11.42,2.307 -14.408,1.664 -17.584,2.572 l -0.038,-0.416 c -2.987,0.529 -3.1,0.302 -3.857,0.34 -0.227,0.038 -0.567,0.227 -0.945,0.605 -0.038,-0.34 -0.151,-0.492 -0.378,-0.492 -0.114,0 -0.151,0.038 -0.189,0.038 l -9.681,1.588 c -0.037,-0.264 -0.151,-0.416 -0.378,-0.378 -5.029,1.059 -3.668,1.248 -10.399,1.853 -0.302,0.038 -0.718,0.189 -1.247,0.529 -0.038,-0.264 -0.19,-0.415 -0.53,-0.378 l -4.122,0.341 -2.76,0.68 c -0.038,-0.264 -0.189,-0.416 -0.529,-0.378 -1.551,0.416 -2.912,0.681 -4.009,0.756 h -0.075 c -0.681,0.076 0.34,-0.189 -0.189,-0.415 l -0.832,0.491 c -1.21,0.114 -0.567,-0.076 -4.727,-0.038 -7.298,0.908 -6.504,1.021 -7.298,1.059 l -2.723,-0.189 c 0.038,0.265 -0.113,0.454 -0.416,0.454 -3.1,-0.416 -4.688,-0.908 -4.726,-1.475 0.416,-2.949 1.134,-4.462 2.155,-4.538 l 0.53,-0.037 -0.454,0.983 0.529,-0.038 c 0.983,-0.53 1.437,-1.021 1.399,-1.475 l -0.075,-1.021 -0.984,0.076 -0.075,-0.946 c -0.076,-0.718 0.038,-1.361 0.302,-1.89 l 2.231,-3.593 0.076,0.946 1.059,-0.076 -0.076,-0.945 -0.605,-0.87 c 0.794,-0.681 1.399,-1.059 1.891,-1.097 l -0.038,-0.491 -1.437,0.113 -0.113,-1.437 c 2.874,-5.974 4.235,-9.453 4.159,-10.436 l 1.021,0.416 c 0.643,-0.038 0.945,-0.416 0.908,-1.097 l -0.984,0.076 -0.037,-0.416 a 3.595,3.595 0 0 1 0.378,-2.004 c 1.55,-1.626 2.269,-3.252 2.117,-4.954 0.303,-0.038 0.454,0.114 0.492,0.454 1.324,-0.756 2.345,-2.761 3.101,-6.088 2.344,-4.235 5.672,-12.706 10.02,-25.373 8.32,-22.386 7.979,-24.768 9.151,-30.062 l -0.983,0.075 c 0.076,0.681 -0.075,1.324 -0.378,1.929 -0.681,-0.265 -1.21,-0.416 -1.588,-0.378 l -0.038,-0.416 c -0.151,-1.929 0.643,-4.235 2.458,-6.958 l 0.454,-0.038 0.832,3.252 0.983,-0.075 c -0.038,-0.227 0.227,-1.513 0.756,-3.895 -0.038,-0.492 -0.416,-0.794 -1.172,-0.832 l -0.945,0.605 c -0.076,-0.681 -0.038,-2.458 0.075,-5.294 l -0.492,0.038 c -0.831,-0.832 -1.247,-1.513 -1.285,-2.08 l -5.408,0.529 c -0.037,-0.378 -0.226,-0.945 -0.605,-1.664 -0.037,-0.491 1.173,-0.983 3.668,-1.474 l 1.097,0.416 1.021,-0.605 c 0.038,0.34 0.227,0.491 0.605,0.453 l 1.021,-0.605 c 0.038,0.341 0.227,0.492 0.605,0.454 l 0.492,-0.038 -0.076,-1.096 C 453.767,0.113 451.763,0.113 448.586,0 l -1.021,0.681 -0.038,-0.605 c -25.373,2.079 -39.78,3.252 -43.221,3.592 -0.454,0.038 -2.231,0 -5.369,-0.076 0.037,0.416 -0.341,0.643 -1.097,0.719 l -1.097,-0.492 -3.705,0.946 c -0.87,0.075 -2.345,0.037 -4.387,-0.19 -0.567,0.454 -1.248,0.719 -2.08,0.795 -0.453,0.037 5.408,-0.303 10.853,-0.681 -0.567,0.454 -1.437,0.718 -2.647,0.832 -0.832,0.075 -1.55,-0.038 -2.155,-0.378 -0.832,0.378 -3.517,0.983 -8.017,1.89 L 383.509,6.617 365.812,9.34 C 365.131,9 364.337,8.886 363.429,8.962 c -0.945,0.075 -2.533,0.416 -4.726,1.021 l -8.546,3.554 0.642,1.059 c 0.416,-0.038 1.021,-0.265 1.74,-0.681 l 3.025,0.265 -0.378,2.836 c -2.798,1.248 -4.424,3.101 -4.878,5.445 -4.197,1.853 -6.277,3.177 -6.277,3.971 l 0.038,0.491 0.642,-0.037 1.135,-0.605 1.323,1.588 0.189,2.193 c 0.076,0.681 -6.995,15.541 -21.138,44.583 -12.251,27.982 -18.68,43.297 -19.285,46.057 -4.197,1.172 -6.617,2.874 -7.336,5.143 0.076,0.718 1.324,1.21 3.744,1.399 l 0.113,1.096 -1.096,1.815 0.189,2.194 c 0.113,1.134 3.176,2.004 9.189,2.609 -0.038,-0.378 0.151,-0.605 0.567,-0.643 0.113,1.361 -0.265,4.008 -1.135,7.941 l 0.643,-0.038 c 2.496,-3.403 3.668,-5.748 3.555,-7.033 l 0.529,-0.038 c 0.605,-0.038 1.248,0.643 2.004,2.117 -0.756,0.303 -3.403,6.315 -7.941,18.075 l 0.643,1.059 0.643,-0.038 c 5.559,-14.066 9.038,-21.856 10.474,-23.331 7.299,-0.643 19.928,-1.928 37.852,-3.857 l 1.135,-0.681 c 0.037,0.379 0.264,0.568 0.68,0.53 l 1.173,-0.114 1.134,-0.68 c 0.038,0.378 0.265,0.567 0.681,0.529 l 13.575,-1.172 c 3.592,-0.303 5.294,-1.399 5.142,-3.252 -0.037,-0.492 2.08,-1.059 6.353,-1.664 0.416,-0.038 1.021,0.076 1.853,0.34 -0.038,-0.34 2.118,-0.68 6.429,-1.058 0.113,-2.269 0.831,-3.479 2.117,-3.593 l -0.113,-1.096 c -1.21,0.113 -2.572,0.416 -4.16,0.945 -2.836,-0.151 -4.651,-0.378 -5.407,-0.643 -0.757,0.416 -1.324,0.643 -1.74,0.681 l -9.453,0.302 -1.135,0.605 c -0.038,-0.34 -0.264,-0.491 -0.68,-0.453 l -0.53,0.037 -1.21,0.606 c -0.038,-0.341 -1.021,-0.606 -2.987,-0.87 l -1.21,0.718 -2.344,0.189 -0.038,-0.605 c 12.176,-1.323 18.188,-2.987 18.037,-4.953 0.794,-0.076 1.21,0.302 1.285,1.096 l 3.555,-0.907 -0.113,-1.097 -29.155,0.794 c 0.038,0.378 -0.151,0.605 -0.567,0.643 l -3.555,-0.302 c -0.907,0.075 -1.663,0.34 -2.268,0.794 l -1.324,-0.492 c -3.668,0.303 -6.391,0.756 -8.206,1.324 -2.495,-0.189 -5.256,-0.152 -8.319,0.113 l -6.541,0.567 -3.025,-0.34 c -0.152,-1.929 3.592,-11.42 11.306,-28.436 2.231,-5.748 4.273,-9.34 6.239,-10.701 0.416,-0.038 1.021,0.113 1.853,0.453 l 4.651,-1.588 2.382,0.378 c 4.009,-0.34 8.66,-1.474 13.992,-3.441 1.323,-0.113 2.306,-0.037 3.025,0.265 l 3.554,-0.832 10.588,-0.908 c 4.5,-0.378 9.378,-1.361 14.672,-2.987 l -0.114,-1.096 c -1.966,0.189 -2.987,-0.152 -3.062,-0.946 -0.114,-1.474 -1.551,-2.08 -4.311,-1.853 l -0.114,-1.096 2.912,-0.832 7.638,-0.643 -0.113,-1.096 c -0.303,0.037 -1.853,0 -4.727,-0.114 l -0.113,-1.172 2.949,-0.265 c 0.794,-0.075 1.135,-0.454 1.059,-1.21 -3.97,0.113 -5.975,-0.076 -6.012,-0.605 -27.68,1.361 -41.558,1.626 -41.633,0.756 -0.416,0.038 -0.984,0.303 -1.74,0.757 l -0.718,-1.135 c 7.335,-15.579 11.646,-23.445 12.894,-23.558 0.038,0.605 -0.265,1.588 -0.908,2.912 l 0.038,0.491 1.173,-0.113 c 2.911,-6.958 5.369,-10.55 7.411,-10.701 8.697,-0.757 -1.21,-1.324 17.395,-4.236 0.756,0.341 1.285,0.492 1.663,0.454 7.298,-1.475 17.47,-3.025 30.516,-4.613 l -0.076,-1.097 -6.957,0.643 -0.076,-1.097 c 0.832,-0.075 1.513,-0.34 2.08,-0.794 l 0.038,0.605 c 0.378,-0.037 0.907,-0.302 1.588,-0.756 1.21,-0.113 2.117,0 2.76,0.34 2.42,-0.642 4.387,-1.021 5.824,-1.172 l 4.348,-0.416 c 1.059,-0.68 1.551,-1.285 1.513,-1.853 l -0.038,-0.491 c -1.097,0.113 -2.344,0.038 -3.819,-0.227 -0.038,-0.605 0.264,-1.021 0.983,-1.21 l 8.092,-0.756 3.706,-0.946 c 0.038,0.416 0.227,0.567 0.529,0.567 0.378,-0.037 0.908,-0.302 1.588,-0.756 0.19,0.038 0.416,0.038 0.605,0.076 -0.491,1.021 -1.058,2.496 -1.626,4.424 l -1.058,0.076 c -0.076,-0.719 -0.265,-1.362 -0.605,-1.929 l -0.53,0.038 c -9.831,27.377 -14.218,40.121 -23.293,61.145 -1.664,5.37 -3.063,8.357 -4.273,9 0.038,0.605 0.416,0.907 1.059,0.832 0.227,2.647 -0.378,5.256 -1.853,7.827 -4.198,12.101 -6.996,18.718 -8.433,19.928 l 0.946,5.71 c 0.037,0.605 -0.265,0.945 -0.908,1.021 l -0.983,0.076 c -0.151,-1.589 -0.719,-2.345 -1.739,-2.231 l -0.53,0.037 c -1.286,2.004 -2.269,4.311 -2.911,6.996 l 0.983,-0.076 c 1.323,-0.869 1.928,-1.89 1.815,-3.063 l 1.966,-0.189 1.134,0.416 c -0.907,1.437 -1.323,2.572 -1.247,3.441 l 0.529,0.908 -1.286,3.025 0.038,0.492 c 1.135,-0.114 2.382,0.264 3.706,1.058 0.907,-0.075 1.891,-0.491 2.987,-1.21 1.135,-0.113 5.37,-0.151 12.668,-0.151 l 3.668,-1.248 c 4.462,-0.038 5.18,0.076 9.037,-0.265 l 1.588,-0.151 0.832,-0.567 0.038,0.492 c 4.046,-0.341 4.311,-0.076 7.487,0.302 l 0.038,0.492 -2.231,0.189 0.076,0.945 c 0.68,-0.076 1.285,-0.265 1.777,-0.681 0.567,-0.037 0.907,0.265 0.945,0.946 -0.907,0.075 -1.928,0.302 -3.063,0.68 l -0.983,-0.34 c -1.55,0.416 -1.21,0.529 -2.269,0.605 l -1.55,-0.302 c 0.038,0.264 -0.113,0.453 -0.378,0.453 0.038,0.605 0.378,0.908 0.945,0.87 l 1.588,-0.151 8.282,-0.719 3.138,-0.68 c 0.038,0.264 0.151,0.416 0.416,0.378 l 1.513,-0.567 2.836,-0.227 c 2.193,-0.189 2.155,-0.341 6.92,-1.097 -0.038,-0.302 0.075,-0.416 0.302,-0.454 l 0.038,0.416 c 7.752,-1.323 8.243,-1.399 9.491,-1.815 l 0.114,0.227 c 1.928,-0.454 0.832,-0.34 1.361,-0.718 0.038,0.34 0.151,0.491 0.34,0.491 l 1.362,-0.113 -0.076,-1.021 -2.76,-0.038 -0.038,-0.076 c -0.114,0.038 -0.189,0.038 -0.303,0.076 h -0.378 v 0.076 c -1.853,0.378 -1.891,0.113 -3.101,0.227 l -6.92,0.378 -0.037,-0.492 3.857,-0.529 1.399,-0.114 0.794,-0.567 0.038,0.492 c 5.445,-0.454 7.373,0.907 32.557,-4.462 1.362,-0.114 1.248,-1.248 2.118,-3.593 a 2.349,2.349 0 0 1 -1.323,-0.302 c -2.08,0.794 -3.177,0.416 -7.185,1.059 -0.34,0.038 -0.605,-0.265 -0.719,-0.87 l -0.038,-0.416 3.857,0.113 c 0.719,-0.075 2.118,-0.189 4.198,-1.361 0,0.34 -0.794,0.529 -0.341,0.492 z m -186.196,2.987 -1.777,0.151 c -0.076,-0.718 0.87,-3.441 2.836,-8.092 l 1.172,-0.113 c 0.038,1.096 -0.681,3.781 -2.231,8.054 z m 2.156,-8.622 -0.038,-0.491 c -0.038,-0.605 0.34,-1.021 1.172,-1.21 l 0.038,0.491 c 0.038,0.719 -0.341,1.135 -1.172,1.21 z m 23.633,18.264 0.038,0.492 -2.949,0.265 -0.038,-0.492 z m -3.554,-0.302 c 0.038,0.605 -0.87,1.286 -2.836,1.966 l -3.631,-0.264 -1.172,0.113 -0.113,-1.097 z m 23.898,-110.001 -1.777,0.152 -0.038,-0.605 c -0.038,-0.605 0.303,-1.021 1.059,-1.21 l 0.643,-0.038 1.21,0.491 c 0.037,0.719 -0.303,1.135 -1.097,1.21 z m 27.037,-5.294 0.567,-0.037 0.076,1.096 -1.626,0.151 c -0.038,-0.605 0.264,-1.02 0.983,-1.21 z m -6.807,2.383 -2.684,-0.303 -0.038,-0.491 c 3.517,-0.303 4.689,-0.681 6.844,-1.286 0.038,0.416 0.416,0.567 1.097,0.492 l 0.075,1.096 -1.058,0.114 c -0.832,0.075 -1.551,-0.038 -2.156,-0.379 -0.643,0.416 -1.323,0.681 -2.08,0.757 z m 3.366,9.794 -0.038,-0.492 4.349,-0.416 0.038,0.492 z m 4.651,-3.782 -0.038,-0.605 2.118,-0.189 0.038,0.605 z m 0.492,-7.411 -0.568,0.037 0.492,-1.172 4.84,-0.454 0.038,0.605 c -1.248,0.114 -2.874,0.454 -4.802,0.984 z m 2.458,10.436 -0.076,-1.096 2.118,-0.189 c 0.718,-0.076 1.096,0.264 1.134,1.021 z m 12.818,-17.47 -2.722,0.757 -0.492,0.037 c -1.285,0.114 -2.949,0.076 -4.916,-0.113 3.517,-0.227 6.883,-0.492 8.13,-0.681 z m -2.911,12.101 0.038,0.491 -3.744,0.341 -0.038,-0.492 z m 6.126,2.911 c -0.038,-0.453 -0.757,-0.756 -2.231,-0.907 l -3.744,1.059 -2.874,0.113 c -0.643,-0.454 -0.983,-0.756 -1.021,-0.983 l 3.328,0.189 7.487,-1.21 3.819,0.151 0.038,0.605 c -1.891,0.189 -3.479,0.53 -4.802,0.983 z m 38.532,-9.945 c 0.454,0.038 0.756,0.038 0.87,0.038 1.323,-1.286 2.798,-2.307 4.5,-3.025 -1.362,5.975 -3.479,10.399 -6.391,13.273 l -2.118,-1.286 c 1.778,-4.5 2.837,-7.487 3.139,-9 z m -6.504,11.155 0.529,-0.037 c -0.718,1.361 -1.361,2.079 -1.89,2.117 l -0.114,-1.437 c 0.341,0 0.832,-0.227 1.475,-0.643 z m -4.197,10.021 c 1.021,-4.084 2.004,-6.39 2.911,-6.995 l 0.038,0.491 c -0.529,3.781 -1.361,5.786 -2.458,5.937 l 0.189,2.382 c -0.907,1.286 -1.323,2.269 -1.286,3.025 l -0.529,0.038 -0.302,-3.29 c 0.605,-0.075 1.096,-0.605 1.437,-1.588 z m -1.626,5.445 c 0.037,0.567 -0.341,1.891 -1.097,3.933 l -0.529,0.038 -0.114,-1.437 c 0.719,-1.664 1.324,-2.496 1.739,-2.534 z m -30.516,88.56 -0.038,-0.416 0.983,-0.075 0.114,1.437 c -0.53,0.038 -0.908,-0.265 -1.059,-0.946 z m 43.599,1.135 c -0.038,-0.341 -0.189,-0.492 -0.529,-0.454 l -2.458,0.227 -0.038,-0.492 h 0.227 l 5.823,-0.491 0.038,0.491 c -1.701,0.076 -2.722,0.341 -3.063,0.719 z m -2.911,-1.21 c 0.227,0.113 0.113,0.227 0,0.302 -0.114,-0.038 -0.265,-0.151 0,-0.302 z m 0.302,-6.807 -3.252,0.265 -0.038,-0.492 2.95,-0.264 2.571,-0.643 c 0.038,0.302 0.189,0.416 0.53,0.378 3.063,-0.529 2.76,-0.681 4.235,-0.794 0.491,-0.038 0.794,0.265 0.832,0.87 z m 11.382,-0.983 c -1.815,-0.189 -1.928,-0.34 -3.214,-0.227 l -0.038,-0.416 2.912,-0.264 0.038,0.416 c -0.303,0.037 0.794,0.113 0.302,0.491 z m 0.227,-0.529 -0.038,-0.416 1.588,-0.152 0.038,0.416 z m 3.517,-0.303 -0.038,-0.416 c 0.265,-0.037 0.643,-0.227 1.134,-0.605 0.794,-0.075 1.21,0.454 1.286,1.059 z m 4.5,-0.567 -0.038,-0.492 1.928,-0.151 0.038,0.492 z m 2.684,-0.227 c -0.037,-0.567 0.189,-0.907 0.681,-0.983 l 0.643,0.832 c -0.038,-0.265 0.075,-0.416 0.302,-0.454 l 0.492,0.908 z m 37.209,-4.386 0.038,-0.038 v -0.038 c 0,0 -0.038,0.038 -0.038,0.076 z m 0.681,-0.492 c 0.302,-0.189 0.454,-0.378 -0.265,-0.491 -0.34,0.378 0.378,0.491 -0.378,0.529 l 0.038,0.34 c 0.075,-0.075 0.265,-0.189 0.416,-0.302 l -0.416,0.34 v 0.038 l -0.794,1.021 1.588,-0.567 h 0.189 l -0.076,-0.946 z m 2.76,2.156 -0.302,0.037 0.075,0.946 2.231,-0.189 c -0.037,-0.605 -1.512,-0.794 -2.004,-0.794 z"
         id="path4" />
    </g>
  </g>
</svg>
