<?xml version="1.0" encoding="UTF-8" standalone="no"?>
<svg
   xmlns:dc="http://purl.org/dc/elements/1.1/"
   xmlns:cc="http://creativecommons.org/ns#"
   xmlns:rdf="http://www.w3.org/1999/02/22-rdf-syntax-ns#"
   xmlns:svg="http://www.w3.org/2000/svg"
   xmlns="http://www.w3.org/2000/svg"
   xmlns:sodipodi="http://sodipodi.sourceforge.net/DTD/sodipodi-0.dtd"
   xmlns:inkscape="http://www.inkscape.org/namespaces/inkscape"
   height="1000"
   viewBox="0 0 204.8 204.751"
   width="1000"
   version="1.1"
   id="svg4"
   sodipodi:docname="bootstrap-5.svg"
   inkscape:version="0.92.4 (5da689c313, 2019-01-14)">
  <metadata
     id="metadata10">
    <rdf:RDF>
      <cc:Work
         rdf:about="">
        <dc:format>image/svg+xml</dc:format>
        <dc:type
           rdf:resource="http://purl.org/dc/dcmitype/StillImage" />
        <dc:title></dc:title>
      </cc:Work>
    </rdf:RDF>
  </metadata>
  <defs
     id="defs8" />
  <sodipodi:namedview
     pagecolor="#ffffff"
     bordercolor="#666666"
     borderopacity="1"
     objecttolerance="10"
     gridtolerance="10"
     guidetolerance="10"
     inkscape:pageopacity="0"
     inkscape:pageshadow="2"
     inkscape:window-width="1841"
     inkscape:window-height="1053"
     id="namedview6"
     showgrid="false"
     inkscape:pagecheckerboard="true"
     inkscape:zoom="0.33509478"
     inkscape:cx="1269.6519"
     inkscape:cy="542.49991"
     inkscape:window-x="-9"
     inkscape:window-y="-9"
     inkscape:window-maximized="1"
     inkscape:current-layer="svg4" />
  <g
     id="g821"
     transform="translate(641.91957,172.45548)">
    <rect
       y="-171.12459"
       x="-640.68555"
       height="203.77594"
       width="203.77594"
       id="rect817"
       style="opacity:1;fill:#ffffff;fill-opacity:1;stroke:#ffffff;stroke-width:1.02406454;stroke-linecap:round;stroke-linejoin:miter;stroke-miterlimit:4;stroke-dasharray:none;stroke-dashoffset:0;stroke-opacity:1;paint-order:normal" />
    <path
       style="fill:#7952b3;fill-rule:evenodd;stroke-width:0.99999994"
       inkscape:connector-curvature="0"
       id="path2"
       d="m -592.67371,-142.65214 c -10.51704,0 -18.29916,9.2052 -17.95068,19.188 0.33444,9.59076 -0.10008,22.0122 -3.22704,32.141877 -3.13812,10.15812 -8.44164,16.59528 -17.10612,17.42148 v 9.32832 c 8.66448,0.828 13.968,7.26192 17.10576,17.42148 3.12732,10.12968 3.56148,22.55112 3.22704,32.14188 -0.34848,9.9813599 7.43364,19.1879999 17.95248,19.1879999 h 107.76492 c 10.51704,0 18.29772,-9.2052 17.94924,-19.1879999 -0.33444,-9.59076 0.10008,-22.0122 3.22704,-32.14188 3.13812,-10.15956 8.42868,-16.596 17.09352,-17.42148 v -9.32832 c -8.66448,-0.828 -13.95504,-7.26192 -17.09352,-17.42148 -3.12732,-10.128237 -3.56148,-22.551117 -3.22704,-32.141877 0.34848,-9.98136 -7.4322,-19.188 -17.94924,-19.188 h -107.7678 z m 86.679,90.384117 c 0,13.74588 -10.25316,22.0824 -27.26856,22.0824 h -28.96488 a 3.12408,3.12408 0 0 1 -3.12408,-3.12408 v -71.853477 a 3.12408,3.12408 0 0 1 3.12408,-3.12408 h 28.8 c 14.18796,0 23.49936,7.68528 23.49936,19.484637 0,8.2818 -6.264,15.696 -14.24412,16.99488 v 0.432 c 10.86336,1.1916 18.1782,8.7156 18.1782,19.10772 z m -30.42684,-46.116 h -16.51536 v 23.328 h 13.91004 c 10.7532,0 16.6824,-4.33008 16.6824,-12.06972 -10e-4,-7.25328 -5.09868,-11.25828 -14.07708,-11.25828 z m -16.51536,32.58396 v 25.70796 h 17.12304 c 11.196,0 17.12628,-4.49244 17.12628,-12.93516 0,-8.44272 -6.0966,-12.77424 -17.84628,-12.77424 h -16.40304 z" />
  </g>
</svg>
