<?xml version="1.0" encoding="UTF-8" standalone="no"?>
<svg
   xmlns:dc="http://purl.org/dc/elements/1.1/"
   xmlns:cc="http://creativecommons.org/ns#"
   xmlns:rdf="http://www.w3.org/1999/02/22-rdf-syntax-ns#"
   xmlns:svg="http://www.w3.org/2000/svg"
   xmlns="http://www.w3.org/2000/svg"
   xmlns:sodipodi="http://sodipodi.sourceforge.net/DTD/sodipodi-0.dtd"
   xmlns:inkscape="http://www.inkscape.org/namespaces/inkscape"
   width="1000"
   height="1000"
   viewBox="0 0 102.4 102.4"
   preserveAspectRatio="xMinYMin meet"
   version="1.1"
   id="svg4"
   sodipodi:docname="git.svg"
   inkscape:version="0.92.4 (5da689c313, 2019-01-14)">
  <metadata
     id="metadata10">
    <rdf:RDF>
      <cc:Work
         rdf:about="">
        <dc:format>image/svg+xml</dc:format>
        <dc:type
           rdf:resource="http://purl.org/dc/dcmitype/StillImage" />
        <dc:title></dc:title>
      </cc:Work>
    </rdf:RDF>
  </metadata>
  <defs
     id="defs8" />
  <sodipodi:namedview
     pagecolor="#ffffff"
     bordercolor="#666666"
     borderopacity="1"
     objecttolerance="10"
     gridtolerance="10"
     guidetolerance="10"
     inkscape:pageopacity="0"
     inkscape:pageshadow="2"
     inkscape:window-width="1841"
     inkscape:window-height="1053"
     id="namedview6"
     showgrid="false"
     inkscape:pagecheckerboard="true"
     inkscape:zoom="0.26700352"
     inkscape:cx="1996.3856"
     inkscape:cy="887.17666"
     inkscape:window-x="-9"
     inkscape:window-y="-9"
     inkscape:window-maximized="1"
     inkscape:current-layer="svg4" />
  <g
     id="g821"
     transform="translate(14.776841,-25.851661)">
    <rect
       y="26.545935"
       x="-14.101695"
       height="101.88797"
       width="101.88797"
       id="rect817"
       style="opacity:1;fill:#ffffff;fill-opacity:1;stroke:#ffffff;stroke-width:0.51203227;stroke-linecap:round;stroke-linejoin:miter;stroke-miterlimit:4;stroke-dasharray:none;stroke-dashoffset:0;stroke-opacity:1;paint-order:normal" />
    <path
       style="fill:#de4c36;stroke-width:0.99999994"
       inkscape:connector-curvature="0"
       id="path2"
       d="m 80.659366,72.820196 -40.238,-40.23651 c -2.31588,-2.317363 -6.07429,-2.317363 -8.39305,0 l -8.35562,8.355755 10.5995,10.599677 c 2.46313,-0.832336 5.28769,-0.273966 7.25114,1.689511 1.9728,1.976077 2.5272,4.824809 1.67472,7.295895 l 10.21502,10.215552 c 2.4714,-0.85142 5.32298,-0.30061 7.29685,1.67654 2.75869,2.75766 2.75869,7.22714 0,9.98659 -2.7594,2.75982 -7.22881,2.75982 -9.98966,0 -2.07504,-2.07723 -2.58768,-5.12469 -1.5372,-7.6811 l -9.52634,-9.526495 -10e-4,25.069785 a 7.1352141,7.1353323 0 0 1 1.86769,1.33562 c 2.75869,2.75766 2.75869,7.2275 0,9.989114 -2.75941,2.75836 -7.23098,2.75836 -9.98642,0 -2.75869,-2.761614 -2.75869,-7.231094 0,-9.988754 a 7.0754541,7.0755713 0 0 1 2.31156,-1.54118 V 64.756762 a 6.9760938,6.9762094 0 0 1 -2.31156,-1.541188 c -2.09017,-2.087319 -2.59273,-5.154216 -1.52173,-7.720704 L 19.566616,45.044957 -8.0238439,72.634066 c -2.3184001,2.31953 -2.3184001,6.07836 0,8.39608 L 32.214886,121.26738 c 2.31659,2.31771 6.07429,2.31771 8.39376,0 l 40.05044,-40.050394 c 2.31769,-2.31844 2.31769,-6.07943 0,-8.39679" />
  </g>
</svg>
