<?xml version="1.0" encoding="UTF-8" standalone="no"?>
<svg
   xmlns:dc="http://purl.org/dc/elements/1.1/"
   xmlns:cc="http://creativecommons.org/ns#"
   xmlns:rdf="http://www.w3.org/1999/02/22-rdf-syntax-ns#"
   xmlns:svg="http://www.w3.org/2000/svg"
   xmlns="http://www.w3.org/2000/svg"
   xmlns:sodipodi="http://sodipodi.sourceforge.net/DTD/sodipodi-0.dtd"
   xmlns:inkscape="http://www.inkscape.org/namespaces/inkscape"
   width="1000"
   height="1000"
   viewBox="0 0 102.4 102.4"
   preserveAspectRatio="xMinYMin meet"
   version="1.1"
   id="svg6"
   sodipodi:docname="javascript.svg"
   inkscape:version="0.92.4 (5da689c313, 2019-01-14)">
  <metadata
     id="metadata12">
    <rdf:RDF>
      <cc:Work
         rdf:about="">
        <dc:format>image/svg+xml</dc:format>
        <dc:type
           rdf:resource="http://purl.org/dc/dcmitype/StillImage" />
        <dc:title></dc:title>
      </cc:Work>
    </rdf:RDF>
  </metadata>
  <defs
     id="defs10" />
  <sodipodi:namedview
     pagecolor="#ffffff"
     bordercolor="#666666"
     borderopacity="1"
     objecttolerance="10"
     gridtolerance="10"
     guidetolerance="10"
     inkscape:pageopacity="0"
     inkscape:pageshadow="2"
     inkscape:window-width="1841"
     inkscape:window-height="1053"
     id="namedview8"
     showgrid="false"
     inkscape:pagecheckerboard="true"
     inkscape:zoom="0.3776"
     inkscape:cx="1718.8077"
     inkscape:cy="459.49316"
     inkscape:window-x="-9"
     inkscape:window-y="-9"
     inkscape:window-maximized="1"
     inkscape:current-layer="svg6" />
  <g
     id="g832"
     transform="translate(24.545193,-19.525424)">
    <rect
       y="20.037449"
       x="-23.864407"
       height="101.88797"
       width="101.88797"
       id="rect826"
       style="opacity:1;fill:#ffffff;fill-opacity:1;stroke:#ffffff;stroke-width:0.51203227;stroke-linecap:round;stroke-linejoin:miter;stroke-miterlimit:4;stroke-dasharray:none;stroke-dashoffset:0;stroke-opacity:1;paint-order:normal" />
    <g
       style="stroke-width:2.77777767"
       transform="matrix(0.36,0,0,0.36,-19.000422,80.197434)"
       id="g824">
      <path
         d="m 0,-153.6 h 256 v 256 H 0 Z"
         id="path2"
         inkscape:connector-curvature="0"
         style="fill:#f7df1e;stroke-width:2.77777767" />
      <path
         style="stroke-width:2.77777767"
         d="m 67.312,60.332 19.59,-11.856 c 3.78,6.701 7.218,12.371 15.465,12.371 7.905,0 12.89,-3.092 12.89,-15.12 v -81.798 h 24.057 v 82.138 c 0,24.917 -14.606,36.259 -35.916,36.259 -19.245,0 -30.416,-9.967 -36.087,-21.996 m 85.07,-2.576 19.588,-11.341 c 5.157,8.421 11.859,14.607 23.715,14.607 9.969,0 16.325,-4.984 16.325,-11.858 0,-8.248 -6.53,-11.17 -17.528,-15.98 l -6.013,-2.58 c -17.357,-7.387 -28.87,-16.667 -28.87,-36.257 0,-18.044 13.747,-31.792 35.228,-31.792 15.294,0 26.292,5.328 34.196,19.247 L 210.29,-6.17 c -4.125,-7.389 -8.591,-10.31 -15.465,-10.31 -7.046,0 -11.514,4.468 -11.514,10.31 0,7.217 4.468,10.14 14.778,14.608 l 6.014,2.577 c 20.45,8.765 31.963,17.7 31.963,37.804 0,21.654 -17.012,33.51 -39.867,33.51 -22.339,0 -36.774,-10.654 -43.819,-24.574"
         id="path4"
         inkscape:connector-curvature="0" />
    </g>
  </g>
</svg>
