<?xml version="1.0" encoding="UTF-8" standalone="no"?>
<svg
   xmlns:dc="http://purl.org/dc/elements/1.1/"
   xmlns:cc="http://creativecommons.org/ns#"
   xmlns:rdf="http://www.w3.org/1999/02/22-rdf-syntax-ns#"
   xmlns:svg="http://www.w3.org/2000/svg"
   xmlns="http://www.w3.org/2000/svg"
   xmlns:sodipodi="http://sodipodi.sourceforge.net/DTD/sodipodi-0.dtd"
   xmlns:inkscape="http://www.inkscape.org/namespaces/inkscape"
   width="1000"
   height="1000"
   viewBox="0 0 204.8 204.947"
   version="1.1"
   id="svg16"
   sodipodi:docname="jquery.svg"
   inkscape:version="0.92.4 (5da689c313, 2019-01-14)">
  <metadata
     id="metadata22">
    <rdf:RDF>
      <cc:Work
         rdf:about="">
        <dc:format>image/svg+xml</dc:format>
        <dc:type
           rdf:resource="http://purl.org/dc/dcmitype/StillImage" />
        <dc:title></dc:title>
      </cc:Work>
    </rdf:RDF>
  </metadata>
  <defs
     id="defs20" />
  <sodipodi:namedview
     pagecolor="#ffffff"
     bordercolor="#666666"
     borderopacity="1"
     objecttolerance="10"
     gridtolerance="10"
     guidetolerance="10"
     inkscape:pageopacity="0"
     inkscape:pageshadow="2"
     inkscape:window-width="1841"
     inkscape:window-height="1053"
     id="namedview18"
     showgrid="false"
     inkscape:pagecheckerboard="true"
     inkscape:zoom="0.3192"
     inkscape:cx="1395.811"
     inkscape:cy="336.14923"
     inkscape:window-x="-9"
     inkscape:window-y="-9"
     inkscape:window-maximized="1"
     inkscape:current-layer="svg16" />
  <g
     id="g839"
     transform="translate(391.0173,67.184606)">
    <rect
       y="-66.151482"
       x="-390.03662"
       height="203.9222"
       width="203.9222"
       id="rect829"
       style="opacity:1;fill:#ffffff;fill-opacity:1;stroke:#ffffff;stroke-width:1.02479959;stroke-linecap:round;stroke-linejoin:miter;stroke-miterlimit:4;stroke-dasharray:none;stroke-dashoffset:0;stroke-opacity:1;paint-order:normal" />
    <g
       transform="matrix(0.37480709,-0.21639497,0.21639497,0.37480709,-389.32401,75.130968)"
       style="fill:none;fill-rule:evenodd;stroke-width:2.31058955"
       id="g14">
      <path
         style="fill:#1a1918;stroke-width:2.31058955"
         inkscape:connector-curvature="0"
         id="path2"
         d="m 489.718,8.646 21.42,0.118 c 0,0 -39.824,53.964 -43.076,58.362 -1.056,1.424 -2.66,2.96 -3.474,4.864 -2.057,4.786 -4.169,15.285 -4.169,15.285 l -19.599,0.098 c 0,0 3.05,-10.944 2.924,-16.773 -0.11,-5.092 -2.71,-10.178 -4.168,-15.285 -1.474,-5.17 -3.475,-15.286 -3.475,-15.286 h 20.15 l 2.779,11.117 30.688,-42.5" />
      <path
         style="fill:#1a1918;stroke-width:2.31058955"
         inkscape:connector-curvature="0"
         id="path4"
         d="m 449.157,20.027 c 3.953,2.383 6.379,15.529 6.379,15.529 0,0 -20.684,0.305 -31.94,0.305 h -9.727 l -11.812,51.414 h -18.064 c 0,0 11.242,-55.874 13.896,-66.004 0.86,-3.28 5.892,-2.717 14.389,-2.717 h 13.569 c 8.762,0 19.003,-1.119 23.31,1.473 m -84.097,25.04 c 0,0 0.563,-3.3 -1.91,-7.122 -2.113,-3.258 -4.064,-4.016 -9.623,-4.19 -15.695,-0.493 -15.39,11.138 -15.39,11.138 z m 17.022,-13.32 c 2.3,8.297 -2.084,27.792 -2.084,27.792 0,0 -22.894,-0.382 -35.434,0 -3.899,0.119 -8.566,-0.424 -9.727,1.39 -1.633,2.542 0.597,6.455 2.487,8.108 2.175,1.903 6.412,2.12 7.935,2.313 10.178,1.293 31.48,0.334 31.48,0.334 l -3.69,16.34 c 0,0 -30.103,1.51 -45.16,-2.084 -2.973,-0.708 -5.76,-2.139 -7.643,-4.168 -0.514,-0.555 -0.96,-1.312 -1.446,-1.966 -0.388,-0.522 -1.52,-2.237 -2.028,-3.593 -3.439,-9.164 0.403,-26.72 4.169,-36.128 0.437,-1.09 0.986,-2.473 1.564,-3.648 0.722,-1.465 1.333,-3.119 1.91,-3.995 0.388,-0.604 0.869,-0.993 1.272,-1.563 0.465,-0.674 1.006,-1.327 1.507,-1.91 1.39,-1.612 2.967,-2.752 4.864,-4.168 6.273,-4.698 17.626,-8.345 31.265,-6.949 5.135,0.528 12.89,2.362 16.675,7.643 1.014,1.41 1.515,4.21 2.084,6.253 z M 299.229,18.49 316.745,18.387 c 0,0 -9.762,46.307 -14.737,68.888 h -20.15 c -14.082,0 -26.623,1.744 -31.959,-8.338 -5.176,-9.789 -0.236,-25.887 2.084,-36.824 1.64,-7.74 5.094,-23.56 5.094,-23.56 l 18.148,-0.166 c 0,0 -5.128,24.63 -7.262,36.928 -0.764,4.405 -2.34,8.553 -0.694,11.81 1.563,3.1 3.752,3.322 10.421,3.475 2.113,0.05 9.033,0 9.033,0 l 12.506,-52.11 m -81.985,33.35 c 1.834,-6.516 4.509,-13.582 4.169,-19.454 -0.368,-6.28 -5.634,-11.998 -9.032,-13.2 -10.234,-3.613 -19.815,1.438 -23.623,5.558 -4.926,5.336 -6.594,11.569 -8.338,20.15 -1.298,6.37 -2.362,13.095 0,18.063 4.182,8.783 17.224,6.865 31.266,6.949 2.084,-5.586 3.807,-11.86 5.558,-18.066 z m 24.318,-25.706 c 2,14.548 -5.676,30.606 -10.964,44.57 5.392,0.487 10.117,-0.075 10.457,0.327 0.354,0.521 -3.614,16.668 -4.997,16.71 -4.279,0.111 -18.459,0.229 -24.372,0.229 -19.295,0 -37.345,1.257 -46.55,-8.337 -3.738,-3.898 -6.323,-10.583 -6.949,-15.286 -1.042,-7.851 0.264,-16.495 2.085,-23.622 1.647,-6.435 3.758,-12.507 6.948,-18.066 8.108,-14.152 22.212,-24.657 45.855,-22.232 4.586,0.472 11.172,2.48 15.286,4.863 0.284,0.167 1.279,0.959 1.507,1.098 5.559,3.537 10.624,11.978 11.694,19.746 z m -85.369,-7.56 c -1.167,5.315 -2.334,11.34 -3.564,16.592 h -19.454 c 1.507,-5.822 2.661,-11.61 4.169,-16.675 6.225,0 12.013,0.083 18.85,0.083 M 132.48,40.03 h 18.76 c -2.453,13.576 -7.31,35.475 -11.117,50.719 -2.383,9.54 -3.974,16.501 -10.422,21.538 -0.577,0.452 -0.91,0.237 -1.39,0.695 -1.188,1.133 -6.684,2.447 -9.726,2.779 -4.947,0.536 -10.54,0.07 -16.62,-0.055 1.591,-5.815 3.391,-12.798 4.809,-18.01 14.82,1.794 15.195,-12.214 18.064,-25.706 1.66,-7.796 6.691,-28.834 7.642,-31.96" />
      <g
         style="fill:#21609b;stroke-width:2.31058955"
         id="g12">
        <path
           style="stroke-width:2.31058955"
           inkscape:connector-curvature="0"
           id="path6"
           d="m 88.708,75.464 -0.402,1.042 C 81.456,89.846 69.317,98.03 52.003,98.391 43.909,98.558 36.197,96.481 31.159,94.223 20.287,89.338 11.142,80.279 6.148,70.6 -1.016,56.725 -2.308,37.424 12.588,23.008 c 0.23,0 -1.807,3.126 -1.577,3.126 l -0.41,1.334 C -0.133,61.074 32.938,89.874 65.086,86.58 72.812,85.788 82.664,81.557 88.708,75.464" />
        <path
           style="stroke-width:2.31058955"
           inkscape:connector-curvature="0"
           id="path8"
           d="M 69.254,61.568 C 77.342,61.623 85.79,57.843 90.793,52.536 86.416,63.646 73.743,70.787 56.749,68.516 42.519,66.612 28.964,52.293 27.568,37.945 26.547,27.503 30.186,21.271 36.183,13.711 c -2.084,3.954 -2.863,7.003 -3.057,8.948 -2.278,22.588 18.044,38.79 36.128,38.909" />
        <path
           style="stroke-width:2.31058955"
           inkscape:connector-curvature="0"
           id="path10"
           d="m 89.98,33.512 c -1.257,2.884 -8.496,8.33 -11.693,9.011 -12.659,2.697 -20.766,-3.306 -25.013,-10.137 -0.631,-1.02 -1.798,-3.806 -2.007,-4.515 -1.647,-5.6 -0.89,-14.07 4.023,-18.454 -1.48,4.169 -1.696,9.011 -0.917,12.159 0.472,1.903 1.91,5.226 3.349,7.316 2.618,3.807 4.279,4.732 7.642,6.754 1.515,0.91 3.14,1.64 3.842,1.84 3.189,0.939 9.922,3.412 20.775,-3.974" />
      </g>
    </g>
  </g>
</svg>
