<?xml version="1.0" encoding="UTF-8" standalone="no"?>
<svg
   xmlns:dc="http://purl.org/dc/elements/1.1/"
   xmlns:cc="http://creativecommons.org/ns#"
   xmlns:rdf="http://www.w3.org/1999/02/22-rdf-syntax-ns#"
   xmlns:svg="http://www.w3.org/2000/svg"
   xmlns="http://www.w3.org/2000/svg"
   xmlns:sodipodi="http://sodipodi.sourceforge.net/DTD/sodipodi-0.dtd"
   xmlns:inkscape="http://www.inkscape.org/namespaces/inkscape"
   data-name="Слой 1"
   viewBox="0 0 100 125"
   x="0px"
   y="0px"
   version="1.1"
   id="svg20"
   sodipodi:docname="responsive-design.svg"
   inkscape:version="0.92.4 (5da689c313, 2019-01-14)">
  <metadata
     id="metadata24">
    <rdf:RDF>
      <cc:Work
         rdf:about="">
        <dc:format>image/svg+xml</dc:format>
        <dc:type
           rdf:resource="http://purl.org/dc/dcmitype/StillImage" />
      </cc:Work>
    </rdf:RDF>
  </metadata>
  <sodipodi:namedview
     pagecolor="#ffffff"
     bordercolor="#666666"
     borderopacity="1"
     objecttolerance="10"
     gridtolerance="10"
     guidetolerance="10"
     inkscape:pageopacity="0"
     inkscape:pageshadow="2"
     inkscape:window-width="1841"
     inkscape:window-height="1053"
     id="namedview22"
     showgrid="false"
     inkscape:zoom="3.776"
     inkscape:cx="101.0196"
     inkscape:cy="32.566357"
     inkscape:window-x="-9"
     inkscape:window-y="-9"
     inkscape:window-maximized="1"
     inkscape:current-layer="svg20" />
  <defs
     id="defs4">
    <style
       id="style2">.cls-1{fill-rule:evenodd;}</style>
  </defs>
  <title
     id="title6">Монтажная область 30</title>
  <path
     class="cls-1"
     d="m 63.559322,53.711525 v 12.53 h 0.66 a 2.34,2.34 0 0 1 2.34,2.34 v 27.66 h 29.5 a 0.51,0.51 0 0 0 0.5,-0.5 v -42 a 0.51,0.51 0 0 0 -0.5,-0.5 h -32 a 0.51,0.51 0 0 0 -0.5,0.47 z m 15,37.53 h 3 v 3 h -3 z"
     id="path8"
     inkscape:connector-curvature="0"
     style="fill-rule:evenodd" />
  <path
     class="cls-1"
     d="m 63.559322,69.241525 h -15 v 30 h 15 z m -6,28 h -3 v -3 h 3 z"
     id="path10"
     inkscape:connector-curvature="0"
     style="fill-rule:evenodd" />
  <polygon
     class="cls-1"
     points="35.5,75.97 35.5,80.97 31.5,80.97 31.5,83.97 44.5,83.97 44.5,75.97 "
     id="polygon12"
     transform="translate(1.059322,13.241525)"
     style="fill-rule:evenodd" />
  <path
     class="cls-1"
     d="m 27.059322,86.241525 h 18.5 v -17.69 a 2.34,2.34 0 0 1 2.34,-2.31 h 12.66 v -12.53 a 3.5,3.5 0 0 1 3.5,-3.47 h 21.53 v -18.93 a 4.11,4.11 0 0 0 -4.11,-4.07 h -71.81 a 4.11,4.11 0 0 0 -4.11,4.1 v 50.9 a 4.11,4.11 0 0 0 4.1,4.1 v 0 z"
     id="path14"
     inkscape:connector-curvature="0"
     style="fill-rule:evenodd" />
</svg>
