<?xml version="1.0" encoding="UTF-8" standalone="no"?>
<svg
   xmlns:dc="http://purl.org/dc/elements/1.1/"
   xmlns:cc="http://creativecommons.org/ns#"
   xmlns:rdf="http://www.w3.org/1999/02/22-rdf-syntax-ns#"
   xmlns:svg="http://www.w3.org/2000/svg"
   xmlns="http://www.w3.org/2000/svg"
   xmlns:sodipodi="http://sodipodi.sourceforge.net/DTD/sodipodi-0.dtd"
   xmlns:inkscape="http://www.inkscape.org/namespaces/inkscape"
   data-name="Слой 1"
   viewBox="0 0 1000 1000"
   x="0px"
   y="0px"
   version="1.1"
   id="svg20"
   sodipodi:docname="responsive-design.svg"
   inkscape:version="0.92.4 (5da689c313, 2019-01-14)"
   width="1000"
   height="1000">
  <metadata
     id="metadata24">
    <rdf:RDF>
      <cc:Work
         rdf:about="">
        <dc:format>image/svg+xml</dc:format>
        <dc:type
           rdf:resource="http://purl.org/dc/dcmitype/StillImage" />
        <dc:title>Монтажная область 30</dc:title>
      </cc:Work>
    </rdf:RDF>
  </metadata>
  <sodipodi:namedview
     pagecolor="#ffffff"
     bordercolor="#666666"
     borderopacity="1"
     objecttolerance="10"
     gridtolerance="10"
     guidetolerance="10"
     inkscape:pageopacity="0"
     inkscape:pageshadow="2"
     inkscape:window-width="1841"
     inkscape:window-height="1053"
     id="namedview22"
     showgrid="false"
     inkscape:zoom="0.472"
     inkscape:cx="-327.96539"
     inkscape:cy="422.6983"
     inkscape:window-x="-9"
     inkscape:window-y="-9"
     inkscape:window-maximized="1"
     inkscape:current-layer="svg20"
     inkscape:pagecheckerboard="true" />
  <defs
     id="defs4">
    <style
       id="style2">.cls-1{fill-rule:evenodd;}</style>
  </defs>
  <title
     id="title6">Монтажная область 30</title>
  <flowRoot
     xml:space="preserve"
     id="flowRoot839"
     style="font-style:normal;font-variant:normal;font-weight:normal;font-stretch:normal;font-size:40px;line-height:1.25;font-family:'Julius Sans One';-inkscape-font-specification:'Julius Sans One, Normal';font-variant-ligatures:normal;font-variant-caps:normal;font-variant-numeric:normal;font-feature-settings:normal;text-align:start;letter-spacing:0px;word-spacing:0px;writing-mode:lr-tb;text-anchor:start;fill:#143774;fill-opacity:1;stroke:none;stroke-width:0.44129458"
     transform="matrix(2.2660601,0,0,2.2660601,-2646.6979,-832.33417)"><flowRegion
       id="flowRegion841"
       style="fill:#143774;fill-opacity:1;stroke-width:0.44129458"><rect
         id="rect843"
         width="466.10168"
         height="152.54237"
         x="1197.0339"
         y="752.11865"
         style="fill:#143774;fill-opacity:1;stroke-width:0.44129458" /></flowRegion><flowPara
       id="flowPara845"
       style="stroke-width:0.44129458" /></flowRoot>  <g
     id="g833">
    <rect
       y="4.103847"
       x="5.0268893"
       height="994.99969"
       width="994.99969"
       id="rect823"
       style="opacity:1;fill:#ffffff;fill-opacity:1;stroke:#ffffff;stroke-width:5.00031519;stroke-linecap:round;stroke-linejoin:miter;stroke-miterlimit:4;stroke-dasharray:none;stroke-dashoffset:0;stroke-opacity:1;paint-order:normal" />
    <g
       style="fill:#143774;fill-opacity:1;stroke-width:0.10111111"
       transform="matrix(9.8901099,0,0,9.8901099,-2.4555693,-8777.7081)"
       id="g821">
      <path
         class="cls-1"
         d="m 63.559322,928.71153 v 12.53 h 0.66 a 2.34,2.34 0 0 1 2.34,2.34 v 27.66 h 29.5 a 0.51,0.51 0 0 0 0.5,-0.5 v -42 a 0.51,0.51 0 0 0 -0.5,-0.5 h -32 a 0.51,0.51 0 0 0 -0.5,0.47 z m 15,37.53 h 3 v 3 h -3 z"
         id="path8"
         inkscape:connector-curvature="0"
         style="fill:#143774;fill-opacity:1;fill-rule:evenodd;stroke-width:0.10111111" />
      <path
         class="cls-1"
         d="m 63.559322,944.24153 h -15 v 30 h 15 z m -6,28 h -3 v -3 h 3 z"
         id="path10"
         inkscape:connector-curvature="0"
         style="fill:#143774;fill-opacity:1;fill-rule:evenodd;stroke-width:0.10111111" />
      <polygon
         class="cls-1"
         points="44.5,75.97 35.5,75.97 35.5,80.97 31.5,80.97 31.5,83.97 44.5,83.97 "
         id="polygon12"
         transform="translate(1.059322,888.24153)"
         style="fill:#143774;fill-opacity:1;fill-rule:evenodd;stroke-width:0.10111111" />
      <path
         class="cls-1"
         d="m 27.059322,961.24153 h 18.5 v -17.69001 a 2.34,2.34 0 0 1 2.34,-2.30999 h 12.66 v -12.53001 a 3.5,3.5 0 0 1 3.5,-3.46999 h 21.53 v -18.93001 a 4.11,4.11 0 0 0 -4.11,-4.06999 h -71.81 a 4.11,4.11 0 0 0 -4.11,4.1 v 50.9 a 4.11,4.11 0 0 0 4.1,4.1 v 0 z"
         id="path14"
         inkscape:connector-curvature="0"
         style="fill:#143774;fill-opacity:1;fill-rule:evenodd;stroke-width:0.10111111" />
    </g>
  </g>
</svg>
