<svg xmlns="http://www.w3.org/2000/svg" data-name="Слой 1" viewBox="0 0 100 125" x="0px" y="0px"><defs><style>.cls-1{fill-rule:evenodd;}</style></defs><title>Монтажная область 30</title><path class="cls-1" d="M62.5,40.47V53h.66a2.34,2.34,0,0,1,2.34,2.34V83H95a.51.51,0,0,0,.5-.5v-42A.51.51,0,0,0,95,40H63A.51.51,0,0,0,62.5,40.47ZM77.5,78h3v3h-3Z"/><path class="cls-1" d="M62.5,56h-15V86h15V56Zm-6,28h-3V81h3Z"/><polygon class="cls-1" points="44.5 75.97 35.5 75.97 35.5 80.97 31.5 80.97 31.5 83.97 44.5 83.97 44.5 75.97"/><path class="cls-1" d="M26,73H44.5V55.31A2.34,2.34,0,0,1,46.84,53H59.5V40.47A3.5,3.5,0,0,1,63,37H84.53V18.07A4.11,4.11,0,0,0,80.42,14H8.61a4.11,4.11,0,0,0-4.11,4.1V69a4.11,4.11,0,0,0,4.1,4.1h0L26,73Z"/><text x="0" y="115" fill="#000000" font-size="5px" font-weight="bold" font-family="'Helvetica Neue', Helvetica, Arial-Unicode, Arial, Sans-serif">Created by Nikita Kozin</text><text x="0" y="120" fill="#000000" font-size="5px" font-weight="bold" font-family="'Helvetica Neue', Helvetica, Arial-Unicode, Arial, Sans-serif">from the Noun Project</text></svg>