<?xml version="1.0" encoding="UTF-8" standalone="no"?>
<svg
   xmlns:dc="http://purl.org/dc/elements/1.1/"
   xmlns:cc="http://creativecommons.org/ns#"
   xmlns:rdf="http://www.w3.org/1999/02/22-rdf-syntax-ns#"
   xmlns:svg="http://www.w3.org/2000/svg"
   xmlns="http://www.w3.org/2000/svg"
   xmlns:sodipodi="http://sodipodi.sourceforge.net/DTD/sodipodi-0.dtd"
   xmlns:inkscape="http://www.inkscape.org/namespaces/inkscape"
   version="1.1"
   x="0px"
   y="0px"
   viewBox="0 0 1000 1000"
   xml:space="preserve"
   id="svg16"
   sodipodi:docname="rest-api.svg"
   width="1000"
   height="1000"
   inkscape:version="0.92.4 (5da689c313, 2019-01-14)"><metadata
     id="metadata22"><rdf:RDF><cc:Work
         rdf:about=""><dc:format>image/svg+xml</dc:format><dc:type
           rdf:resource="http://purl.org/dc/dcmitype/StillImage" /><dc:title></dc:title></cc:Work></rdf:RDF></metadata><defs
     id="defs20" /><sodipodi:namedview
     pagecolor="#ffffff"
     bordercolor="#666666"
     borderopacity="1"
     objecttolerance="10"
     gridtolerance="10"
     guidetolerance="10"
     inkscape:pageopacity="0"
     inkscape:pageshadow="2"
     inkscape:window-width="1841"
     inkscape:window-height="1053"
     id="namedview18"
     showgrid="false"
     inkscape:pagecheckerboard="true"
     inkscape:zoom="0.476792"
     inkscape:cx="28.665265"
     inkscape:cy="485.7091"
     inkscape:window-x="-9"
     inkscape:window-y="-9"
     inkscape:window-maximized="1"
     inkscape:current-layer="svg16" /><g
     id="g837"
     transform="translate(1153.2508,46.336415)"><rect
       y="-41.599487"
       x="-1147.4072"
       height="994.99969"
       width="994.99969"
       id="rect829"
       style="opacity:1;fill:#ffffff;fill-opacity:1;stroke:#ffffff;stroke-width:5.00031519;stroke-linecap:round;stroke-linejoin:miter;stroke-miterlimit:4;stroke-dasharray:none;stroke-dashoffset:0;stroke-opacity:1;paint-order:normal" /><g
       style="fill:#143774;fill-opacity:1;stroke-width:0.07055555"
       transform="matrix(14.173228,0,0,14.173228,-1145.9704,-40.16262)"
       id="g10"><g
         style="fill:#143774;fill-opacity:1;stroke-width:0.07055555"
         id="g4"><path
           style="fill:#143774;fill-opacity:1;stroke-width:0.07055555"
           inkscape:connector-curvature="0"
           id="path2"
           d="m 66.75,33.90002 c 0,6.27002 -5.10004,11.37 -11.38,11.37 h -3.20001 v -3.56 c 0,-1.11005 -0.79999,-2.03998 -1.88,-2.22003 l -2.23999,-0.37 1.33,-1.84997 c 0.62994,-0.90002 0.51996,-2.12 -0.25,-2.89001 L 45.13995,30.40003 C 44.71997,29.97004 44.14996,29.74 43.54998,29.74 c -0.47003,0 -0.91998,0.14001 -1.31,0.42004 l -1.83002,1.31 -0.37,-2.22003 c -0.17999,-1.09998 -1.10999,-1.88995 -2.21997,-1.88995 h -5.64001 c -1.10004,0 -2.04004,0.78998 -2.22003,1.87994 l -0.37,2.23004 L 27.75,30.15002 C 27.37,29.88 26.91998,29.73999 26.44995,29.73999 c -0.59998,0 -1.16998,0.23004 -1.58997,0.66003 L 20.87,34.38 c -0.77002,0.77002 -0.88,1.98999 -0.23999,2.90002 l 1.31994,1.83998 -2.21997,0.37 c -1.09003,0.18005 -1.89001,1.10999 -1.89001,2.22003 v 3.56 H 14.62 c -6.27002,0 -11.37,-5.09998 -11.37,-11.37 0,-4.66998 2.85999,-8.84998 7.16998,-10.54999 1.23999,-7.73999 8,-13.53003 15.90002,-13.53003 6.97998,0 13.14996,4.5 15.31,11.06 0.97998,-0.38 2.03998,-0.57996 3.12,-0.57996 2.56,0 4.92999,1.07996 6.59998,2.96997 1.26001,-0.47998 2.60999,-0.72998 4.02002,-0.72998 6.27996,0 11.38,5.09997 11.38,11.35998 z" /></g><g
         style="fill:#143774;fill-opacity:1;stroke-width:0.07055555"
         id="g8"><path
           style="fill:#143774;fill-opacity:1;stroke-width:0.07055555"
           inkscape:connector-curvature="0"
           id="path6"
           d="M 50.03998,40.97003 46.73999,40.41998 C 46.57996,39.97003 46.39996,39.54004 46.19995,39.13 l 1.95001,-2.71997 C 48.35998,36.11004 48.32995,35.70001 48.07,35.44 L 44.07995,31.46002 C 43.82,31.20001 43.40997,31.17004 43.10998,31.38 l -2.71002,1.94 C 39.97998,33.11999 39.54998,32.94 39.10998,32.79003 L 38.56,29.48999 c -0.06,-0.37 -0.37,-0.62994 -0.73999,-0.62994 H 32.18 c -0.37,0 -0.67999,0.26996 -0.73999,0.62994 l -0.55005,3.30005 c -0.44,0.14996 -0.87,0.32996 -1.28998,0.52997 l -2.71002,-1.94 C 26.58997,31.17005 26.18,31.20002 25.91999,31.46003 l -3.99,3.97997 c -0.26001,0.26001 -0.29004,0.67004 -0.08002,0.97003 L 23.79999,39.13 c -0.20001,0.41003 -0.38,0.84003 -0.54004,1.28998 l -3.28998,0.55005 c -0.37,0.06 -0.63,0.37 -0.63,0.73999 v 5.63 c 0,0.37 0.26001,0.67999 0.63,0.73999 L 23.25995,48.63 c 0.16003,0.45001 0.34003,0.88 0.53003,1.28998 l -1.94,2.72003 C 21.63996,52.94 21.66999,53.34997 21.93,53.60998 l 3.98999,3.98004 c 0.26001,0.25995 0.66998,0.28998 0.96997,0.07996 l 2.72003,-1.94995 c 0.40997,0.19995 0.83997,0.37994 1.27997,0.53998 L 31.44,59.54999 c 0.06,0.36005 0.37,0.63 0.73999,0.63 H 37.82 c 0.37,0 0.67999,-0.26001 0.73999,-0.63 l 0.54999,-3.28998 c 0.44,-0.16003 0.87,-0.34003 1.27997,-0.53998 l 2.72003,1.94995 C 43.40997,57.88 43.82,57.84997 44.07995,57.59002 L 48.07,53.60998 c 0.25995,-0.26001 0.28998,-0.66998 0.07996,-0.96997 l -1.94,-2.72003 c 0.19,-0.40997 0.37,-0.83997 0.53003,-1.27997 l 3.29999,-0.56 c 0.37,-0.06 0.63,-0.37 0.63,-0.73999 v -5.63 c 0,-0.36999 -0.26001,-0.67999 -0.63,-0.73999 z M 35,51.57001 c -3.88,0 -7.04004,-3.15997 -7.04004,-7.04999 0,-3.88 3.16003,-7.03998 7.04004,-7.03998 3.88995,0 7.04999,3.15997 7.04999,7.03998 0,3.89001 -3.16004,7.04999 -7.04999,7.04999 z" /></g></g></g></svg>