<?xml version="1.0" encoding="UTF-8" standalone="no"?>
<svg
   xmlns:dc="http://purl.org/dc/elements/1.1/"
   xmlns:cc="http://creativecommons.org/ns#"
   xmlns:rdf="http://www.w3.org/1999/02/22-rdf-syntax-ns#"
   xmlns:svg="http://www.w3.org/2000/svg"
   xmlns="http://www.w3.org/2000/svg"
   xmlns:sodipodi="http://sodipodi.sourceforge.net/DTD/sodipodi-0.dtd"
   xmlns:inkscape="http://www.inkscape.org/namespaces/inkscape"
   height="1000"
   preserveAspectRatio="xMidYMid"
   width="1000"
   viewBox="0 0 102.4 102.12766"
   version="1.1"
   id="svg9"
   sodipodi:docname="tailwind-css.svg"
   inkscape:version="0.92.4 (5da689c313, 2019-01-14)">
  <metadata
     id="metadata15">
    <rdf:RDF>
      <cc:Work
         rdf:about="">
        <dc:format>image/svg+xml</dc:format>
        <dc:type
           rdf:resource="http://purl.org/dc/dcmitype/StillImage" />
        <dc:title></dc:title>
      </cc:Work>
    </rdf:RDF>
  </metadata>
  <defs
     id="defs13" />
  <sodipodi:namedview
     pagecolor="#ffffff"
     bordercolor="#666666"
     borderopacity="1"
     objecttolerance="10"
     gridtolerance="10"
     guidetolerance="10"
     inkscape:pageopacity="0"
     inkscape:pageshadow="2"
     inkscape:window-width="1841"
     inkscape:window-height="1053"
     id="namedview11"
     showgrid="false"
     inkscape:pagecheckerboard="true"
     inkscape:zoom="0.62765957"
     inkscape:cx="1342.9355"
     inkscape:cy="451.31346"
     inkscape:window-x="-9"
     inkscape:window-y="-9"
     inkscape:window-maximized="1"
     inkscape:current-layer="svg9" />
  <linearGradient
     id="a"
     x1="-5.5086842"
     y1="63.45496"
     y2="133.96135"
     gradientTransform="matrix(0.464758,0,0,0.27885481,-108.32878,-60.981805)"
     x2="198.29675"
     gradientUnits="userSpaceOnUse">
    <stop
       offset="0"
       stop-color="#2298bd"
       id="stop2" />
    <stop
       offset="1"
       stop-color="#0ed7b5"
       id="stop4" />
  </linearGradient>
  <g
     id="g829"
     transform="translate(113.4349,84.273464)">
    <rect
       y="-84.277786"
       x="-113.19276"
       height="101.88797"
       width="101.88797"
       id="rect825"
       style="opacity:1;fill:#ffffff;fill-opacity:1;stroke:#ffffff;stroke-width:0.51203227;stroke-linecap:round;stroke-linejoin:miter;stroke-miterlimit:4;stroke-dasharray:none;stroke-dashoffset:0;stroke-opacity:1;paint-order:normal" />
    <path
       style="fill:url(#a);stroke-width:1"
       inkscape:connector-curvature="0"
       id="path7"
       d="m -62.248781,-60.981805 c -12.287881,0 -19.968121,6.14412 -23.040001,18.432001 4.608,-6.14412 9.98388,-8.448121 16.128,-6.912001 3.50532,0.876241 6.010921,3.419641 8.784361,6.234481 4.518,4.58604 9.74664,9.89352 21.16764,9.89352 12.287881,0 19.968121,-6.14412 23.040001,-18.432001 -4.608,6.144121 -9.98388,8.448121 -16.128,6.912001 -3.505321,-0.87624 -6.010921,-3.41964 -8.784361,-6.234481 -4.518,-4.58604 -9.74664,-9.89352 -21.16764,-9.89352 z m -23.040001,27.648001 c -12.287881,0 -19.968118,6.14412 -23.039998,18.432001 4.608,-6.144121 9.983877,-8.448121 16.127998,-6.912001 3.50532,0.87624 6.01092,3.419641 8.78436,6.234481 4.518,4.58604 9.74664,9.8935198 21.167641,9.8935198 12.28788,0 19.96812,-6.1441198 23.04,-18.4320008 -4.608,6.144121 -9.98388,8.448121 -16.128,6.912001 -3.50532,-0.87624 -6.01092,-3.419641 -8.78436,-6.234481 -4.518001,-4.58604 -9.746641,-9.89352 -21.167641,-9.89352 z" />
  </g>
</svg>
