<svg xmlns="http://www.w3.org/2000/svg" data-name="Слой 1" viewBox="0 0 128 160" x="0px" y="0px"><title>ic_web_medical</title><path d="M122.65,16H25.35A5.37,5.37,0,0,0,20,21.38V30a2,2,0,0,0,4,0V21.38A1.38,1.38,0,0,1,25.35,20h97.3A1.38,1.38,0,0,1,124,21.38V90.62A1.38,1.38,0,0,1,122.65,92H46a2,2,0,0,0,0,4H71.88v12H46a2,2,0,0,0,0,4h56a2,2,0,0,0,0-4H75.88V96h46.77A5.37,5.37,0,0,0,128,90.62V21.38A5.37,5.37,0,0,0,122.65,16Z"/><path d="M47.76,44.83a2,2,0,0,0,2.82,0L55.41,40a2,2,0,0,0-2.82-2.83l-3.42,3.42-1.76-1.76a2,2,0,0,0-2.82,2.83Z"/><path d="M62,44H77a2,2,0,0,0,0-4H62a2,2,0,0,0,0,4Z"/><path d="M62,60H74a2,2,0,0,0,0-4H62a2,2,0,0,0,0,4Z"/><path d="M62,76H78a2,2,0,0,0,0-4H62a2,2,0,0,0,0,4Z"/><path d="M44.59,57.66l3.17,3.17a2,2,0,0,0,2.82,0L55.41,56a2,2,0,0,0-2.82-2.83l-3.42,3.42-1.76-1.76a2,2,0,0,0-2.82,2.83Z"/><path d="M44.59,73.66l3.17,3.17a2,2,0,0,0,2.82,0L55.41,72a2,2,0,0,0-2.82-2.83l-3.42,3.42-1.76-1.76a2,2,0,0,0-2.82,2.83Z"/><path d="M33.88,36H6.12A6.12,6.12,0,0,0,0,42.12V97.88A6.12,6.12,0,0,0,6.12,104H33.88A6.12,6.12,0,0,0,40,97.88V42.12A6.12,6.12,0,0,0,33.88,36ZM36,97.88A2.12,2.12,0,0,1,33.88,100H6.12A2.12,2.12,0,0,1,4,97.88V42.12A2.12,2.12,0,0,1,6.12,40H33.88A2.12,2.12,0,0,1,36,42.12Z"/><path d="M17.34,70.75a2,2,0,0,0,2.83,0l7.24-7.25a2,2,0,0,0-2.82-2.82l-5.83,5.83-3.35-3.35A2,2,0,1,0,12.59,66Z"/><path d="M30,76H10a2,2,0,0,0,0,4H30a2,2,0,0,0,0-4Z"/><path d="M18,84H10a2,2,0,0,0,0,4h8a2,2,0,0,0,0-4Z"/><path d="M18,48h4a2,2,0,0,0,0-4H18a2,2,0,0,0,0,4Z"/><path d="M103,76H95a4.1,4.1,0,0,1-4-4V65H84a4.1,4.1,0,0,1-4-4V53a4.11,4.11,0,0,1,4-4h7V42a4.11,4.11,0,0,1,4-4h8a4.11,4.11,0,0,1,4,4v7h7a4.11,4.11,0,0,1,4,4v8a4.11,4.11,0,0,1-4,4h-7v7A4.1,4.1,0,0,1,103,76Zm0-13a2,2,0,0,1,2-2h9V53h-9a2,2,0,0,1-2-2V42H95v9a2,2,0,0,1-2,2H84v8h9a2,2,0,0,1,2,2v9h8Z"/><text x="0" y="143" fill="#000000" font-size="5px" font-weight="bold" font-family="'Helvetica Neue', Helvetica, Arial-Unicode, Arial, Sans-serif">Created by LAFS</text><text x="0" y="148" fill="#000000" font-size="5px" font-weight="bold" font-family="'Helvetica Neue', Helvetica, Arial-Unicode, Arial, Sans-serif">from the Noun Project</text></svg>