<?xml version="1.0" encoding="UTF-8" standalone="no"?>
<svg
   xmlns:dc="http://purl.org/dc/elements/1.1/"
   xmlns:cc="http://creativecommons.org/ns#"
   xmlns:rdf="http://www.w3.org/1999/02/22-rdf-syntax-ns#"
   xmlns:svg="http://www.w3.org/2000/svg"
   xmlns="http://www.w3.org/2000/svg"
   xmlns:sodipodi="http://sodipodi.sourceforge.net/DTD/sodipodi-0.dtd"
   xmlns:inkscape="http://www.inkscape.org/namespaces/inkscape"
   version="1.1"
   x="0px"
   y="0px"
   viewBox="0 0 1000 1000"
   xml:space="preserve"
   id="svg8"
   sodipodi:docname="web-performance.svg"
   inkscape:version="0.92.4 (5da689c313, 2019-01-14)"
   width="1000"
   height="1000"><metadata
     id="metadata14"><rdf:RDF><cc:Work
         rdf:about=""><dc:format>image/svg+xml</dc:format><dc:type
           rdf:resource="http://purl.org/dc/dcmitype/StillImage" /><dc:title></dc:title></cc:Work></rdf:RDF></metadata><defs
     id="defs12" /><sodipodi:namedview
     pagecolor="#ffffff"
     bordercolor="#666666"
     borderopacity="1"
     objecttolerance="10"
     gridtolerance="10"
     guidetolerance="10"
     inkscape:pageopacity="0"
     inkscape:pageshadow="2"
     inkscape:window-width="1841"
     inkscape:window-height="1053"
     id="namedview10"
     showgrid="false"
     inkscape:zoom="0.6675088"
     inkscape:cx="337.88849"
     inkscape:cy="457.645"
     inkscape:window-x="-9"
     inkscape:window-y="-9"
     inkscape:window-maximized="1"
     inkscape:current-layer="svg8"
     inkscape:pagecheckerboard="true" /><g
     id="g816"
     transform="translate(269.65937,3.9924303)"><rect
       y="-0.4376249"
       x="-264.54498"
       height="994.99963"
       width="994.99969"
       id="rect812"
       style="opacity:1;fill:#ffffff;fill-opacity:1;stroke:#ffffff;stroke-width:5.00031519;stroke-linecap:round;stroke-linejoin:miter;stroke-miterlimit:4;stroke-dasharray:none;stroke-dashoffset:0;stroke-opacity:1;paint-order:normal" /><path
       style="fill:#103769;fill-opacity:1;stroke-width:1"
       inkscape:connector-curvature="0"
       id="path2"
       d="m 501.29259,244.15982 c 1.18733,-1.18734 2.37467,-1.18734 3.562,-2.37467 52.24275,64.11609 84.3008,144.85488 90.23747,231.53034 H 356.43771 C 354.06304,418.69808 344.56436,364.08066 327.94166,310.65058 388.49575,297.5899 446.67517,275.03053 501.29259,244.15982 Z M 266.20027,174.10705 c 17.81,29.68337 33.24535,60.55409 46.30604,92.61214 55.80475,-11.87336 109.23483,-32.05805 160.29024,-60.5541 C 406.30578,140.86166 316.06831,99.304944 217.51947,92.180934 Z M 21.609169,473.31549 c 2.3747,-54.61741 11.8734,-109.23483 28.4961,-162.66491 -60.5541,-13.06068 -118.7335,-35.62005 -173.350899,-67.6781 -1.1874,-1.18733 -2.3747,-1.18733 -3.5621,-2.37467 -52.2427,64.1161 -84.3007,144.85489 -90.2374,231.53035 H 21.609169 Z m 27.3087,208.97098 c -16.6226,-52.24274 -26.1213,-106.86016 -28.496,-161.47757 H -217.04513 c 4.7493,87.86279 37.9947,167.41425 90.2374,231.53034 1.1874,-1.18733 2.3747,-1.18733 3.5621,-2.37467 54.617399,-30.87071 112.796799,-53.43008 172.163499,-67.6781 z M 307.75697,520.8089 H 69.102569 c 2.3747,52.24274 11.8734,103.29815 27.3087,153.16622 60.554101,-9.49868 123.482901,-9.49868 184.037001,0 16.6227,-49.86807 26.12136,-100.92348 27.3087,-153.16622 z M 111.84667,820.01734 C 94.036669,790.33396 78.601269,759.46325 65.540569,727.4052 c -55.8047001,11.87335 -109.2348,32.05805 -160.2902,60.55409 66.4908,65.30343 156.7282,106.86016 255.277001,113.98416 z M 65.540569,266.71919 c 13.0607,-32.05805 28.4961,-62.92877 46.306101,-92.61214 l 48.6807,-81.926116 c -99.736101,5.93667 -188.786201,48.680726 -255.277001,113.984156 51.0554,28.49605 104.4854999,47.49341 160.2902,60.5541 z m 47.493401,452.37467 c 10.6861,26.12137 23.7467,51.05541 39.1821,75.98944 l 36.8074,61.74143 36.8074,-61.74143 c 15.4353,-24.93403 27.3087,-49.86807 39.182,-75.98944 -51.0554,-5.93668 -102.1108,-5.93668 -151.9789,0 z m 112.7969,-520.05278 -36.8074,-61.74142 -36.8074,61.74142 c -15.4354,24.93404 -27.3087,49.86808 -39.1821,75.98945 49.8681,7.12401 100.9235,7.12401 150.7916,0 -10.686,-26.12137 -23.7467,-52.24274 -37.9947,-75.98945 z m 54.6174,121.10818 c -30.8707,4.74934 -60.5541,7.12402 -91.4248,7.12402 -30.8707,0 -61.7414,-2.37468 -92.612201,-7.12402 -16.6226,49.86808 -24.934,100.92349 -27.3087,153.16623 H 308.9443 C 306.56963,422.26008 297.07097,370.01734 280.44827,320.14926 Z m 265.96305,254.08972 c 14.24802,0 27.30871,1.18733 40.3694,4.74934 3.562,-18.99737 7.12401,-37.99473 8.31134,-58.17942 H 356.43771 c -2.37467,54.61741 -11.87335,109.23483 -28.49605,161.47757 16.6227,3.56201 33.24539,8.31135 49.86808,13.06069 23.7467,-70.05277 90.23747,-121.10818 168.60158,-121.10818 z M 368.31106,752.33924 c 0,-3.562 0,-5.93667 0,-9.49868 -18.99736,-5.93668 -37.99473,-10.68602 -56.99209,-15.43536 -13.06068,32.05805 -28.496,62.92876 -46.3061,92.61214 l -48.6807,81.92611 c 65.3034,-4.7493 125.85751,-23.74669 178.10026,-55.80474 -15.43536,-26.12137 -26.12137,-59.36675 -26.12137,-93.79947 z m 314.6438,0 c 0,75.98945 -60.55409,136.54354 -136.54354,136.54354 -75.98944,0 -136.54353,-60.55409 -136.54353,-136.54354 0,-75.98945 61.74142,-136.54354 136.54353,-136.54354 75.98945,0 136.54354,61.74143 136.54354,136.54354 z m -84.30079,-47.4934 -72.42744,28.49604 c -8.31135,3.562 -16.6227,10.68602 -20.1847,20.1847 -7.12401,17.81002 2.37467,37.99472 20.1847,45.11873 17.81002,7.12401 37.99472,-2.37467 45.11873,-20.1847 z" /></g></svg>