<svg xmlns="http://www.w3.org/2000/svg" xmlns:xlink="http://www.w3.org/1999/xlink" version="1.1" x="0px" y="0px" viewBox="0 0 100 125" style="enable-background:new 0 0 100 100;" xml:space="preserve"><path d="M72.6,28.7c0.1-0.1,0.2-0.1,0.3-0.2c4.4,5.4,7.1,12.2,7.6,19.5H60.4c-0.2-4.6-1-9.2-2.4-13.7C63.1,33.2,68,31.3,72.6,28.7z   M52.8,22.8c1.5,2.5,2.8,5.1,3.9,7.8c4.7-1,9.2-2.7,13.5-5.1c-5.6-5.5-13.2-9-21.5-9.6L52.8,22.8z M32.2,48c0.2-4.6,1-9.2,2.4-13.7  c-5.1-1.1-10-3-14.6-5.7c-0.1-0.1-0.2-0.1-0.3-0.2c-4.4,5.4-7.1,12.2-7.6,19.5H32.2z M34.5,65.6c-1.4-4.4-2.2-9-2.4-13.6H12.1  c0.4,7.4,3.2,14.1,7.6,19.5c0.1-0.1,0.2-0.1,0.3-0.2C24.6,68.7,29.5,66.8,34.5,65.6z M56.3,52H36.2c0.2,4.4,1,8.7,2.3,12.9  c5.1-0.8,10.4-0.8,15.5,0C55.4,60.7,56.2,56.4,56.3,52z M39.8,77.2c-1.5-2.5-2.8-5.1-3.9-7.8c-4.7,1-9.2,2.7-13.5,5.1  c5.6,5.5,13.2,9,21.5,9.6L39.8,77.2z M35.9,30.6c1.1-2.7,2.4-5.3,3.9-7.8l4.1-6.9C35.5,16.4,28,20,22.4,25.5  C26.7,27.9,31.2,29.5,35.9,30.6z M39.9,68.7c0.9,2.2,2,4.3,3.3,6.4l3.1,5.2l3.1-5.2c1.3-2.1,2.3-4.2,3.3-6.4  C48.4,68.2,44.1,68.2,39.9,68.7z M49.4,24.9l-3.1-5.2l-3.1,5.2c-1.3,2.1-2.3,4.2-3.3,6.4c4.2,0.6,8.5,0.6,12.7,0  C51.7,29.1,50.6,26.9,49.4,24.9z M54,35.1c-2.6,0.4-5.1,0.6-7.7,0.6c-2.6,0-5.2-0.2-7.8-0.6c-1.4,4.2-2.1,8.5-2.3,12.9h20.2  C56.2,43.7,55.4,39.3,54,35.1z M76.4,56.5c1.2,0,2.3,0.1,3.4,0.4c0.3-1.6,0.6-3.2,0.7-4.9H60.4c-0.2,4.6-1,9.2-2.4,13.6  c1.4,0.3,2.8,0.7,4.2,1.1C64.2,60.8,69.8,56.5,76.4,56.5z M61.4,71.5c0-0.3,0-0.5,0-0.8c-1.6-0.5-3.2-0.9-4.8-1.3  c-1.1,2.7-2.4,5.3-3.9,7.8l-4.1,6.9c5.5-0.4,10.6-2,15-4.7C62.3,77.2,61.4,74.4,61.4,71.5z M87.9,71.5c0,6.4-5.1,11.5-11.5,11.5  c-6.4,0-11.5-5.1-11.5-11.5S70.1,60,76.4,60C82.8,60,87.9,65.2,87.9,71.5z M80.8,67.5l-6.1,2.4c-0.7,0.3-1.4,0.9-1.7,1.7  c-0.6,1.5,0.2,3.2,1.7,3.8c1.5,0.6,3.2-0.2,3.8-1.7L80.8,67.5z"/><text x="0" y="115" fill="#000000" font-size="5px" font-weight="bold" font-family="'Helvetica Neue', Helvetica, Arial-Unicode, Arial, Sans-serif">Created by Pravin Unagar</text><text x="0" y="120" fill="#000000" font-size="5px" font-weight="bold" font-family="'Helvetica Neue', Helvetica, Arial-Unicode, Arial, Sans-serif">from the Noun Project</text></svg>