<?xml version="1.0" encoding="UTF-8" standalone="no"?>
<svg
   xmlns:dc="http://purl.org/dc/elements/1.1/"
   xmlns:cc="http://creativecommons.org/ns#"
   xmlns:rdf="http://www.w3.org/1999/02/22-rdf-syntax-ns#"
   xmlns:svg="http://www.w3.org/2000/svg"
   xmlns="http://www.w3.org/2000/svg"
   xmlns:sodipodi="http://sodipodi.sourceforge.net/DTD/sodipodi-0.dtd"
   xmlns:inkscape="http://www.inkscape.org/namespaces/inkscape"
   version="1.1"
   x="0px"
   y="0px"
   viewBox="0 0 100 125"
   style="enable-background:new 0 0 100 100;"
   xml:space="preserve"
   id="svg8"
   sodipodi:docname="web-performance-2.svg"
   inkscape:version="0.92.4 (5da689c313, 2019-01-14)"><metadata
     id="metadata14"><rdf:RDF><cc:Work
         rdf:about=""><dc:format>image/svg+xml</dc:format><dc:type
           rdf:resource="http://purl.org/dc/dcmitype/StillImage" /></cc:Work></rdf:RDF></metadata><defs
     id="defs12" /><sodipodi:namedview
     pagecolor="#ffffff"
     bordercolor="#666666"
     borderopacity="1"
     objecttolerance="10"
     gridtolerance="10"
     guidetolerance="10"
     inkscape:pageopacity="0"
     inkscape:pageshadow="2"
     inkscape:window-width="1841"
     inkscape:window-height="1053"
     id="namedview10"
     showgrid="false"
     inkscape:zoom="1.888"
     inkscape:cx="50"
     inkscape:cy="62.5"
     inkscape:window-x="-9"
     inkscape:window-y="-9"
     inkscape:window-maximized="1"
     inkscape:current-layer="svg8" /><path
     d="m 75.129661,39.822881 c 0.1,-0.1 0.2,-0.1 0.3,-0.2 4.4,5.4 7.1,12.2 7.6,19.5 h -20.1 c -0.2,-4.6 -1,-9.2 -2.4,-13.7 5.1,-1.1 10,-3 14.6,-5.6 z m -19.8,-5.9 c 1.5,2.5 2.8,5.1 3.9,7.8 4.7,-1 9.2,-2.7 13.5,-5.1 -5.6,-5.5 -13.2,-9 -21.5,-9.6 z m -20.6,25.2 c 0.2,-4.6 1,-9.2 2.4,-13.7 -5.1,-1.1 -10,-3 -14.6,-5.7 -0.1,-0.1 -0.2,-0.1 -0.3,-0.2 -4.4,5.4 -7.1,12.2 -7.6,19.5 h 20.1 z m 2.3,17.6 c -1.4,-4.4 -2.2,-9 -2.4,-13.6 h -20 c 0.4,7.4 3.2,14.1 7.6,19.5 0.1,-0.1 0.2,-0.1 0.3,-0.2 4.6,-2.6 9.5,-4.5 14.5,-5.7 z m 21.8,-13.6 h -20.1 c 0.2,4.4 1,8.7 2.3,12.9 5.1,-0.8 10.4,-0.8 15.5,0 1.4,-4.2 2.2,-8.5 2.3,-12.9 z m -16.5,25.2 c -1.5,-2.5 -2.8,-5.1 -3.9,-7.8 -4.7,1 -9.2,2.7 -13.5,5.1 5.6,5.5 13.2,9 21.5,9.6 z m -3.9,-46.6 c 1.1,-2.7 2.4,-5.3 3.9,-7.8 l 4.1,-6.9 c -8.4,0.5 -15.9,4.1 -21.5,9.6 4.3,2.4 8.8,4 13.5,5.1 z m 4,38.1 c 0.9,2.2 2,4.3 3.3,6.4 l 3.1,5.2 3.1,-5.2 c 1.3,-2.1 2.3,-4.2 3.3,-6.4 -4.3,-0.5 -8.6,-0.5 -12.8,0 z m 9.5,-43.8 -3.1,-5.2 -3.1,5.2 c -1.3,2.1 -2.3,4.2 -3.3,6.4 4.2,0.6 8.5,0.6 12.7,0 -0.9,-2.2 -2,-4.4 -3.2,-6.4 z m 4.6,10.2 c -2.6,0.4 -5.1,0.6 -7.7,0.6 -2.6,0 -5.2,-0.2 -7.8,-0.6 -1.4,4.2 -2.1,8.5 -2.3,12.9 h 20.2 c -0.2,-4.3 -1,-8.7 -2.4,-12.9 z m 22.4,21.4 c 1.2,0 2.3,0.1 3.4,0.4 0.3,-1.6 0.6,-3.2 0.7,-4.9 h -20.1 c -0.2,4.6 -1,9.2 -2.4,13.6 1.4,0.3 2.8,0.7 4.2,1.1 2,-5.9 7.6,-10.2 14.2,-10.2 z m -15,15 c 0,-0.3 0,-0.5 0,-0.8 -1.6,-0.5 -3.2,-0.9 -4.8,-1.3 -1.1,2.7 -2.4,5.3 -3.9,7.8 l -4.1,6.9 c 5.5,-0.4 10.6,-2 15,-4.7 -1.3,-2.2 -2.2,-5 -2.2,-7.9 z m 26.5,0 c 0,6.4 -5.1,11.5 -11.5,11.5 -6.4,0 -11.5,-5.1 -11.5,-11.5 0,-6.4 5.2,-11.5 11.5,-11.5 6.4,0 11.5,5.2 11.5,11.5 z m -7.1,-4 -6.1,2.4 c -0.7,0.3 -1.4,0.9 -1.7,1.7 -0.6,1.5 0.2,3.2 1.7,3.8 1.5,0.6 3.2,-0.2 3.8,-1.7 z"
     id="path2"
     inkscape:connector-curvature="0" /></svg>