<?xml version="1.0" encoding="UTF-8" standalone="no"?>
<svg
   xmlns:dc="http://purl.org/dc/elements/1.1/"
   xmlns:cc="http://creativecommons.org/ns#"
   xmlns:rdf="http://www.w3.org/1999/02/22-rdf-syntax-ns#"
   xmlns:svg="http://www.w3.org/2000/svg"
   xmlns="http://www.w3.org/2000/svg"
   xmlns:sodipodi="http://sodipodi.sourceforge.net/DTD/sodipodi-0.dtd"
   xmlns:inkscape="http://www.inkscape.org/namespaces/inkscape"
   enable-background="new 0 0 1771 2499.8"
   viewBox="0 0 1000 999.99998"
   version="1.1"
   id="svg16"
   sodipodi:docname="css.svg"
   width="1000"
   height="1000"
   inkscape:version="0.92.4 (5da689c313, 2019-01-14)">
  <metadata
     id="metadata22">
    <rdf:RDF>
      <cc:Work
         rdf:about="">
        <dc:format>image/svg+xml</dc:format>
        <dc:type
           rdf:resource="http://purl.org/dc/dcmitype/StillImage" />
        <dc:title></dc:title>
      </cc:Work>
    </rdf:RDF>
  </metadata>
  <defs
     id="defs20" />
  <sodipodi:namedview
     pagecolor="#ffffff"
     bordercolor="#666666"
     borderopacity="1"
     objecttolerance="10"
     gridtolerance="10"
     guidetolerance="10"
     inkscape:pageopacity="0"
     inkscape:pageshadow="2"
     inkscape:window-width="1841"
     inkscape:window-height="1053"
     id="namedview18"
     showgrid="false"
     inkscape:pagecheckerboard="true"
     inkscape:zoom="0.3776302"
     inkscape:cx="1508.0107"
     inkscape:cy="580.17092"
     inkscape:window-x="-9"
     inkscape:window-y="-9"
     inkscape:window-maximized="1"
     inkscape:current-layer="svg16" />
  <g
     id="g849"
     transform="translate(1265.6771,-535.61865)">
    <rect
       y="539.74927"
       x="-1259.1165"
       height="994.99969"
       width="994.99969"
       id="rect838"
       style="opacity:1;fill:#ffffff;fill-opacity:1;stroke:#ffffff;stroke-width:5.00031519;stroke-linecap:round;stroke-linejoin:miter;stroke-miterlimit:4;stroke-dasharray:none;stroke-dashoffset:0;stroke-opacity:1;paint-order:normal" />
    <g
       style="stroke-width:2.77755547"
       transform="matrix(0.36002881,0,0,0.36002881,-1080.4221,1127.2203)"
       id="g836">
      <path
         d="m 1387.8,-1407.3 h -146.9 l 152.8,165.9 v 78.9 h -314.8 v -92.4 h 152.8 l -152.8,-165.9 v -79 h 309 z m -371.4,0 H 869.3 l 153,165.9 v 78.9 H 707.4 v -92.4 h 152.8 l -152.8,-165.9 v -79 h 309 z m -367.8,3.8 H 490.1 v 144.8 h 158.5 v 96.3 H 377.3 v -337.4 h 271.3 z"
         id="path2"
         inkscape:connector-curvature="0"
         style="fill:#131313;stroke-width:2.77755547" />
      <path
         d="M 161.2,799.29995 0,-1008.4 h 1771 l -161.4,1807.39995 -725.2,201 z"
         id="path4"
         inkscape:connector-curvature="0"
         style="fill:#1572b6;stroke-width:2.77755547" />
      <path
         d="m 885.5,846.39995 586,-162.5 137.8,-1544.5 H 885.5 Z"
         id="path6"
         inkscape:connector-curvature="0"
         style="fill:#33a9dc;stroke-width:2.77755547" />
      <path
         d="m 885.5,-205.70005 h 293.4 l 20.2,-227 H 885.5 v -221.6 h 556 l -5.3,59.5 -54.5,611.000001 H 885.5 Z"
         id="path8"
         inkscape:connector-curvature="0"
         style="fill:#ffffff;stroke-width:2.77755547" />
      <path
         d="m 886.7,370.09995 h -1 l -246.9,-66.7 -15.8,-176.8 H 400.6 l 31.1,348.1 454.2,126.4 h 1.3 v -231 z"
         id="path10"
         inkscape:connector-curvature="0"
         style="fill:#ebebeb;stroke-width:2.77755547" />
      <path
         d="m 1160.1,6.4999512 -26.7,296.6999988 -247.3,66.7 v 231 l 454.5,-126 3.3,-37.5 38.6,-430.9999988 h -222.4 z"
         id="path12"
         inkscape:connector-curvature="0"
         style="fill:#ffffff;stroke-width:2.77755547" />
      <path
         d="m 886.3,-654.30005 v 221.7 H 350.9 l -4.6,-49.8 -10.1,-112.4 -5.3,-59.5 z m -0.8,448.6 V 15.999951 H 641.4 l -4.3,-49.8 -10.1,-112.400001 -5.3,-59.5 h 263.7 z"
         id="path14"
         inkscape:connector-curvature="0"
         style="fill:#ebebeb;stroke-width:2.77755547" />
    </g>
  </g>
</svg>
