<?xml version="1.0" encoding="UTF-8" standalone="no"?>
<svg
   xmlns:dc="http://purl.org/dc/elements/1.1/"
   xmlns:cc="http://creativecommons.org/ns#"
   xmlns:rdf="http://www.w3.org/1999/02/22-rdf-syntax-ns#"
   xmlns:svg="http://www.w3.org/2000/svg"
   xmlns="http://www.w3.org/2000/svg"
   xmlns:sodipodi="http://sodipodi.sourceforge.net/DTD/sodipodi-0.dtd"
   xmlns:inkscape="http://www.inkscape.org/namespaces/inkscape"
   data-name="Слой 1"
   viewBox="0 0 1000 1000"
   x="0px"
   y="0px"
   version="1.1"
   id="svg20"
   sodipodi:docname="rest-api-2.svg"
   width="1000"
   height="1000"
   inkscape:version="0.92.4 (5da689c313, 2019-01-14)">
  <metadata
     id="metadata26">
    <rdf:RDF>
      <cc:Work
         rdf:about="">
        <dc:format>image/svg+xml</dc:format>
        <dc:type
           rdf:resource="http://purl.org/dc/dcmitype/StillImage" />
        <dc:title>ic_api_gears</dc:title>
      </cc:Work>
    </rdf:RDF>
  </metadata>
  <defs
     id="defs24" />
  <sodipodi:namedview
     pagecolor="#ffffff"
     bordercolor="#666666"
     borderopacity="1"
     objecttolerance="10"
     gridtolerance="10"
     guidetolerance="10"
     inkscape:pageopacity="0"
     inkscape:pageshadow="2"
     inkscape:window-width="1841"
     inkscape:window-height="1053"
     id="namedview22"
     showgrid="false"
     inkscape:pagecheckerboard="true"
     inkscape:zoom="0.52149125"
     inkscape:cx="223.70439"
     inkscape:cy="342.4351"
     inkscape:window-x="-9"
     inkscape:window-y="-9"
     inkscape:window-maximized="1"
     inkscape:current-layer="svg20" />
  <title
     id="title2">ic_api_gears</title>
  <g
     id="g861"
     transform="translate(-2,2)">
    <rect
       y="1.882418"
       x="7.2055249"
       height="994.99969"
       width="994.99969"
       id="rect841"
       style="opacity:1;fill:#ffffff;fill-opacity:1;stroke:#ffffff;stroke-width:5.00031519;stroke-linecap:round;stroke-linejoin:miter;stroke-miterlimit:4;stroke-dasharray:none;stroke-dashoffset:0;stroke-opacity:1;paint-order:normal" />
    <g
       style="fill:#143774;fill-opacity:1"
       transform="translate(930.02517,51.774598)"
       id="g850">
      <g
         id="g839"
         transform="matrix(7.0257472,0,0,7.0296021,-875.31979,-5907.2581)"
         style="fill:#143774;fill-opacity:1;stroke-width:0.14229459">
        <path
           inkscape:connector-curvature="0"
           id="path4"
           d="m 86,926 a 15.76,15.76 0 1 0 22.29,0 15.77,15.77 0 0 0 -22.29,0 z m 19.5,19.5 a 11.75,11.75 0 0 1 -16.63,0 11.76,11.76 0 1 1 16.63,0 z"
           style="fill:#143774;fill-opacity:1;stroke-width:0.14229459" />
        <path
           inkscape:connector-curvature="0"
           id="path6"
           d="m 126.65,939.51 a 2,2 0 0 0 -1.25,-1 l -3.16,-0.85 q 0,-0.5 0,-1 l 3.16,-0.85 a 2,2 0 0 0 1.25,-1 c 0.31,-0.58 1.82,-3.57 1.2,-5.89 -0.62,-2.32 -3.43,-4.15 -4,-4.5 a 2,2 0 0 0 -1.57,-0.23 l -3.15,0.85 c -0.16,-0.29 -0.33,-0.58 -0.5,-0.86 l 2.37,-2.26 a 2,2 0 0 0 0.59,-1.48 c 0,-0.65 -0.21,-4 -1.91,-5.7 -1.7,-1.7 -5,-1.88 -5.7,-1.9 a 1.92,1.92 0 0 0 -1.47,0.58 l -2.31,2.31 -0.86,-0.5 0.84,-3.15 a 2,2 0 0 0 -0.23,-1.57 c -0.34,-0.56 -2.18,-3.36 -4.5,-4 -2.32,-0.64 -5.31,0.89 -5.89,1.2 a 2,2 0 0 0 -1,1.24 l -0.85,3.16 h -1 L 95.84,909 a 2,2 0 0 0 -1,-1.24 c -0.58,-0.31 -3.57,-1.83 -5.89,-1.2 -2.32,0.63 -4.16,3.42 -4.5,4 a 2,2 0 0 0 -0.23,1.57 l 0.85,3.15 -0.86,0.5 -2.31,-2.31 a 2,2 0 0 0 -1.48,-0.58 c -0.65,0 -4,0.2 -5.7,1.9 -1.7,1.7 -1.88,5.05 -1.9,5.7 a 2,2 0 0 0 0.58,1.48 l 2.31,2.31 c -0.17,0.28 -0.34,0.57 -0.5,0.86 l -3.15,-0.85 a 2,2 0 0 0 -1.57,0.23 c -0.56,0.35 -3.36,2.18 -4,4.5 -0.64,2.32 0.89,5.31 1.2,5.89 a 2,2 0 0 0 1.24,1 l 3.16,0.85 q 0,0.5 0,1 L 69,938.53 a 2,2 0 0 0 -1.24,1 c -0.31,0.58 -1.83,3.57 -1.21,5.89 0.62,2.32 3.43,4.16 4,4.5 a 2,2 0 0 0 1.57,0.23 l 3.15,-0.84 c 0.16,0.29 0.33,0.57 0.5,0.86 l -2.31,2.31 a 2,2 0 0 0 -0.58,1.47 c 0,0.65 0.2,4 1.9,5.7 1.7,1.7 5.05,1.89 5.7,1.91 a 2,2 0 0 0 1.48,-0.59 l 2.31,-2.31 0.86,0.5 -0.85,3.15 a 2,2 0 0 0 0.23,1.57 c 0.34,0.56 2.18,3.36 4.5,4 a 4.89,4.89 0 0 0 1.21,0.15 11.27,11.27 0 0 0 4.68,-1.35 2,2 0 0 0 1,-1.25 l 0.85,-3.16 q 0.5,0 1,0 l 0.85,3.16 a 2,2 0 0 0 1,1.25 c 0.58,0.31 3.57,1.82 5.89,1.2 2.32,-0.62 4.16,-3.43 4.5,-4 a 2,2 0 0 0 0.23,-1.57 l -0.84,-3.15 0.86,-0.5 2.31,2.31 a 1.93,1.93 0 0 0 1.47,0.59 c 0.65,0 4,-0.21 5.7,-1.91 1.7,-1.7 1.89,-5 1.91,-5.7 a 2,2 0 0 0 -0.59,-1.47 l -2.31,-2.31 c 0.17,-0.29 0.34,-0.57 0.5,-0.86 l 3.15,0.84 a 2,2 0 0 0 1.57,-0.23 c 0.56,-0.34 3.36,-2.18 4,-4.5 0.64,-2.32 -0.95,-5.33 -1.3,-5.91 z m -2.65,4.86 a 5,5 0 0 1 -1.55,1.66 l -3.82,-1 a 2,2 0 0 0 -2.33,1.09 21.56,21.56 0 0 1 -1.84,3.17 2,2 0 0 0 0.22,2.57 l 2.81,2.8 a 5.06,5.06 0 0 1 -0.67,2.17 5,5 0 0 1 -2.17,0.67 l -2.8,-2.81 a 2,2 0 0 0 -2.57,-0.22 19.91,19.91 0 0 1 -3.17,1.84 2,2 0 0 0 -1.09,2.33 l 1,3.82 a 5,5 0 0 1 -1.66,1.55 4.86,4.86 0 0 1 -2.22,-0.51 l -1,-3.83 a 2,2 0 0 0 -2.14,-1.5 22.49,22.49 0 0 1 -3.67,0 2,2 0 0 0 -2.1,1.47 l -1,3.83 A 5,5 0 0 1 90,964 4.9,4.9 0 0 1 88.33,962.45 l 1,-3.82 a 2,2 0 0 0 -1.09,-2.33 20.36,20.36 0 0 1 -3.17,-1.84 2,2 0 0 0 -2.56,0.22 l -2.81,2.81 a 5.11,5.11 0 0 1 -2.17,-0.67 5,5 0 0 1 -0.67,-2.17 l 2.81,-2.8 a 2,2 0 0 0 0.22,-2.57 21.05,21.05 0 0 1 -1.84,-3.17 2,2 0 0 0 -2.29,-1.11 l -3.82,1 a 5.08,5.08 0 0 1 -1.55,-1.66 5,5 0 0 1 0.51,-2.22 l 3.83,-1 a 2,2 0 0 0 1.48,-2.12 20.45,20.45 0 0 1 0,-3.67 2,2 0 0 0 -1.48,-2.1 l -3.83,-1 a 5,5 0 0 1 -0.51,-2.23 4.9,4.9 0 0 1 1.55,-1.67 l 3.82,1 a 2,2 0 0 0 2.33,-1.09 22.09,22.09 0 0 1 1.84,-3.17 2,2 0 0 0 -0.22,-2.56 l -2.81,-2.77 a 5.11,5.11 0 0 1 0.67,-2.17 5,5 0 0 1 2.17,-0.67 l 2.81,2.81 a 2,2 0 0 0 2.56,0.22 22.09,22.09 0 0 1 3.17,-1.84 2,2 0 0 0 1.09,-2.33 l -1,-3.82 a 5,5 0 0 1 1.63,-1.55 5,5 0 0 1 2.21,0.51 l 1,3.83 a 2,2 0 0 0 2.1,1.48 20.45,20.45 0 0 1 3.67,0 2,2 0 0 0 2.11,-1.48 l 1,-3.83 a 5.11,5.11 0 0 1 2.22,-0.51 5,5 0 0 1 1.69,1.55 l -1,3.82 a 2,2 0 0 0 1.09,2.33 21.56,21.56 0 0 1 3.17,1.84 2,2 0 0 0 2.57,-0.22 l 2.8,-2.81 a 5,5 0 0 1 2.17,0.67 4.86,4.86 0 0 1 0.67,2.17 l -2.81,2.81 a 2,2 0 0 0 -0.22,2.56 21.19,21.19 0 0 1 1.84,3.17 2,2 0 0 0 2.33,1.09 l 3.82,-1 a 4.9,4.9 0 0 1 1.57,1.63 4.83,4.83 0 0 1 -0.51,2.21 l -3.83,1 a 2,2 0 0 0 -1.47,2.1 22.49,22.49 0 0 1 0,3.67 2,2 0 0 0 1.47,2.11 l 3.83,1 a 4.94,4.94 0 0 1 0.51,2.28 z"
           style="fill:#143774;fill-opacity:1;stroke-width:0.14229459" />
        <path
           inkscape:connector-curvature="0"
           id="path8"
           d="m 69.71,914.69 a 2,2 0 0 0 -0.26,-0.76 l -0.91,-1.59 a 35.88,35.88 0 0 0 3.8,-3.8 l 1.59,0.91 a 2,2 0 0 0 0.76,0.26 c 3.63,0.43 8.24,0.44 9.62,-1.94 1.38,-2.38 -1,-6.37 -3.14,-9.3 a 2,2 0 0 0 -0.6,-0.53 L 79,897 a 35,35 0 0 0 1.39,-5.2 h 1.83 a 2.14,2.14 0 0 0 0.79,-0.16 c 3.36,-1.44 7.36,-3.74 7.36,-6.49 0,-2.75 -4,-5 -7.36,-6.48 a 2,2 0 0 0 -0.79,-0.16 H 80.38 A 34.8,34.8 0 0 0 79,873.33 l 1.58,-0.91 a 1.91,1.91 0 0 0 0.6,-0.53 c 2.19,-2.93 4.51,-6.92 3.14,-9.3 -1.37,-2.38 -6,-2.37 -9.62,-1.93 a 2,2 0 0 0 -0.76,0.25 l -1.59,0.92 A 35.14,35.14 0 0 0 68.53,858 l 0.92,-1.59 a 2,2 0 0 0 0.26,-0.76 c 0.43,-3.63 0.44,-8.24 -1.94,-9.62 -2.38,-1.38 -6.37,1 -9.3,3.14 a 2,2 0 0 0 -0.53,0.6 L 57,851.37 A 35,35 0 0 0 51.83,850 v -1.85 a 2.14,2.14 0 0 0 -0.16,-0.79 C 50.23,844 47.93,840 45.18,840 c -2.75,0 -5,4 -6.48,7.36 a 2,2 0 0 0 -0.17,0.79 V 850 a 35,35 0 0 0 -5.2,1.39 l -0.91,-1.58 a 1.91,1.91 0 0 0 -0.53,-0.6 C 29,847 25,844.68 22.59,846.05 c -2.41,1.37 -2.37,6 -1.93,9.62 a 1.85,1.85 0 0 0 0.25,0.76 L 21.83,858 A 36.07,36.07 0 0 0 18,861.83 l -1.59,-0.92 a 2,2 0 0 0 -0.76,-0.25 c -3.63,-0.44 -8.24,-0.45 -9.62,1.93 -1.38,2.38 0.97,6.41 3.16,9.3 a 1.91,1.91 0 0 0 0.6,0.53 l 1.58,0.91 A 34.8,34.8 0 0 0 10,878.54 H 8.15 A 2,2 0 0 0 7.36,878.7 C 4,880.14 0,882.43 0,885.18 c 0,2.75 4,5 7.36,6.49 a 2.14,2.14 0 0 0 0.79,0.16 H 10 a 35,35 0 0 0 1.37,5.17 l -1.58,0.91 a 2,2 0 0 0 -0.6,0.53 c -2.19,2.96 -4.51,6.95 -3.14,9.33 1.37,2.38 6,2.37 9.62,1.94 a 2,2 0 0 0 0.76,-0.26 L 18,908.54 a 36,36 0 0 0 3.81,3.8 l -0.92,1.59 a 1.85,1.85 0 0 0 -0.25,0.76 c -0.44,3.63 -0.45,8.24 1.93,9.62 2.38,1.38 6.37,-1 9.3,-3.14 a 1.91,1.91 0 0 0 0.53,-0.6 L 33.33,919 a 35,35 0 0 0 5.2,1.39 v 1.83 a 2,2 0 0 0 0.17,0.79 c 1.44,3.36 3.73,7.36 6.48,7.36 2.75,0 5,-4 6.49,-7.36 a 2.14,2.14 0 0 0 0.16,-0.79 v -1.84 A 34.36,34.36 0 0 0 57,919 l 0.91,1.58 a 2,2 0 0 0 0.53,0.6 c 2.93,2.19 6.92,4.51 9.3,3.14 2.38,-1.37 2.4,-6 1.97,-9.63 z m -5,-4.4 a 2,2 0 0 0 -0.5,2.58 l 1.56,2.69 a 18.23,18.23 0 0 1 -0.1,5.12 18,18 0 0 1 -4.49,-2.47 l -1.55,-2.69 a 2,2 0 0 0 -2.48,-0.85 31.56,31.56 0 0 1 -7.61,2 2,2 0 0 0 -1.72,2 v 3.11 a 17.91,17.91 0 0 1 -2.65,4.38 18.56,18.56 0 0 1 -2.65,-4.38 v -3.1 a 2,2 0 0 0 -1.72,-2 31.56,31.56 0 0 1 -7.61,-2 2,2 0 0 0 -2.48,0.85 l -1.55,2.69 a 18.12,18.12 0 0 1 -4.48,2.47 17.78,17.78 0 0 1 -0.11,-5.12 l 1.56,-2.69 a 2,2 0 0 0 -0.5,-2.58 31.92,31.92 0 0 1 -5.57,-5.57 2,2 0 0 0 -2.58,-0.5 l -2.68,1.55 a 17.79,17.79 0 0 1 -5.12,-0.11 18.12,18.12 0 0 1 2.47,-4.48 l 2.69,-1.55 a 2,2 0 0 0 0.85,-2.48 31.69,31.69 0 0 1 -2,-7.61 2,2 0 0 0 -2,-1.72 H 8.57 a 17.91,17.91 0 0 1 -4.38,-2.65 18.26,18.26 0 0 1 4.38,-2.64 h 3.11 a 2,2 0 0 0 2,-1.73 31.81,31.81 0 0 1 2,-7.61 2,2 0 0 0 -0.85,-2.48 l -2.69,-1.55 a 18.12,18.12 0 0 1 -2.47,-4.48 17.79,17.79 0 0 1 5.12,-0.11 l 2.69,1.56 a 2,2 0 0 0 2.58,-0.5 31.92,31.92 0 0 1 5.57,-5.57 2,2 0 0 0 0.5,-2.58 l -1.55,-2.69 a 17.79,17.79 0 0 1 0.11,-5.12 18.12,18.12 0 0 1 4.48,2.47 l 1.55,2.69 a 2,2 0 0 0 2.48,0.85 31.81,31.81 0 0 1 7.61,-2 2,2 0 0 0 1.72,-2 v -3.12 a 18.56,18.56 0 0 1 2.65,-4.38 17.91,17.91 0 0 1 2.65,4.38 v 3.11 a 2,2 0 0 0 1.72,2 31.69,31.69 0 0 1 7.61,2 2,2 0 0 0 2.48,-0.85 l 1.55,-2.69 a 18,18 0 0 1 4.49,-2.47 18.24,18.24 0 0 1 0.1,5.12 l -1.56,2.69 a 2,2 0 0 0 0.5,2.58 31.58,31.58 0 0 1 5.57,5.57 2,2 0 0 0 2.58,0.5 l 2.69,-1.56 a 17.78,17.78 0 0 1 5.12,0.11 18.12,18.12 0 0 1 -2.47,4.48 l -2.69,1.55 a 2,2 0 0 0 -0.85,2.48 31.81,31.81 0 0 1 2,7.61 2,2 0 0 0 2,1.73 h 3.11 a 17.63,17.63 0 0 1 4.38,2.64 17.91,17.91 0 0 1 -4.38,2.65 h -3.1 a 2,2 0 0 0 -2,1.72 31.69,31.69 0 0 1 -2,7.61 2,2 0 0 0 0.85,2.48 l 2.69,1.55 a 18.12,18.12 0 0 1 2.47,4.48 17.78,17.78 0 0 1 -5.12,0.11 l -2.69,-1.56 a 2,2 0 0 0 -2.58,0.5 31.92,31.92 0 0 1 -5.58,5.58 z"
           style="fill:#143774;fill-opacity:1;stroke-width:0.14229459" />
        <path
           inkscape:connector-curvature="0"
           id="path10"
           d="m 72,894 a 2,2 0 0 0 -2,-2 h -2 v -16 h 2 a 2,2 0 0 0 0,-4 h -8 a 2,2 0 0 0 0,4 h 2 v 16 h -2 a 2,2 0 0 0 0,4 h 8 a 2,2 0 0 0 2,-2 z"
           style="fill:#143774;fill-opacity:1;stroke-width:0.14229459" />
        <path
           inkscape:connector-curvature="0"
           id="path12"
           d="M 29.83,873.13 A 2,2 0 0 0 28,871.87 v 0 a 2,2 0 0 0 -1.85,1.26 l -8,20.17 a 2,2 0 0 0 1.12,2.6 1.94,1.94 0 0 0 0.73,0.1 2,2 0 0 0 1.86,-1.26 l 2.24,-5.67 h 7.79 l 2.25,5.67 a 2.0017992,2.0017992 0 0 0 3.72,-1.48 z m -4.15,12 2.32,-5.84 2.31,5.82 z"
           style="fill:#143774;fill-opacity:1;stroke-width:0.14229459" />
        <path
           inkscape:connector-curvature="0"
           id="path14"
           d="m 49,872 h -5 a 2,2 0 0 0 -2,2 v 20 a 2,2 0 0 0 4,0 v -5 h 3 c 5,0 9,-3.73 9,-8.5 0,-4.77 -3.95,-8.5 -9,-8.5 z m 0,13 h -3 v -9 h 3 a 4.72,4.72 0 0 1 5,4.5 4.72,4.72 0 0 1 -5,4.5 z"
           style="fill:#143774;fill-opacity:1;stroke-width:0.14229459" />
      </g>
    </g>
  </g>
</svg>
