<?xml version="1.0" encoding="UTF-8" standalone="no"?>
<svg
   xmlns:dc="http://purl.org/dc/elements/1.1/"
   xmlns:cc="http://creativecommons.org/ns#"
   xmlns:rdf="http://www.w3.org/1999/02/22-rdf-syntax-ns#"
   xmlns:svg="http://www.w3.org/2000/svg"
   xmlns="http://www.w3.org/2000/svg"
   xmlns:sodipodi="http://sodipodi.sourceforge.net/DTD/sodipodi-0.dtd"
   xmlns:inkscape="http://www.inkscape.org/namespaces/inkscape"
   width="1000"
   height="1000"
   viewBox="0 0 204.8 204.8"
   version="1.1"
   id="svg4"
   sodipodi:docname="sass.svg"
   inkscape:version="0.92.4 (5da689c313, 2019-01-14)">
  <metadata
     id="metadata10">
    <rdf:RDF>
      <cc:Work
         rdf:about="">
        <dc:format>image/svg+xml</dc:format>
        <dc:type
           rdf:resource="http://purl.org/dc/dcmitype/StillImage" />
        <dc:title></dc:title>
      </cc:Work>
    </rdf:RDF>
  </metadata>
  <defs
     id="defs8" />
  <sodipodi:namedview
     pagecolor="#ffffff"
     bordercolor="#666666"
     borderopacity="1"
     objecttolerance="10"
     gridtolerance="10"
     guidetolerance="10"
     inkscape:pageopacity="0"
     inkscape:pageshadow="2"
     inkscape:window-width="1841"
     inkscape:window-height="1053"
     id="namedview6"
     showgrid="false"
     inkscape:pagecheckerboard="true"
     inkscape:zoom="0.25173333"
     inkscape:cx="1511.8953"
     inkscape:cy="1013.3926"
     inkscape:window-x="-9"
     inkscape:window-y="-9"
     inkscape:window-maximized="1"
     inkscape:current-layer="svg4" />
  <g
     id="g821"
     transform="translate(556.48586,167.59322)">
    <rect
       y="-166.31493"
       x="-554.92841"
       height="203.77594"
       width="203.77594"
       id="rect817"
       style="opacity:1;fill:#ffffff;fill-opacity:1;stroke:#ffffff;stroke-width:1.02406454;stroke-linecap:round;stroke-linejoin:miter;stroke-miterlimit:4;stroke-dasharray:none;stroke-dashoffset:0;stroke-opacity:1;paint-order:normal" />
    <path
       style="fill:#cf649a;stroke-width:0.99999988"
       inkscape:connector-curvature="0"
       id="path2"
       d="m -390.33722,-81.190384 c -6.02346,1.650503 -10.859,4.498999 -14.66218,7.83018 -2.47556,-2.768199 -4.84284,-5.132314 -5.67191,-7.149318 -0.9535,-2.345246 -1.72164,-3.729124 -2.12744,-6.726457 -0.40631,-2.99792 0.17706,-7.561027 0.0867,-7.898041 -0.11535,-0.294187 -0.84966,-1.686767 -4.32961,-0.790433 -3.47996,0.896335 -6.29011,2.407852 -6.38331,3.408093 -0.0932,1.000252 -0.20734,3.270353 -0.0675,5.544657 0.24221,3.330494 -3.08659,16.250832 -5.11236,23.114859 -1.79362,-1.975645 -3.34649,-3.726844 -3.98258,-5.290584 -0.95307,-2.344991 -1.72154,-3.728777 -2.12701,-6.726201 -0.40597,-2.99801 0.17749,-7.56078 0.0872,-7.897804 -0.11498,-0.294278 -0.84933,-1.686847 -4.32929,-0.790521 -3.48063,0.896513 -6.29011,2.407862 -6.3833,3.408104 -0.0932,1.000248 0.11403,3.256484 -0.0676,5.54465 -0.14818,2.27923 -3.55272,23.274905 -4.43393,28.748612 -0.44391,2.791919 -0.88813,5.042107 -1.23499,6.579881 -0.34651,1.537716 -0.007,0.110145 -0.0379,0.263013 -0.29959,1.308393 -0.46503,2.039027 -0.46503,2.039027 l 0.009,0.03407 c -0.24606,0.968975 -0.53495,1.91292 -0.7712,1.976222 -0.16851,0.04515 -1.11056,-2.122552 -1.36833,-5.376278 -0.49599,-6.838874 -0.18088,-17.795444 -0.31357,-18.157226 -0.0452,-0.168504 0.0487,-2.108453 -2.72261,-2.340783 -2.70404,-0.250735 -3.17357,1.500534 -3.37612,1.554807 -0.20222,0.05418 -0.22624,0.63856 -0.22624,0.63856 0,0 -0.33135,-12.15596 -8.28493,-10.024806 -4.98785,1.336488 -10.40909,8.604627 -12.48549,14.470833 -1.84085,1.757497 -5.75612,5.479201 -9.89567,9.442334 -1.58267,1.507711 -3.2147,3.1009 -4.7727,4.565873 l -0.47893,-0.305853 c -12.39293,-7.696332 -32.17163,-10.198842 -35.13263,-24.21517 -1.07592,-5.093783 -2.87234,-18.808098 25.04831,-43.483136 22.86653,-20.21437 44.96368,-22.27031 50.78604,-15.23353 8.29407,10.05885 -2.51257,35.783112 -29.12358,46.200552 -10.13144,3.978954 -16.70878,1.406793 -18.49658,0.260375 -1.87359,-1.195676 -2.09385,-1.20889 -2.55181,-0.761098 -0.74981,0.706615 0.16868,1.977596 0.73146,2.729835 1.37775,1.906477 5.75931,4.778021 11.99427,5.130162 5.46369,0.305948 17.97523,-2.071241 31.2688,-11.773853 14.89009,-10.888952 23.07915,-32.227483 15.27043,-46.136863 -7.94836,-14.16094 -34.49365,-12.39411 -56.05409,2.44944 -12.83416,8.8571 -26.089,20.86109 -34.37082,34.16943 -9.85659,15.789214 -9.07446,27.066208 -7.00621,31.280034 7.32046,15.05161 31.96478,19.53741 42.77709,24.83981 -0.37501,0.352957 -0.71621,0.697231 -1.03265,0.999111 -3.80336,3.330507 -18.14672,16.529575 -19.8515,26.8832465 -1.91883,11.7117397 5.55469,17.7646227 9.46536,17.8004017 12.09616,0.118121 22.11406,-8.598423 25.86551,-19.5369797 3.71742,-10.9294275 -0.2475,-22.7623325 -4.58408,-27.4881145 l -0.15561,-0.175032 2.89574,-2.943181 c 1.87246,-1.91045 3.73797,-3.710686 5.37859,-5.270413 -0.29247,3.220916 -0.13782,6.899977 0.81265,12.063489 1.1176,6.058253 5.60294,13.091702 9.61732,15.266954 1.76756,0.93476 3.46176,0.517288 4.50651,0.237348 3.70718,-0.993334 4.57041,-4.512047 5.43978,-8.68185 1.09068,-5.09638 1.7221,-10.82824 1.7221,-10.82824 0,0 1.23804,14.730851 8.14687,12.879635 2.52762,-0.677272 4.17929,-4.623618 4.87364,-6.615723 l 0.009,0.0337 c 0,0 0.0403,-0.119174 0.1119,-0.391195 a 12.60593,12.60593 0 0 0 0.23293,-0.748367 l -0.018,-0.0674 c 0.54147,-2.02338 1.72487,-6.638919 3.31606,-14.181168 2.05346,-9.72503 3.36117,-21.561985 3.36117,-21.561985 0,0 1.10878,2.520356 3.5116,6.500043 1.4275,2.363083 3.79461,4.726521 5.77303,7.122234 -0.63177,1.686377 -1.02158,2.658091 -1.02158,2.658091 l 0.0427,0.02467 c -0.51954,1.295098 -1.12269,2.685201 -1.75908,4.083474 -2.33586,5.032695 -5.19215,10.819247 -5.37015,12.311798 -0.216,1.75522 0.23487,2.898652 1.73476,3.508507 1.09056,0.430219 2.74425,0.131234 4.42701,-0.46378 3.04627,-1.033338 4.99557,-2.386075 5.94751,-3.147212 1.52253,-1.058147 3.19971,-2.482815 4.69209,-4.327552 2.702,-3.396611 3.80963,-7.486131 2.34316,-12.150174 -0.79644,-2.567929 -2.32528,-4.903505 -4.02021,-7.050075 0.18591,-0.519391 0.37208,-1.039223 0.54872,-1.591877 3.23877,-9.212205 5.05676,-18.873777 5.05676,-18.873777 0,0 1.10878,2.520357 3.51161,6.50004 1.22697,2.019125 3.14921,4.069029 4.92718,6.121114 -3.89516,5.41438 -5.76517,10.972436 -6.01283,14.361952 -0.45324,6.262051 1.79237,8.441695 4.88696,8.262681 1.38627,-0.08247 3.11134,-1.194893 4.36393,-2.18071 1.59898,-1.042503 3.4602,-2.589093 5.02703,-4.561781 2.70191,-3.396947 5.00714,-7.73512 3.58342,-12.374505 -0.67905,-2.129811 -1.82088,-4.0995 -3.13784,-5.913889 3.77683,-2.890301 8.99894,-5.373206 16.20126,-6.40004 15.4668,-2.265993 20.94297,6.308372 21.41791,10.371188 0.47467,4.063246 -2.08173,7.059629 -2.94621,8.01369 -0.87317,0.920269 -1.14689,1.24683 -0.91945,1.69122 0.32453,0.671955 0.78724,0.511484 1.66115,0.1332 1.19269,-0.536674 7.0283,-5.314753 5.3655,-12.598806 -2.07927,-9.377651 -13.58448,-17.131228 -29.16132,-12.849413 z m -105.21585,69.984833 c -3.50026,6.7534094 -9.92563,10.67849123 -13.36096,9.7206702 -3.69832,-0.9957051 -4.59188,-9.3170232 -0.0358,-16.7145702 2.76802,-4.498304 6.72045,-9.024993 9.35561,-11.862243 0.59033,-0.627764 1.4973,-1.556728 2.57018,-2.675353 0.16618,-0.188649 0.28284,-0.292515 0.28284,-0.292515 0.19978,-0.198016 0.42424,-0.43877 0.64871,-0.679516 4.4614,7.618155 4.23699,15.408256 0.53936,22.503527 z m 29.62807,-34.343482 c -0.59,4.673245 -1.33104,16.466747 -3.68418,16.447093 -2.02309,2.53e-4 -5.36298,-7.882302 -4.86817,-16.683989 0.25531,-4.439445 1.81968,-10.059716 2.99897,-12.398861 1.91744,-3.76469 4.61194,-5.570321 5.68783,-4.522116 1.30979,1.383226 0.23963,14.240174 -0.13445,17.157873 z m 33.72218,6.279584 c -0.642,0.569737 -1.24389,1.019616 -1.60129,0.899013 -0.27203,-0.07159 0.13139,-0.72152 0.13139,-0.72152 0,0 2.66628,-5.012855 3.65248,-7.263765 0.55366,-1.303882 1.23058,-2.821741 1.92967,-4.526526 l 0.10837,0.404421 c 1.30061,4.852612 -2.4833,9.334138 -4.22062,11.208377 z m 21.64285,-11.434098 c -0.6476,-0.259937 -0.91399,-1.525039 -0.14195,-5.921978 0.29268,-1.739998 1.21469,-4.768375 3.3527,-7.978119 0.60793,0.920741 1.07227,1.843486 1.28214,2.762882 1.59204,6.075249 -2.11669,9.489114 -4.49289,11.137215 z" />
  </g>
</svg>
