<?xml version="1.0" encoding="UTF-8" standalone="no"?>
<svg
   xmlns:dc="http://purl.org/dc/elements/1.1/"
   xmlns:cc="http://creativecommons.org/ns#"
   xmlns:rdf="http://www.w3.org/1999/02/22-rdf-syntax-ns#"
   xmlns:svg="http://www.w3.org/2000/svg"
   xmlns="http://www.w3.org/2000/svg"
   xmlns:sodipodi="http://sodipodi.sourceforge.net/DTD/sodipodi-0.dtd"
   xmlns:inkscape="http://www.inkscape.org/namespaces/inkscape"
   viewBox="0 0 1000 1000"
   x="0px"
   y="0px"
   version="1.1"
   id="svg18"
   sodipodi:docname="web-performance-4.svg"
   width="1000"
   height="1000"
   inkscape:version="0.92.4 (5da689c313, 2019-01-14)">
  <metadata
     id="metadata24">
    <rdf:RDF>
      <cc:Work
         rdf:about="">
        <dc:format>image/svg+xml</dc:format>
        <dc:type
           rdf:resource="http://purl.org/dc/dcmitype/StillImage" />
        <dc:title>Web Speed</dc:title>
      </cc:Work>
    </rdf:RDF>
  </metadata>
  <defs
     id="defs22" />
  <sodipodi:namedview
     pagecolor="#ffffff"
     bordercolor="#666666"
     borderopacity="1"
     objecttolerance="10"
     gridtolerance="10"
     guidetolerance="10"
     inkscape:pageopacity="0"
     inkscape:pageshadow="2"
     inkscape:window-width="1841"
     inkscape:window-height="1053"
     id="namedview20"
     showgrid="false"
     inkscape:pagecheckerboard="true"
     inkscape:zoom="0.36875"
     inkscape:cx="1656.0514"
     inkscape:cy="718.72086"
     inkscape:window-x="-9"
     inkscape:window-y="-9"
     inkscape:window-maximized="1"
     inkscape:current-layer="svg18" />
  <title
     id="title2">Web Speed</title>
  <g
     id="g842"
     transform="translate(-139.01695,786.13559)">
    <rect
       y="-781.44037"
       x="146.44067"
       height="994.99969"
       width="994.99969"
       id="rect834"
       style="opacity:1;fill:#ffffff;fill-opacity:1;stroke:#ffffff;stroke-width:5.00031519;stroke-linecap:round;stroke-linejoin:miter;stroke-miterlimit:4;stroke-dasharray:none;stroke-dashoffset:0;stroke-opacity:1;paint-order:normal" />
    <g
       style="fill:#143774;fill-opacity:1;stroke-width:0.06666667"
       transform="matrix(15,0,0,15,163.94052,-763.94052)"
       id="g12"
       data-name="Web Speed">
      <path
         style="fill:#143774;fill-opacity:1;stroke-width:0.06666667"
         inkscape:connector-curvature="0"
         id="path4"
         d="M 57,7 H 7 a 5,5 0 0 0 -5,5 v 40 a 5,5 0 0 0 5,5 h 50 a 5,5 0 0 0 5,-5 V 12 A 5,5 0 0 0 57,7 Z m -28,5 a 2,2 0 1 1 -2,2 2,2 0 0 1 2,-2 z m -9,0 a 2,2 0 1 1 -2,2 2,2 0 0 1 2,-2 z m -9,0 a 2,2 0 1 1 -2,2 2,2 0 0 1 2,-2 z m 49,40 a 3,3 0 0 1 -3,3 H 7 A 3,3 0 0 1 4,52 V 20 h 56 z" />
      <path
         style="fill:#143774;fill-opacity:1;stroke-width:0.06666667"
         inkscape:connector-curvature="0"
         id="path6"
         d="m 34.3,42.54 -8,-10.41 a 1,1 0 0 0 -1.72,1 l 5,12.14 a 2.75,2.75 0 1 0 4.72,-2.73 z" />
      <path
         style="fill:#143774;fill-opacity:1;stroke-width:0.06666667"
         inkscape:connector-curvature="0"
         id="path8"
         d="M 39,51 H 25 a 1,1 0 0 1 0,-2 h 14 a 1,1 0 0 1 0,2 z" />
      <path
         style="fill:#143774;fill-opacity:1;stroke-width:0.06666667"
         inkscape:connector-curvature="0"
         id="path10"
         d="m 32,25 a 20,20 0 0 0 -20,20 1,1 0 0 0 2,0 18,18 0 0 1 0.14,-2.13 l 0.95,0.17 h 0.17 a 1.003606,1.003606 0 0 0 0.17,-2 l -0.94,-0.17 a 17.9,17.9 0 0 1 1.47,-4 l 0.82,0.47 a 1,1 0 1 0 1,-1.73 L 17,35.16 a 18.19,18.19 0 0 1 2.7,-3.26 l 0.61,0.72 a 1.0006248,1.0006248 0 0 0 1.53,-1.29 l -0.61,-0.72 a 18,18 0 0 1 3.69,-2.15 l 0.33,0.9 a 1,1 0 0 0 0.94,0.66 1,1 0 0 0 0.34,-0.06 1,1 0 0 0 0.6,-1.28 L 26.8,27.78 A 17.94,17.94 0 0 1 31,27 v 1 a 1,1 0 0 0 2,0 v -0.95 a 17.9,17.9 0 0 1 4.19,0.76 l -0.32,0.88 a 1,1 0 0 0 0.6,1.28 1,1 0 0 0 0.34,0.06 1,1 0 0 0 0.94,-0.66 l 0.32,-0.88 a 18.08,18.08 0 0 1 3.68,2.14 l -0.59,0.71 a 1.0006248,1.0006248 0 0 0 1.53,1.29 l 0.6,-0.71 A 18.13,18.13 0 0 1 47,35.17 l -0.8,0.46 a 1,1 0 0 0 1,1.73 L 48,36.9 a 18,18 0 0 1 1.48,4 l -0.94,0.17 a 1.003606,1.003606 0 0 0 0.17,2 h 0.17 l 1,-0.17 A 17.58,17.58 0 0 1 50,45 1,1 0 0 0 52,45 20,20 0 0 0 32,25 Z" />
    </g>
  </g>
</svg>
