<?xml version="1.0" encoding="UTF-8" standalone="no"?>
<svg
   xmlns:dc="http://purl.org/dc/elements/1.1/"
   xmlns:cc="http://creativecommons.org/ns#"
   xmlns:rdf="http://www.w3.org/1999/02/22-rdf-syntax-ns#"
   xmlns:svg="http://www.w3.org/2000/svg"
   xmlns="http://www.w3.org/2000/svg"
   xmlns:sodipodi="http://sodipodi.sourceforge.net/DTD/sodipodi-0.dtd"
   xmlns:inkscape="http://www.inkscape.org/namespaces/inkscape"
   viewBox="0 0 480 480"
   width="1000"
   height="1000"
   version="1.1"
   id="svg8"
   sodipodi:docname="webpack.svg"
   inkscape:version="0.92.4 (5da689c313, 2019-01-14)">
  <metadata
     id="metadata14">
    <rdf:RDF>
      <cc:Work
         rdf:about="">
        <dc:format>image/svg+xml</dc:format>
        <dc:type
           rdf:resource="http://purl.org/dc/dcmitype/StillImage" />
        <dc:title></dc:title>
      </cc:Work>
    </rdf:RDF>
  </metadata>
  <defs
     id="defs12" />
  <sodipodi:namedview
     pagecolor="#ffffff"
     bordercolor="#666666"
     borderopacity="1"
     objecttolerance="10"
     gridtolerance="10"
     guidetolerance="10"
     inkscape:pageopacity="0"
     inkscape:pageshadow="2"
     inkscape:window-width="1841"
     inkscape:window-height="1053"
     id="namedview10"
     showgrid="false"
     inkscape:pagecheckerboard="true"
     inkscape:zoom="0.53400704"
     inkscape:cx="984.23074"
     inkscape:cy="673.18683"
     inkscape:window-x="-9"
     inkscape:window-y="-9"
     inkscape:window-maximized="1"
     inkscape:current-layer="svg8" />
  <g
     id="g833"
     transform="translate(-335.0667,581.95336)">
    <rect
       ry="0"
       y="-579.8847"
       x="337.06235"
       height="477.59985"
       width="477.59985"
       id="rect826"
       style="opacity:1;fill:#ffffff;fill-opacity:1;stroke:#ffffff;stroke-width:2.40015125;stroke-linecap:round;stroke-linejoin:miter;stroke-miterlimit:4;stroke-dasharray:none;stroke-dashoffset:0;stroke-opacity:1;paint-order:normal" />
    <g
       style="stroke-width:2.77777767"
       transform="matrix(0.36,0,0,0.36,359.86228,-557.08477)"
       id="g824">
      <path
         style="fill:#ffffff;stroke-width:2.77777767"
         inkscape:connector-curvature="0"
         d="m 600,0 530.3,300 V 900 L 600,1200 69.7,900 V 300 Z"
         id="path2" />
      <path
         style="fill:#8ed6fb;stroke-width:2.77777767"
         inkscape:connector-curvature="0"
         d="M 1035.6,879.3 617.5,1115.8 V 931.6 L 878,788.3 Z m 28.6,-25.9 V 358.8 l -153,88.3 V 765 Z m -901.5,25.9 418.1,236.5 V 931.6 L 320.3,788.3 Z M 134.1,853.4 V 358.8 l 153,88.3 V 765 Z M 152,326.8 580.8,84.2 v 178.1 l -274.7,151.1 -2.1,1.2 z m 894.3,0 L 617.5,84.2 v 178.1 l 274.7,151.1 2.1,1.2 z"
         id="path4" />
      <path
         style="fill:#1c78c0;stroke-width:2.77777767"
         inkscape:connector-curvature="0"
         d="m 580.8,889.7 -257,-141.3 v -280 l 257,148.4 v 272.9 m 36.7,0 257,-141.3 v -280 l -257,148.4 V 889.7 M 341.2,436 l 258,-141.9 258,141.9 -258,149 -258,-149"
         id="path6" />
    </g>
  </g>
</svg>
